/* XPM */
static char *result[] = {
/* columns rows colors chars-per-pixel */
"64 64 113 2 ",
"   c #401000",
".  c #501000",
"X  c #402000",
"o  c #502000",
"O  c #503000",
"+  c #602000",
"@  c #603000",
"#  c #703000",
"$  c #604000",
"%  c #704000",
"&  c #705000",
"*  c #803000",
"=  c #804000",
"-  c #904000",
";  c #805000",
":  c #905000",
">  c #805010",
",  c #905010",
"<  c #A04000",
"1  c #B04000",
"2  c #A05000",
"3  c #B05000",
"4  c #806000",
"5  c #906000",
"6  c #907000",
"7  c #A06000",
"8  c #B06000",
"9  c #A07000",
"0  c #B07000",
"q  c #B06010",
"w  c #B07010",
"e  c #C05000",
"r  c #D05000",
"t  c #C06000",
"y  c #D06000",
"u  c #C07000",
"i  c #D07000",
"p  c #E07000",
"a  c #A08000",
"s  c #B08000",
"d  c #B09000",
"f  c #B08010",
"g  c #C08000",
"h  c #D08000",
"j  c #C09000",
"k  c #D09000",
"l  c #C08010",
"z  c #D09010",
"x  c #E08000",
"c  c #E09000",
"v  c #F09000",
"b  c #E08010",
"n  c #F09010",
"m  c #C0A000",
"M  c #D0A000",
"N  c #C0B000",
"B  c #D0B000",
"V  c #C0A010",
"C  c #D0A010",
"Z  c #D0B010",
"A  c #E0A000",
"S  c #F0A000",
"D  c #E0B000",
"F  c #F0B000",
"G  c #E0A010",
"H  c #F0A010",
"J  c #E0B010",
"K  c #F0B010",
"L  c #D09020",
"P  c #E09020",
"I  c #F09020",
"U  c #E0A020",
"Y  c #F0A020",
"T  c #F0B020",
"R  c #F0B030",
"E  c #D0C000",
"W  c #D0C010",
"Q  c #E0C000",
"!  c #F0C000",
"~  c #F0D000",
"^  c #E0C010",
"/  c #F0C010",
"(  c #E0D010",
")  c #F0D010",
"_  c #F0E000",
"`  c #F0E010",
"'  c #F0F010",
"]  c #F0C020",
"[  c #F0D020",
"{  c #F0C030",
"}  c #F0D030",
"|  c #F0E020",
" . c #F0F020",
".. c #F0E030",
"X. c #F0F030",
"o. c #F0B040",
"O. c #F0B050",
"+. c #F0B060",
"@. c #F0C040",
"#. c #F0D040",
"$. c #F0C050",
"%. c #F0D050",
"&. c #F0E040",
"*. c #F0F040",
"=. c #F0E050",
"-. c #F0F050",
";. c #F0C060",
":. c #F0D060",
">. c #F0C070",
",. c #F0F060",
"<. c #F0F070",
"1. c #F0F080",
"2. c None",
/* pixels */
"2.2.2.2.2.2.2.2.2.2.2.2.2.2.2.2.2.2.2.2.2.2.2.2.2.2.2.2.2.2.2.2.2.2.2.2.2.2.2.2.2.2.2.2.2.2.2.2.2.2.2.2.2.2.2.2.2.2.2.2.2.2.2.2.",
"2.2.2.2.2.2.2.2.2.2.2.2.2.2.2.2.2.2.2.2.2.2.2.2.2.2.2.2.2.2.@ @ @ @ @ 2.2.2.2.2.2.2.2.2.2.2.2.2.2.2.2.2.2.2.2.2.2.2.2.2.2.2.2.2.",
"2.2.2.2.2.2.2.2.2.2.2.2.2.2.2.2.2.2.2.2.2.2.2.2.@ @ @ @ @ @ @ @ @ @ @ @ @ @ @ @ @ 2.2.2.2.2.2.2.2.2.2.2.2.2.2.2.2.2.2.2.2.2.2.2.",
"2.2.2.2.2.2.2.2.2.2.2.2.2.2.2.2.2.2.2.2.2.@ @ @ @ @ o o o o o o o o o o o o + @ @ @ @ 2.2.2.2.2.2.2.2.2.2.2.2.2.2.2.2.2.2.2.2.2.",
"2.2.2.2.2.2.2.2.2.2.2.2.2.2.2.2.2.2.@ @ @ @ @ + o X o o o o @ ; ; % o o o o o o o @ @ @ @ @ 2.2.2.2.2.2.2.2.2.2.2.2.2.2.2.2.2.2.",
"2.2.2.2.2.2.2.2.2.2.2.2.2.2.2.2.2.@ @ @ + o o o @ : w l l l P R R Y L l l l 7 @ o   o + @ @ @ @ 2.2.2.2.2.2.2.2.2.2.2.2.2.2.2.2.",
"2.2.2.2.2.2.2.2.2.2.2.2.2.2.2.@ @ @ @ o o o ; w P R o.o.o.O.O.+.;.$.$.$.$.@.R U w ; @ o o + @ @ @ 2.2.2.2.2.2.2.2.2.2.2.2.2.2.2.",
"2.2.2.2.2.2.2.2.2.2.2.2.2.2.@ @ @ +   @ 5 z Y R o.O.+.+.+.;.;.$.$.$.;.;.;.;.;.$.@.R U f $   o @ @ @ @ 2.2.2.2.2.2.2.2.2.2.2.2.2.",
"2.2.2.2.2.2.2.2.2.2.2.2.2.@ @ @ o X % z T o.O.O.O.O.$.$.$.$.@.@.@.@.$.$.$.$.$.;.;.$.$.{ G 6 O   + @ @ @ 2.2.2.2.2.2.2.2.2.2.2.2.",
"2.2.2.2.2.2.2.2.2.2.2.2.@ @ +   O 9 T R O.O.O.$.$.@.@.@.#.#.} ....} #.#.#.#.@.@.$.$.$.$.@.{ C & . o @ @ @ 2.2.2.2.2.2.2.2.2.2.2.",
"2.2.2.2.2.2.2.2.2.2.2.@ @ o o % z T o.O.O.$.@.@.@.} ..X.X.X. . .| |  .X.X.X.} { #.#.#.%.%.$.#.] 9 o . @ @ @ 2.2.2.2.2.2.2.2.2.2.",
"2.2.2.2.2.2.2.2.2.2.@ @ o o 5 K R o.O.$.@.@.} ..X.X. ./ G k k i t i k c G K | X...} #.#.%.%.%.#.[ V @ . @ @ @ 2.2.2.2.2.2.2.2.2.",
"2.2.2.2.2.2.2.2.2.@ @ +   4 K R o.O.@.@.{ ..X.X.) G u 3 2 2 2 2 2 2 2 2 2 3 u G / ....} #.#.%.%.%.| Z @ . @ @ @ 2.2.2.2.2.2.2.2.",
"2.2.2.2.2.2.2.2.@ @ o   % G { @.$.@.@.} X.X.| x e 1 2 8 8 8 7 7 7 7 7 7 7 7 2 2 3 h [ ..} #.#.#.%.%.| B @ . @ @ @ 2.2.2.2.2.2.2.",
"2.2.2.2.2.2.2.@ @ + o & G T o.$.@.@...X.X.K e 3 8 8 8 8 7 : : : ; ; : : : 7 7 7 7 2 t K ..} } #.#.=.%.| N @ o @ @ 2.2.2.2.2.2.2.",
"2.2.2.2.2.2.@ @ @   % J ] o.@.@.@...X.X.x 1 8 0 8 8 : = # @ + @ @ + @ @ @ = : 7 7 7 2 3 h [ } { #.#.=.&. .d . o @ @ 2.2.2.2.2.2.",
"2.2.2.2.2.2.@ @ o O j ] @.@.@.@...X.*.x 3 8 u 8 : % @ + o o o o o o o o o o @ % ; 7 7 7 2 i [ } { #.&.=.*.` 4 . @ @ 2.2.2.2.2.2.",
"2.2.2.2.2.@ @ + . 9 / { @.@.@...X.-.b 3 u u 8 = + o o + @ @ @ @ @ @ @ @ @ + o o + % 5 7 7 2 x } } { #.&.=.X.W @ o @ @ 2.2.2.2.2.",
"2.2.2.2.2.@ @ . % K ] @.@.@... .,.Y e u u 7 # o o @ @ @ @ @ @ @ @ @ @ @ @ @ @ @ o o @ : 7 7 2 c [ { #.#.&.*. .a . + @ @ 2.2.2.2.",
"2.2.2.2.@ @ o @ j ] { @.@.}  .,.%.r u i 7 # o o @ @ @ @ 2.2.2.2.2.2.2.2.@ @ @ @ @ @ o @ ; 8 7 3 S } { #.&.*.X.) % . @ @ 2.2.2.2.",
"2.2.2.2.@ @ . ; / ] @.@.@.X.X.<.x t h q # o o @ @ @ 2.2.2.2.2.2.2.2.2.2.2.2.2.@ @ @ @ o @ : 8 7 h ] { { #.&.*. .d o o @ @ 2.2.2.",
"2.2.2.@ @ + o s / { @.@... .<.$.y h u # o o @ @ @ 2.2.2.2.2.2.2.2.2.2.2.2.2.2.2.@ @ @ @ o @ 5 8 t K { { } &.*.X.` % . @ @ 2.2.2.",
"2.2.2.@ @ o @ M ] { @.@.X.X.<.x i h - o o @ @ 2.2.2.2.2.2.2.2.2.2.2.2.2.2.2.2.2.2.2.@ @ + o % 7 8 x ] { { #.&.*. .a . + @ @ 2.2.",
"2.2.2.@ + o 5 / ] @.@.}  .-.&.p h q + o @ @ 2.2.2.2.2.2.2.2.2.2.2.2.2.2.2.2.2.2.2.2.@ @ @ o + : 0 t S { { #.&.*.X.E @ o @ @ 2.2.",
"2.2.@ @ o o j / { @.@...X.-.K p h = o @ @ @ 2.2.2.2.2.2.2.2.2.2.2.2.2.2.2.2.2.2.2.2.2.@ @ @ o % 7 t S ] { @.&.*.X.' 5 . + @ 2.2.",
"2.2.2.@ o % A ] { @.{ X.X.*.v x 8 + o @ @ 2.2.2.2.2.2.2.2.2.2.2.2.2.2.2.2.2.2.2.2.2.2.2.@ @ o @ : u S ] { { #.*.*.' d o o @ 2.2.",
"2.2.@ @ o = F ] @.@.#.X.X.X.v x : o + @ 2.2.2.2.2.2.2.2.2.2.2.2.2.2.2.2.2.2.2.2.2.2.2.2.@ @ + o = 0 v / { { #.*.*. .E @ o @ @ 2.",
"2.2.@ @ o ; F ] { @...X.X. .v u # o @ @ 2.2.2.2.2.2.2.2.2.2.2.2.2.2.2.2.2.2.2.2.2.2.2.2.2.@ @ o # 8 c / ] { } &.*. ._ & . @ 2.2.",
"2.2.@ + o 9 ! ] { @...X.X. .v 8 o o @ @ 2.2.2.2.2.2.2.2.2.2.2.2.2.2.2.2.2.2.2.2.2.2.2.2.2.@ @ o @ 7 c / ] { @.&.*.X.` ; . @ @ 2.",
"2.2.@ o o 0 ! ] { { X.X.X. .S 3 o o @ 2.2.2.2.2.2.2.2.2.2.2.2.2.2.2.2.2.2.2.2.2.2.2.2.2.2.@ @ o @ 2 S ) ] { @.&.*.X.` ; . @ @ 2.",
"2.2.@ o o 0 ! { { { X.X.X.X.K 3 o o @ 2.2.2.2.2.2.2.2.2.2.2.2.2.2.2.2.2.2.2.2.2.2.2.2.2.2.@ @ o o : F ) ] { @.&.*.X.' 5 . + @ 2.",
"2.2.@ o o 0 / { { #.*.X.X.X./ 3 o o @ 2.2.2.2.2.2.2.2.2.2.2.2.2.2.2.2.2.2.2.2.2.2.2.2.2.2.2.@ o o - D ) ] { @.&.*.X.' s o o @ 2.",
"2.2.@ o o 0 ! ] { #.X.X.X.X.) 8 o o @ 2.2.2.2.2.2.2.2.2.2.2.2.2.2.2.2.2.2.2.2.2.2.2.2.2.2.2.@ + o : ! [ ] { @.&.*.X.' s o o @ 2.",
"2.2.@ o o 7 ! ] { { *.X.X.X.' 8 o o @ 2.2.2.2.2.2.2.2.2.2.2.2.2.2.2.2.2.2.2.2.2.2.2.2.2.2.@ @ o o 0 ) ] ] { @.&.X.X.' 9 o + @ 2.",
"2.2.@ o o : F ] { { &.X.X.X.' s . o @ 2.2.2.2.2.2.2.2.2.2.2.2.2.2.2.2.2.2.2.2.2.2.2.2.2.2.@ @ o @ M | ] ] { @.&.X. .` = o @ @ 2.",
"2.2.@ + o = A ] { { &.*.X.X.' M + o @ @ 2.2.2.2.2.2.2.2.2.2.2.2.2.2.2.2.2.2.2.2.2.2.2.2.2.@ @ o # D | ] { @.@.*.X. .! * o @ @ 2.",
"2.2.@ @ o # k / { { &.*.X.X. ._ = . @ @ 2.2.2.2.2.2.2.2.2.2.2.2.2.2.2.2.2.2.2.2.2.2.2.2.2.@ @ . : ) [ ] { @.@.X.X. .D # o @ 2.2.",
"2.2.@ @ o + g / { { #.*.*.X.X.' a . o @ 2.2.2.2.2.2.2.2.2.2.2.2.2.2.2.2.2.2.2.2.2.2.2.2.@ @ o o j ` { { { @.#.X.X. .h + o @ @ 2.",
"2.2.2.@ o @ 7 F ] { } &.*.X.X.' m o o @ @ 2.2.2.2.2.2.2.2.2.2.2.2.2.2.2.2.2.2.2.2.2.2.2.@ @ o # ~ | { { @.@.&.X.X.` 3 o o @ @ 2.",
"2.2.@ @ + o = h / { { &.*.*.*. ._ % . @ @ 2.2.2.2.2.2.2.2.2.2.2.2.2.2.2.2.2.2.2.2.2.2.@ @ o . s ' } { { @.@.X.X.X.F * o + @ 2.2.",
"2.2.2.@ @ o # 8 F { { } &.*.*.X.' d o o @ @ 2.2.2.2.2.2.2.2.2.2.2.2.2.2.2.2.2.2.2.2.2.@ @ . ; _  .{ { @.@.#.X.X. .u + o @ @ 2.2.",
"2.2.2.@ @ o + = h [ { } &.*.*.*.X._ %   @ @ @ 2.2.2.2.2.2.2.2.2.2.2.2.2.2.2.2.2.2.2.@ @ o + B  .#.R { @.@...X.*./ < + o @ @ 2.2.",
"2.2.2.@ @ @ o % 8 / { { #.&.*.*.*. .B @ . @ @ @ 2.2.2.2.2.2.2.2.2.2.2.2.2.2.2.2.2.@ @ o   9 ' ..@.R @.@.#.X.*.*.i * o + @ 2.2.2.",
"2.2.2.2.@ @ o @ : c [ { } &.&.&.*.*. .N @ . @ @ @ @ 2.2.2.2.2.2.2.2.2.2.2.2.2.@ @ @ +   ; ` X.@.R @.@.@... .,.T 3 # o @ @ 2.2.2.",
"2.2.2.2.@ @ o + = 2 S } { } &.&.=.=.*. .N +   + @ @ @ @ 2.2.2.2.2.2.2.2.2.@ @ @ @ o   $ Q | @.o.@.@.@.#. .-.%.t - o + @ @ 2.2.2.",
"2.2.2.2.2.@ @ o @ ; 8 K } } #.&.=.%.=.*. .B @   o @ @ @ @ @ @ @ @ @ @ @ @ @ @ o o . 4 ^ | @.o.o.@.@.@. .*.1.p 2 @ o @ @ 2.2.2.2.",
"2.2.2.2.2.@ @ @ o # : i [ } } #.&.%.%.=.*.X.( 6 @   . o + @ @ @ @ @ @ @ o o . . @ d ) ..$.o.o.o.@.@... .1.I 2 % o + @ @ 2.2.2.2.",
"2.2.2.2.2.2.@ @ o + = 2 c } } } #.#.%.%.%.=.*. .^ 9 % o .   . . . . .   o o ; s ^ } #.O.O.o.@.@.@... .<.R 3 = o o @ @ 2.2.2.2.2.",
"2.2.2.2.2.2.2.@ @ o @ : 2 x } } } #.#.%.%.%.%.=.*.X.[ V 9 ; ; ; ; ; ; 4 f C ] } #.$.O.O.O.O.@.@...X.,.R e : @ o @ @ 2.2.2.2.2.2.",
"2.2.2.2.2.2.2.@ @ @ o # ; : h [ ..} #.#.%.%.$.;.;.%.%.&.} } { } } { { } } #.$.;.O.O.O.O.$.@.@...X.-.Y e 7 # o @ @ @ 2.2.2.2.2.2.",
"2.2.2.2.2.2.2.2.@ @ @ o # ; : i [ ..} #.#.#.%.$.;.;.;.;.;.:.:.:.:.:.:.;.;.;.+.+.O.O.$.@.@.} ..X.*.n 3 7 # o + @ @ 2.2.2.2.2.2.2.",
"2.2.2.2.2.2.2.2.2.@ @ @ o # ; : u ] ....} #.#.%.$.$.$.;.;.;.;.;.>.;.+.+.+.O.O.O.$.$.@.@...X.X...x 3 7 # o o @ @ 2.2.2.2.2.2.2.2.",
"2.2.2.2.2.2.2.2.2.2.@ @ @ o # : : 3 c [ X...#.#.#.#.$.$.$.$.$.+.+.+.O.O.O.$.$.$.@.@.} X.X. .G t 2 7 # o o @ @ 2.2.2.2.2.2.2.2.2.",
"2.2.2.2.2.2.2.2.2.2.2.@ @ @ o @ > : : t H | X.....} #.#.#.@.$.$.$.$.$.@.@.@.@.#...X.X. .K i 3 7 , # o o @ @ 2.2.2.2.2.2.2.2.2.2.",
"2.2.2.2.2.2.2.2.2.2.2.2.@ @ @ o + # : : 2 i J [  .X.X.....#.#.#.@.#.#.#.....X.X. .| / i 3 2 : = + o + @ @ 2.2.2.2.2.2.2.2.2.2.2.",
"2.2.2.2.2.2.2.2.2.2.2.2.2.@ @ @ o o @ = : : 2 8 h G [ |  . .X.X.X.X.X. . . .| J h t 3 2 7 = @ o o @ @ @ 2.2.2.2.2.2.2.2.2.2.2.2.",
"2.2.2.2.2.2.2.2.2.2.2.2.2.2.@ @ @ @ o + # = : : : < 8 u h k c J K G c k h u t < 2 : : = # + o + @ @ @ 2.2.2.2.2.2.2.2.2.2.2.2.2.",
"2.2.2.2.2.2.2.2.2.2.2.2.2.2.2.@ @ @ @ O o + @ # = : : : : - 2 2 2 2 < : : : : : = # @ + o o @ @ @ @ 2.2.2.2.2.2.2.2.2.2.2.2.2.2.",
"2.2.2.2.2.2.2.2.2.2.2.2.2.2.2.2.2.@ @ @ @ + o o + @ # # % = = ; ; ; = = = = # @ o o o + @ @ @ @ 2.2.2.2.2.2.2.2.2.2.2.2.2.2.2.2.",
"2.2.2.2.2.2.2.2.2.2.2.2.2.2.2.2.2.2.@ @ @ @ @ @ o o o o + + @ @ @ @ @ o + o o o + @ @ @ @ @ @ 2.2.2.2.2.2.2.2.2.2.2.2.2.2.2.2.2.",
"2.2.2.2.2.2.2.2.2.2.2.2.2.2.2.2.2.2.2.2.2.@ @ @ @ @ @ @ @ + o o o o o @ @ @ + @ @ @ @ @ 2.2.2.2.2.2.2.2.2.2.2.2.2.2.2.2.2.2.2.2.",
"2.2.2.2.2.2.2.2.2.2.2.2.2.2.2.2.2.2.2.2.2.2.2.2.@ @ @ @ @ @ @ @ @ @ @ @ @ @ @ @ @ 2.2.2.2.2.2.2.2.2.2.2.2.2.2.2.2.2.2.2.2.2.2.2.",
"2.2.2.2.2.2.2.2.2.2.2.2.2.2.2.2.2.2.2.2.2.2.2.2.2.2.2.2.2.@ @ @ @ @ @ 2.2.2.2.2.2.2.2.2.2.2.2.2.2.2.2.2.2.2.2.2.2.2.2.2.2.2.2.2.",
"2.2.2.2.2.2.2.2.2.2.2.2.2.2.2.2.2.2.2.2.2.2.2.2.2.2.2.2.2.2.2.2.2.2.2.2.2.2.2.2.2.2.2.2.2.2.2.2.2.2.2.2.2.2.2.2.2.2.2.2.2.2.2.2."
};
