/* XPM */
static char *result[] = {
/* columns rows colors chars-per-pixel */
"64 64 91 1 ",
"  c #501000",
". c #502000",
"X c #503000",
"o c #602000",
"O c #603000",
"+ c #703000",
"@ c #704000",
"# c #705000",
"$ c #804000",
"% c #904000",
"& c #805000",
"* c #905000",
"= c #905010",
"- c #A05000",
"; c #B05000",
": c #806000",
"> c #906000",
", c #907000",
"< c #A06000",
"1 c #B06000",
"2 c #A07000",
"3 c #B07000",
"4 c #C06000",
"5 c #C07000",
"6 c #D07000",
"7 c #E07000",
"8 c #A08000",
"9 c #B09000",
"0 c #C08000",
"q c #D08000",
"w c #C09000",
"e c #D09000",
"r c #E08000",
"t c #F08000",
"y c #E09000",
"u c #F09000",
"i c #C0A000",
"p c #D0A000",
"a c #D0B000",
"s c #C0A010",
"d c #D0A010",
"f c #D0B010",
"g c #E0A000",
"h c #F0A000",
"j c #E0B000",
"k c #F0B000",
"l c #F0A010",
"z c #E0B010",
"x c #F0B010",
"c c #F0A020",
"v c #F0B020",
"b c #F0B030",
"n c #D0C000",
"m c #D0C010",
"M c #E0C000",
"N c #F0C000",
"B c #E0D000",
"V c #F0C010",
"C c #F0D010",
"Z c #F0E010",
"A c #F0F010",
"S c #F0C020",
"D c #E0D020",
"F c #F0D020",
"G c #F0C030",
"H c #F0D030",
"J c #F0E020",
"K c #F0F020",
"L c #F0E030",
"P c #F0F030",
"I c #F0B040",
"U c #F0B050",
"Y c #F0B060",
"T c #F0C040",
"R c #F0D040",
"E c #F0C050",
"W c #F0D050",
"Q c #F0E040",
"! c #F0F040",
"~ c #F0E050",
"^ c #F0F050",
"/ c #F0C060",
"( c #F0D060",
") c #F0C070",
"_ c #F0D070",
"` c #F0E060",
"' c #F0F060",
"] c #F0F070",
"[ c #F0F080",
"{ c #F0F090",
"} c None",
/* pixels */
"}}}}}}}}}}}}}}}}}}}}}}}}}}}}}}}}}}}}}}}}}}}}}}}}}}}}}}}}}}}}}}}}",
"}}}}}}}}}}}}}}}}}}}}}}}}}}}}}}}OOOOO}}}}}}}}}}}}}}}}}}}}}}}}}}}}",
"}}}}}}}}}}}}}}}}}}}}}}}}}}}}OOOOOooOOOO}}}}}}}}}}}}}}}}}}}}}}}}}",
"}}}}}}}}}}}}}}}}}}}}}}}}}}}OOOo. ...oOOO}}}}}}}}}}}}}}}}}}}}}}}}",
"}}}}}}}}}}}}}}}}}}}}}}}}}}OOo..O&>&. .OOO}}}}}}}}}}}}}}}}}}}}}}}",
"}}}}}}}}}}}}}}}}}}}}}}}}}OO. O8mFSvd,O.OOO}}}}}}}}}}}}}}}}}}}}}}",
"}}}}}}}}}}}}}}}}}}}}}}}}OOo.&aAP!~WRHf@ OOO}}}}}}}}}}}}}}}}}}}}}",
"}}}}}}}}}}}}}}}}}}}}}}}OOO.+jAP!!W(((Ls..OO}}}}}}}}}}}}}}}}}}}}}",
"}}}}}}}}}}}}}}}}}}}}}}}OO.o<hJPPQWE/_`J8 oOO}}}}}}}}}}}}}}}}}}}}",
"}}}}}}}}}}}}}}}}}}}}}}OOO.$3qkPPQRE//(QC@ OO}}}}}}}}}}}}}}}}}}}}",
"}}}}}}}}}}}}}}}}}}}}}}OO.O<35yJPLRE//_(Pi .OO}}}}}}}}}}}}}}}}}}}",
"}}}}}}}}}}}}}}}}}}}}}}Oo.$2336xPLREE/)(!A: OOO}}}}}}}}}}}}}}}}}}",
"}}}}}}}}}}}}}}}}}}}}}}O.o*2<>3hKLRTEY//(PnO.OO}}}}}}}}}}}}}}}}}}",
"}}}}}}}}}}}}}}}}}}}}}OO.O*2<&*yJPHTEY//(!A> oO}}}}}}}}}}}}}}}}}}",
"}}}}}}}}}}}}}}}}}}}}}OO.+<<<*#5VPHTEU///^Ki..OO}}}}}}}}}}}}}}}}}",
"}}}}}}}}}}}}}}}}}}}}}Oo.@<<<>&<kPHTEUY//~PB@.OO}}}}}}}}}}}}}}}}}",
"}}}}}}}}}}}}}}}}}}}}}O.o&<1<<**gKHTTUY//~!A& OO}}}}}}}}}}}}}}}}}",
"}}}}}}}}}}}}}}}}}}}}}O.o*<1<<<*eJLGTUU//W!A8..O}}}}}}}}}}}}}}}}}",
"}}}}}}}}}}}}}}}}}}}}OO.O*11<<<<qJLGTIUYEW!Kw..O}}}}}}}}}}}}}}}}}",
"}}}}}}}}}}}}}}}}}}}}}O.+<11<<<15CLGTIUYEW!KaO.OO}}}}}}}}}}}}}}}}",
"}}}}}}}}}}}}}}}}}}}}OO.+<11<-114VLGTIUUEW!PB@.O}}}}}}}}}}}}}}}}}",
"}}}}}}}}}}}}}}}}}}}}OO.+<1<<<145kLGGIUUEW!PZ$ OO}}}}}}}}}}}}}}}}",
"}}}}}}}}}}}}}}}}}}}}Oo.$11<<<145gLGGTUUEW!PZ& OO}}}}}}}}}}}}}}}}",
"}}}}}}}}}}}}}}}}}}}}OoX&331<<156gJGGTIEEW!PA2..O}}}}}}}}}}}}}}}}",
"}}}}}}}}}}}}}}}}}}}}O..*53111156yJGGTIEEW!PA9..O}}}}}}}}}}}}}}}}",
"}}}}}}}}}}}}}}}}}}}}O..*5311156reCHGGTEWQ!PA9..O}}}}}}}}}}}}}}}}",
"}}}}}}}}}}}}}}}}}}}}O..*556446ryqCFGGTTRQ!PA9..O}}}}}}}}}}}}}}}}",
"}}}}}}}}}}}}}}}}}}}}O..*qhxVVltuqVFSGTTRQ!PA9..O}}}}}}}}}}}}}}}}",
"}}}}}}}}}}}}}}}}}}}}O..*hVGK'[htqVFSGTTRQ!PAw .O}}}}}}}}}}}}}}}}",
"}}}}}}}}}}}}}}}}}}}}O..*hVGJ!^JuqVFSGTTR!PPApo.OO}}}}}}}}}}}}}}}",
"}}}}}}}}}}}}}}}}}}}}O..*kSbLPKPc6NFSGGTR!PPKj+.OO}}}}}}}}}}}}}}}",
"}}}}}}}}}}}}}}}}}}}}O..<NSGHPPPS6kFSGGTQ!PPKk+.OO}}}}}}}}}}}}}}}",
"}}}}}}}}}}}}}}}}}}}}O..<NSTR!PPF6hCSSGGQPPPKk+.OO}}}}}}}}}}}}}}}",
"}}}}}}}}}}}}}}}}}}}}O..2NGTTQPPJ6hCSSGGLPPPKy+.OO}}}}}}}}}}}}}}}",
"}}}}}}}}}}}}}}}}}}}}O..2VGTTQ!PJqhCSSGGLPPPA6o.OO}}}}}}}}}}}}}}}",
"}}}}}}}}}}}}}}}}}}}}O..3VGIEW!PKquCSvGGPPPPZ;..O}}}}}}}}}}}}}}}}",
"}}}}}}}}}}}}}}}}}}}}O..3CGIUE~!KqyVVvGHPPPPV;..O}}}}}}}}}}}}}}}}",
"}}}}}}}}}}}}}}}}}}}}O..2CGIU/~!KqrNVSGHKP!Ph-..O}}}}}}}}}}}}}}}}",
"}}}}}}}}}}}}}}}}}}}}O..2CTIU/W!KqrhVSGLK!'Kt1..O}}}}}}}}}}}}}}}}",
"}}}}}}}}}}}}}}}}}}}}O..2ZTUU/(^KqrhkxSLK]{V7<..O}}}}}}}}}}}}}}}}",
"}}}}}}}}}}}}}}}}}}}}Oo.<CRUY/(^Z6qhkxSJK]`tr*.oO}}}}}}}}}}}}}}}}",
"}}}}}}}}}}}}}}}}}}}}Oo.&CHEY/(^F6qyhhSLPLu7q$.OO}}}}}}}}}}}}}}}}",
"}}}}}}}}}}}}}}}}}}}}OO.+VLEY)('D6qq6rxFxttr5@.OO}}}}}}}}}}}}}}}}",
"}}}}}}}}}}}}}}}}}}}}OO.+MLRE/('z5q655r667rq5@.O}}}}}}}}}}}}}}}}}",
"}}}}}}}}}}}}}}}}}}}}}O.OjKQW/('g66555446q6q1O.OO}}}}}}}}}}}}}}}}",
"}}}}}}}}}}}}}}}}}}}}OO..wKQ~/`^e6553145556q<..O}}}}}}}}}}}}}}}}}",
"}}}}}}}}}}}}}}}}}}}}}O. 3A!!W`Qq65511114555*.oO}}}}}}}}}}}}}}}}}",
"}}}}}}}}}}}}}}}}}}}}}Oo.<ZP!^'H655311111555$.OO}}}}}}}}}}}}}}}}}",
"}}}}}}}}}}}}}}}}}}}}}OO.$CP!!^z455111111553+.OO}}}}}}}}}}}}}}}}}",
"}}}}}}}}}}}}}}}}}}}}}OO.ogK!!Py55111<11155-o.OO}}}}}}}}}}}}}}}}}",
"}}}}}}}}}}}}}}}}}}}}}OO..3AP!C60311<<<1155$.oO}}}}}}}}}}}}}}}}}}",
"}}}}}}}}}}}}}}}}}}}}}}Oo.%kPJy55311<<<145<O.OO}}}}}}}}}}}}}}}}}}",
"}}}}}}}}}}}}}}}}}}}}}}OO.+qNhq0311<<<<143%.oOO}}}}}}}}}}}}}}}}}}",
"}}}}}}}}}}}}}}}}}}}}}}OO..*yyq5311<<<115<+.OO}}}}}}}}}}}}}}}}}}}",
"}}}}}}}}}}}}}}}}}}}}}}OOO.+3q03111<-<111$.oOO}}}}}}}}}}}}}}}}}}}",
"}}}}}}}}}}}}}}}}}}}}}}}OO..$353111<<111=O.OO}}}}}}}}}}}}}}}}}}}}",
"}}}}}}}}}}}}}}}}}}}}}}}OOO.o=2111<<<11*+.OOO}}}}}}}}}}}}}}}}}}}}",
"}}}}}}}}}}}}}}}}}}}}}}}}OOO.O&><<<<<<*+.oOO}}}}}}}}}}}}}}}}}}}}}",
"}}}}}}}}}}}}}}}}}}}}}}}}}OOO.O+$&**&@O.OOO}}}}}}}}}}}}}}}}}}}}}}",
"}}}}}}}}}}}}}}}}}}}}}}}}}}OOO..oOOOO..oOOO}}}}}}}}}}}}}}}}}}}}}}",
"}}}}}}}}}}}}}}}}}}}}}}}}}}}OOOOo....oOOOO}}}}}}}}}}}}}}}}}}}}}}}",
"}}}}}}}}}}}}}}}}}}}}}}}}}}}}OOOOOOOOOOO}}}}}}}}}}}}}}}}}}}}}}}}}",
"}}}}}}}}}}}}}}}}}}}}}}}}}}}}}}}OOOOOO}}}}}}}}}}}}}}}}}}}}}}}}}}}",
"}}}}}}}}}}}}}}}}}}}}}}}}}}}}}}}}}}}}}}}}}}}}}}}}}}}}}}}}}}}}}}}}"
};
