/* XPM */
static char *result[] = {
/* columns rows colors chars-per-pixel */
"64 64 102 2 ",
"   c #401000",
".  c #501000",
"X  c #402000",
"o  c #502000",
"O  c #503000",
"+  c #602000",
"@  c #603000",
"#  c #703000",
"$  c #704000",
"%  c #705000",
"&  c #803000",
"*  c #804000",
"=  c #904000",
"-  c #805000",
";  c #905000",
":  c #804010",
">  c #904010",
",  c #805010",
"<  c #905010",
"1  c #A04000",
"2  c #A05000",
"3  c #B05000",
"4  c #806000",
"5  c #906000",
"6  c #907000",
"7  c #A06000",
"8  c #B06000",
"9  c #A07000",
"0  c #B07000",
"q  c #C06000",
"w  c #D06000",
"e  c #C07000",
"r  c #D07000",
"t  c #E06000",
"y  c #E07000",
"u  c #A08000",
"i  c #B08000",
"p  c #B08010",
"a  c #B0A000",
"s  c #C08000",
"d  c #D08000",
"f  c #C09000",
"g  c #D09000",
"h  c #C08010",
"j  c #D09010",
"k  c #E08000",
"l  c #F08000",
"z  c #E09000",
"x  c #F09000",
"c  c #C0A000",
"v  c #D0A000",
"b  c #D0B000",
"n  c #D0A010",
"m  c #D0B010",
"M  c #E0A000",
"N  c #F0A000",
"B  c #E0B000",
"V  c #F0B000",
"C  c #E0B010",
"Z  c #F0B010",
"A  c #E0A020",
"S  c #E0B020",
"D  c #F0B020",
"F  c #F0B030",
"G  c #D0C000",
"H  c #E0C000",
"J  c #F0C000",
"K  c #E0D000",
"L  c #F0D000",
"P  c #F0C010",
"I  c #F0D010",
"U  c #F0E000",
"Y  c #F0E010",
"T  c #F0F010",
"R  c #F0C020",
"E  c #F0D020",
"W  c #F0C030",
"Q  c #F0D030",
"!  c #F0E020",
"~  c #F0F020",
"^  c #F0E030",
"/  c #F0F030",
"(  c #F0B040",
")  c #F0B050",
"_  c #F0B060",
"`  c #F0C040",
"'  c #F0D040",
"]  c #F0C050",
"[  c #F0D050",
"{  c #F0E040",
"}  c #F0F040",
"|  c #F0E050",
" . c #F0F050",
".. c #F0C060",
"X. c #F0D060",
"o. c #F0C070",
"O. c #F0D070",
"+. c #F0F060",
"@. c #F0F070",
"#. c #F0F080",
"$. c #F0F090",
"%. c None",
/* pixels */
"%.%.%.%.%.%.%.%.%.%.%.%.%.%.%.%.%.%.%.%.%.%.%.%.%.%.%.%.%.%.%.%.%.%.%.%.%.%.%.%.%.%.%.%.%.%.%.%.%.%.%.%.%.%.%.%.%.%.%.%.%.%.%.%.",
"%.%.%.%.%.%.%.%.%.%.%.%.%.%.%.%.%.%.%.%.%.%.%.%.%.%.%.%.%.%.%.@ @ @ @ @ @ @ @ %.%.%.%.%.%.%.%.%.%.%.%.%.%.%.%.%.%.%.%.%.%.%.%.%.",
"%.%.%.%.%.%.%.%.%.%.%.%.%.%.%.%.%.%.%.%.%.%.%.%.%.%.%.%.@ @ @ @ @ @ @ @ @ @ @ @ @ @ %.%.%.%.%.%.%.%.%.%.%.%.%.%.%.%.%.%.%.%.%.%.",
"%.%.%.%.%.%.%.%.%.%.%.%.%.%.%.%.%.%.%.%.%.%.%.%.%.@ @ @ @ @ o o . . o o o o o + @ @ @ @ %.%.%.%.%.%.%.%.%.%.%.%.%.%.%.%.%.%.%.%.",
"%.%.%.%.%.%.%.%.%.%.%.%.%.%.%.%.%.%.%.%.%.%.%.@ @ @ @ + o . o @ - - - - - $ o o o o @ @ @ @ %.%.%.%.%.%.%.%.%.%.%.%.%.%.%.%.%.%.",
"%.%.%.%.%.%.%.%.%.%.%.%.%.%.%.%.%.%.%.%.%.@ @ @ @ o o o @ - i n R R R R R S j 7 $ o . o @ @ @ %.%.%.%.%.%.%.%.%.%.%.%.%.%.%.%.%.",
"%.%.%.%.%.%.%.%.%.%.%.%.%.%.%.%.%.%.%.%.@ @ @ + o o $ i m P E Q ' ' ' [ ] ] ` W D h * o o + @ @ %.%.%.%.%.%.%.%.%.%.%.%.%.%.%.%.",
"%.%.%.%.%.%.%.%.%.%.%.%.%.%.%.%.%.%.%.@ @ @ o   @ i P Y ! ^ Q ' ' ' ' ` ] ] ] ..] ' D p @   o @ @ %.%.%.%.%.%.%.%.%.%.%.%.%.%.%.",
"%.%.%.%.%.%.%.%.%.%.%.%.%.%.%.%.%.%.@ @ @ o o 5 b Y ! Q Q Q Q W W W W W ` ` ] ) _ ....` A - X o @ @ %.%.%.%.%.%.%.%.%.%.%.%.%.%.",
"%.%.%.%.%.%.%.%.%.%.%.%.%.%.%.%.%.@ @ + . @ f Y E Q Q E P P P P I E Q W W W ` ` ) ) _ ..] D 5   o @ @ %.%.%.%.%.%.%.%.%.%.%.%.%.",
"%.%.%.%.%.%.%.%.%.%.%.%.%.%.%.%.@ @ o . @ c I E E P Z M k d k k z N P I E W W ` ` ( ) _ o.] D 5   o @ @ %.%.%.%.%.%.%.%.%.%.%.%.",
"%.%.%.%.%.%.%.%.%.%.%.%.%.%.%.@ @ + o - b I E I N d e 8 8 8 8 8 8 q r k V E E W W ` ( ) _ o.] R 5   o @ @ %.%.%.%.%.%.%.%.%.%.%.",
"%.%.%.%.%.%.%.%.%.%.%.%.%.%.@ @ @   $ H I E P z q 8 8 8 8 7 8 8 8 8 0 8 r N I E R W ` ( ) _ o.] R 6   o @ @ %.%.%.%.%.%.%.%.%.%.",
"%.%.%.%.%.%.%.%.%.%.%.%.%.%.@ @ o o c I E Z r 8 8 7 7 7 7 7 7 7 7 7 7 8 0 e k J E W W ` ( ) _ ..] E 5 . + @ @ %.%.%.%.%.%.%.%.%.",
"%.%.%.%.%.%.%.%.%.%.%.%.%.@ @ + . 6 I I P r 8 7 7 7 7 7 7 7 ; - * $ * - 5 0 e r P E R W ` ( ) ....' I $ . @ @ %.%.%.%.%.%.%.%.%.",
"%.%.%.%.%.%.%.%.%.%.%.%.%.@ @ o $ B I P k 8 8 7 7 7 7 7 5 * @ + + + + + @ * 7 e k I E R W ( ) _ ....^ c . o @ @ %.%.%.%.%.%.%.%.",
"%.%.%.%.%.%.%.%.%.%.%.%.@ @ o o i L I z 8 8 7 2 7 7 7 5 $ + o o + + + o o + # 5 e z I R W ` ( ) ....[ Y 4 . @ @ %.%.%.%.%.%.%.%.",
"%.%.%.%.%.%.%.%.%.%.%.%.@ @ o $ B I V e 8 7 7 7 8 7 5 $ + o @ @ @ @ @ @ @ o o @ 5 e N E R W ` ) ) ..../ G @ o @ @ %.%.%.%.%.%.%.",
"%.%.%.%.%.%.%.%.%.%.%.@ @ + o 9 J P x 8 8 7 7 8 8 7 * + o @ @ @ @ @ @ @ @ @ + o # 7 k P R W W ( ) ] ..| ~ u . + @ @ %.%.%.%.%.%.",
"%.%.%.%.%.%.%.%.%.%.%.@ @ o @ v I Z r 8 7 7 8 8 8 < + o @ @ @ %.%.%.%.%.@ @ @ o o $ 8 N E R W ` ) ) ] [ / Y $ . @ @ %.%.%.%.%.%.",
"%.%.%.%.%.%.%.%.%.%.%.@ + o 5 J J Z r 8 8 8 8 8 7 # o @ @ @ %.%.%.%.%.%.%.@ @ @ o + ; d P R W W ( ) ] [ } ~ u . + @ %.%.%.%.%.%.",
"%.%.%.%.%.%.%.%.%.%.@ @ o o i J P V e 8 8 8 q 0 * o o @ @ %.%.%.%.%.%.%.%.%.@ @ @ o # 8 N E R W ` ) ] [ | / G @ o @ @ %.%.%.%.%.",
"%.%.%.%.%.%.%.%.%.%.@ @ o $ v P P N q 8 8 q e 7 + o @ @ %.%.%.%.%.%.%.%.%.%.%.@ @ o o - g I R W ` ) ] [ | / T - . @ @ %.%.%.%.%.",
"%.%.%.%.%.%.%.%.%.%.@ @ o * V P R Z r 8 8 e e ; o + @ %.%.%.%.%.%.%.%.%.%.%.%.%.@ @ o # e P R W ` ` ] [ | } T u . + @ %.%.%.%.%.",
"%.%.%.%.%.%.%.%.%.%.@ + o 7 J P R ^ k q e e e # o @ @ %.%.%.%.%.%.%.%.%.%.%.%.%.@ @ o @ 8 V E R W ` ` [ { } ~ b @ o @ @ %.%.%.%.",
"%.%.%.%.%.%.%.%.%.@ @ o o i J R R ^ Z y r d 7 + o @ @ %.%.%.%.%.%.%.%.%.%.%.%.%.@ @ o o ; M I R W ` ` ` { } / L $ o @ @ %.%.%.%.",
"%.%.%.%.%.%.%.%.%.@ @ o @ g P D R ^ / x r d ; o + @ %.%.%.%.%.%.%.%.%.%.%.%.%.%.%.@ @ o * d P R W ` ` ` { } / Y * . @ @ %.%.%.%.",
"%.%.%.%.%.%.%.%.%.@ @ o $ M P D W ~ @.] y d * o @ @ %.%.%.%.%.%.%.%.%.%.%.%.%.%.%.@ @ o @ e P R R W ` ` { } / T 5 . + @ %.%.%.%.",
"%.%.%.%.%.%.%.%.%.@ @ o $ M P F W ~ +. .l r $ o @ @ %.%.%.%.%.%.%.%.%.%.%.%.%.%.%.@ @ o @ e P R R W ` ` { } / T i o o @ %.%.%.%.",
"%.%.%.%.%.%.%.%.%.@ @ o # M P W Q / / / V r $ o @ %.%.%.%.%.%.%.%.%.%.%.%.%.%.%.%.%.@ o @ e P R R W ` ` { } / T i o o @ %.%.%.%.",
"%.%.%.%.%.%.%.%.%.@ @ o # M P W W / / / I q @ o @ @ %.%.%.%.%.%.%.%.%.%.%.%.%.%.%.@ @ o @ 0 J R R W ` ' { } / T i o o @ %.%.%.%.",
"%.%.%.%.%.%.%.%.%.@ @ o $ M R W W / / / T 8 o o @ @ %.%.%.%.%.%.%.%.%.%.%.%.%.%.%.@ @ o o 7 J I R W W ' } / / T i . o @ %.%.%.%.",
"%.%.%.%.%.%.%.%.%.@ @ o $ M R W ` } / / T 0 . o @ @ %.%.%.%.%.%.%.%.%.%.%.%.%.%.%.@ @ o o 7 J I R W W Q } / / T i . o @ %.%.%.%.",
"%.%.%.%.%.%.%.%.%.@ @ o # M R W ` { } / T v + o @ @ %.%.%.%.%.%.%.%.%.%.%.%.%.%.%.@ @ o @ e P R R W W ' / / / T 0 o o @ %.%.%.%.",
"%.%.%.%.%.%.%.%.%.@ @ o # M R W ` ' } / ~ H # o @ %.%.%.%.%.%.%.%.%.%.%.%.%.%.%.%.%.@ o @ s I R R W W Q / / / T 8 o o @ %.%.%.%.",
"%.%.%.%.%.%.%.%.%.@ @ o @ g E W ` ' { } ~ L * o @ @ %.%.%.%.%.%.%.%.%.%.%.%.%.%.%.@ @ o # g I R R W W ^ / / ~ I 1 o + @ %.%.%.%.",
"%.%.%.%.%.%.%.%.%.@ @ o @ g I W ` ] [ } / T - . @ @ %.%.%.%.%.%.%.%.%.%.%.%.%.%.%.@ @ o # z I R R W W ^ / / ~ N & o @ @ %.%.%.%.",
"%.%.%.%.%.%.%.%.%.@ @ o o 0 P W ` ] [ | } T u o o @ %.%.%.%.%.%.%.%.%.%.%.%.%.%.%.@ + o = V I R D W W / / } ~ r # o @ @ %.%.%.%.",
"%.%.%.%.%.%.%.%.%.%.@ O o 7 J W ` ] ] [ } ~ c o o @ @ %.%.%.%.%.%.%.%.%.%.%.%.%.@ @ o + 0 I E D D F Q ~ / +.E q $ o @ %.%.%.%.%.",
"%.%.%.%.%.%.%.%.%.%.@ + o * V R ` ) ] ] | / K $ o @ @ %.%.%.%.%.%.%.%.%.%.%.%.%.@ @ o # M I R D D W Q ~ +.#.x 3 @ o @ @ %.%.%.%.",
"%.%.%.%.%.%.%.%.%.%.@ @ o # z E ` ( ) ..[ } T 4   @ @ %.%.%.%.%.%.%.%.%.%.%.%.@ @ o o 7 L E R D D W ! ~ $.` w ; o + @ %.%.%.%.%.",
"%.%.%.%.%.%.%.%.%.%.@ @ o + s I W ` ) ....| ~ a o o @ @ %.%.%.%.%.%.%.%.%.%.%.@ @ o # M Y R P D R Q ~ } { y e $ o @ @ %.%.%.%.%.",
"%.%.%.%.%.%.%.%.%.%.@ @ + o ; J R ` ( _ ....} Y %   @ @ @ %.%.%.%.%.%.%.%.%.@ @ o o 9 U I P Z R R Q / / l r 7 @ o @ @ %.%.%.%.%.",
"%.%.%.%.%.%.%.%.%.%.%.@ @ o # g E W ( ) ....X./ b o o @ @ %.%.%.%.%.%.%.%.@ @ @   $ H Y E P Z R R / / l y e ; o + @ %.%.%.%.%.%.",
"%.%.%.%.%.%.%.%.%.%.%.@ @ o o 7 P W ` ( _ o.o.[ ~ u   o @ @ @ %.%.%.%.%.@ @ @ o + f Y E R Z P R Q ! k t e 8 $ o @ @ %.%.%.%.%.%.",
"%.%.%.%.%.%.%.%.%.%.%.@ @ @ o & M E W ` ) _ O.X.[ ! 6   o @ @ @ @ @ @ @ @ @ o . i Y ! R P P Z R E k w e 0 ; @ o @ @ %.%.%.%.%.%.",
"%.%.%.%.%.%.%.%.%.%.%.%.@ @ o + 8 P W ` ( ) ..O.X.| ! 6   . + @ @ @ @ @ + .   5 L ! E P P Z P R k q e 0 8 # o @ @ %.%.%.%.%.%.%.",
"%.%.%.%.%.%.%.%.%.%.%.%.@ @ @ o # g I W ` ( ) ..X.X.[ E u @     . . . . . @ 9 L ! E R P Z Z Z d 8 q e 0 ; o o @ @ %.%.%.%.%.%.%.",
"%.%.%.%.%.%.%.%.%.%.%.%.%.@ @ o + ; V E W ` ( ) ..X.X.| ^ C 9 - - - - 4 i G Y ! Q R P P V N r 8 8 0 0 8 # o @ @ %.%.%.%.%.%.%.%.",
"%.%.%.%.%.%.%.%.%.%.%.%.%.@ @ @ o @ 0 J E W ` ` ) ] [ | | } ~ ! Y Y Y Y T ~ ~ Q R R P N k q 8 8 8 0 8 = o o @ @ %.%.%.%.%.%.%.%.",
"%.%.%.%.%.%.%.%.%.%.%.%.%.%.@ @ o o & e P E W ` ` ` ] ] [ { } } / / / / / ^ Q R P P x r 8 8 8 8 8 8 < @ o @ @ %.%.%.%.%.%.%.%.%.",
"%.%.%.%.%.%.%.%.%.%.%.%.%.%.@ @ @ o + * r P E W Q ' ' ' ' ' ' { { ^ ^ ^ ^ W R I P z e 8 8 8 8 8 7 > + o @ @ @ %.%.%.%.%.%.%.%.%.",
"%.%.%.%.%.%.%.%.%.%.%.%.%.%.%.@ @ @ o @ ; r V E Q Q Q Q Q ^ ^ ^ ^ ^ Q Q R R P V k q 0 8 8 7 8 7 > + o @ @ @ %.%.%.%.%.%.%.%.%.%.",
"%.%.%.%.%.%.%.%.%.%.%.%.%.%.%.%.@ @ @ o @ ; 8 z P E E Q Q Q Q Q Q W R E I V z q 8 8 8 7 7 8 7 : + o @ @ @ %.%.%.%.%.%.%.%.%.%.%.",
"%.%.%.%.%.%.%.%.%.%.%.%.%.%.%.%.%.@ @ @ o @ , 7 r z V P I E E E E P P V z r 8 8 8 7 7 7 7 7 : + o @ @ @ %.%.%.%.%.%.%.%.%.%.%.%.",
"%.%.%.%.%.%.%.%.%.%.%.%.%.%.%.%.%.%.@ @ @ o + $ ; 8 q d z z z M z k r q 8 8 8 7 7 7 7 7 ; $ + o @ @ @ %.%.%.%.%.%.%.%.%.%.%.%.%.",
"%.%.%.%.%.%.%.%.%.%.%.%.%.%.%.%.%.%.%.@ @ @ o o @ * ; 7 8 8 8 8 8 8 8 8 7 7 7 7 7 7 2 * # o o @ @ @ %.%.%.%.%.%.%.%.%.%.%.%.%.%.",
"%.%.%.%.%.%.%.%.%.%.%.%.%.%.%.%.%.%.%.%.@ @ @ + o + @ $ - ; 7 7 7 7 7 7 7 7 7 ; ; - $ + o + @ @ @ %.%.%.%.%.%.%.%.%.%.%.%.%.%.%.",
"%.%.%.%.%.%.%.%.%.%.%.%.%.%.%.%.%.%.%.%.%.@ @ @ @ o o o + @ $ * - ; ; ; ; - * # @ @ o o @ @ @ @ %.%.%.%.%.%.%.%.%.%.%.%.%.%.%.%.",
"%.%.%.%.%.%.%.%.%.%.%.%.%.%.%.%.%.%.%.%.%.%.@ @ @ @ @ @ o o o + @ @ @ @ @ @ @ o o o + @ @ @ %.%.%.%.%.%.%.%.%.%.%.%.%.%.%.%.%.%.",
"%.%.%.%.%.%.%.%.%.%.%.%.%.%.%.%.%.%.%.%.%.%.%.%.@ @ @ @ @ @ @ + o o o o o o + @ @ @ @ @ @ %.%.%.%.%.%.%.%.%.%.%.%.%.%.%.%.%.%.%.",
"%.%.%.%.%.%.%.%.%.%.%.%.%.%.%.%.%.%.%.%.%.%.%.%.%.%.%.@ @ @ @ @ @ @ @ @ @ @ @ @ @ @ @ %.%.%.%.%.%.%.%.%.%.%.%.%.%.%.%.%.%.%.%.%.",
"%.%.%.%.%.%.%.%.%.%.%.%.%.%.%.%.%.%.%.%.%.%.%.%.%.%.%.%.%.%.%.@ @ @ @ @ @ @ @ %.%.%.%.%.%.%.%.%.%.%.%.%.%.%.%.%.%.%.%.%.%.%.%.%.",
"%.%.%.%.%.%.%.%.%.%.%.%.%.%.%.%.%.%.%.%.%.%.%.%.%.%.%.%.%.%.%.%.%.%.%.%.%.%.%.%.%.%.%.%.%.%.%.%.%.%.%.%.%.%.%.%.%.%.%.%.%.%.%.%."
};
