/* XPM */
static char *result[] = {
/* columns rows colors chars-per-pixel */
"64 64 104 2 ",
"   c #400000",
".  c #401000",
"X  c #501000",
"o  c #502000",
"O  c #503000",
"+  c #602000",
"@  c #603000",
"#  c #703000",
"$  c #704000",
"%  c #705000",
"&  c #803000",
"*  c #804000",
"=  c #904000",
"-  c #805000",
";  c #905000",
":  c #A04000",
">  c #A05000",
",  c #B05000",
"<  c #A05010",
"1  c #806000",
"2  c #906000",
"3  c #907000",
"4  c #A06000",
"5  c #B06000",
"6  c #A07000",
"7  c #B07000",
"8  c #B07010",
"9  c #C05000",
"0  c #C06000",
"q  c #D06000",
"w  c #C07000",
"e  c #D07000",
"r  c #E07000",
"t  c #F07000",
"y  c #A08000",
"u  c #B08000",
"i  c #A09000",
"p  c #B09000",
"a  c #D08000",
"s  c #C09000",
"d  c #D09000",
"f  c #D09010",
"g  c #E08000",
"h  c #F08000",
"j  c #E09000",
"k  c #F09000",
"l  c #F09010",
"z  c #C0A000",
"x  c #D0A000",
"c  c #C0B000",
"v  c #D0B000",
"b  c #C0B010",
"n  c #D0B010",
"m  c #E0A000",
"M  c #F0A000",
"N  c #F0B000",
"B  c #F0A010",
"V  c #F0B010",
"C  c #F0A020",
"Z  c #F0B020",
"A  c #F0B030",
"S  c #D0C000",
"D  c #D0D000",
"F  c #E0C000",
"G  c #F0C000",
"H  c #F0D000",
"J  c #F0C010",
"K  c #E0D010",
"L  c #F0D010",
"P  c #F0E000",
"I  c #F0F000",
"U  c #E0E010",
"Y  c #F0E010",
"T  c #F0F010",
"R  c #F0C020",
"E  c #F0D020",
"W  c #F0C030",
"Q  c #F0D030",
"!  c #F0E020",
"~  c #F0F020",
"^  c #F0E030",
"/  c #F0F030",
"(  c #F0B040",
")  c #F0B050",
"_  c #F0B060",
"`  c #F0C040",
"'  c #F0D040",
"]  c #F0C050",
"[  c #F0D050",
"{  c #F0E040",
"}  c #F0F040",
"|  c #F0E050",
" . c #F0F050",
".. c #F0C060",
"X. c #F0D060",
"o. c #F0C070",
"O. c #F0D070",
"+. c #F0E060",
"@. c #F0F060",
"#. c #F0F070",
"$. c #F0F080",
"%. c #F0F090",
"&. c #F0F0A0",
"*. c None",
/* pixels */
"*.*.*.*.*.*.*.*.*.*.*.*.*.*.*.*.*.*.*.*.*.*.*.*.*.*.*.*.*.*.*.*.*.*.*.*.*.*.*.*.*.*.*.*.*.*.*.*.*.*.*.*.*.*.*.*.*.*.*.*.*.*.*.*.",
"*.*.*.*.*.*.*.*.*.*.*.*.*.*.*.*.*.*.*.*.*.*.*.*.*.*.@ @ @ @ @ @ @ @ *.*.*.*.*.*.*.*.*.*.*.*.*.*.*.*.*.*.*.*.*.*.*.*.*.*.*.*.*.*.",
"*.*.*.*.*.*.*.*.*.*.*.*.*.*.*.*.*.*.*.*.*.*.*.@ @ @ @ @ @ @ @ @ @ @ @ @ @ *.*.*.*.*.*.*.*.*.*.*.*.*.*.*.*.*.*.*.*.*.*.*.*.*.*.*.",
"*.*.*.*.*.*.*.*.*.*.*.*.*.*.*.*.*.*.*.*.*.@ @ @ @ o o o X X X X o o + @ @ @ @ *.*.*.*.*.*.*.*.*.*.*.*.*.*.*.*.*.*.*.*.*.*.*.*.*.",
"*.*.*.*.*.*.*.*.*.*.*.*.*.*.*.*.*.*.*.*.@ @ @ + o o o $ - - - - $ o X X o @ @ @ @ *.*.*.*.*.*.*.*.*.*.*.*.*.*.*.*.*.*.*.*.*.*.*.",
"*.*.*.*.*.*.*.*.*.*.*.*.*.*.*.*.*.*.*.@ @ @ o o $ 8 f Z E E ! ! K b 6 $ o X + @ @ @ *.*.*.*.*.*.*.*.*.*.*.*.*.*.*.*.*.*.*.*.*.*.",
"*.*.*.*.*.*.*.*.*.*.*.*.*.*.*.*.*.*.@ @ + . O 4 Z ` [ | |  .} } / ~ ~ L p $ X o @ @ @ *.*.*.*.*.*.*.*.*.*.*.*.*.*.*.*.*.*.*.*.*.",
"*.*.*.*.*.*.*.*.*.*.*.*.*.*.*.*.@ @ @ o o $ f W [ X.X.|  .} } } / / / ~ T K 3 o o @ @ @ *.*.*.*.*.*.*.*.*.*.*.*.*.*.*.*.*.*.*.*.",
"*.*.*.*.*.*.*.*.*.*.*.*.*.*.*.@ @ @ o . 2 Z ` X.X.X.[  .} / / / ~ / / / ~ T I z @ X @ @ @ *.*.*.*.*.*.*.*.*.*.*.*.*.*.*.*.*.*.*.",
"*.*.*.*.*.*.*.*.*.*.*.*.*.*.@ @ @ o o 2 Z ] O.X...[ } } / / ~ / / ! ! ^ ^ / ~ T z @ o @ @ @ *.*.*.*.*.*.*.*.*.*.*.*.*.*.*.*.*.*.",
"*.*.*.*.*.*.*.*.*.*.*.*.*.*.@ @ o @ u Z ] o.....[ } } / / / / R B k k k k B E ~ T z o o @ @ *.*.*.*.*.*.*.*.*.*.*.*.*.*.*.*.*.*.",
"*.*.*.*.*.*.*.*.*.*.*.*.*.@ @ o X p E ] o.....] { } / ~ / ! l h k k k k k h h l ~ T 3 . o @ @ *.*.*.*.*.*.*.*.*.*.*.*.*.*.*.*.*.",
"*.*.*.*.*.*.*.*.*.*.*.*.@ @ o X 3 J ] ......] [ } / / / E k k M k g a a a a g h k Y T - X @ @ @ *.*.*.*.*.*.*.*.*.*.*.*.*.*.*.*.",
"*.*.*.*.*.*.*.*.*.*.*.*.@ + o - J ` _ ....] [ } } / / R h M k a e e w w e e e a g h Y D @ o @ @ *.*.*.*.*.*.*.*.*.*.*.*.*.*.*.*.",
"*.*.*.*.*.*.*.*.*.*.*.@ @ o o z E ) ) ....[ { } / / ! k M a 5 ; ; 4 5 7 w 0 w w w r k T 3 . + @ *.*.*.*.*.*.*.*.*.*.*.*.*.*.*.*.",
"*.*.*.*.*.*.*.*.*.*.*.@ + o 1 L ` ) _ ..] [ } / / / B k w # + o + @ - 4 5 5 0 0 w e r N S @ o @ @ *.*.*.*.*.*.*.*.*.*.*.*.*.*.*.",
"*.*.*.*.*.*.*.*.*.*.@ @ o o z E ) ) _ ..] { } / / R k 7 @ o o o o o @ - 4 4 5 0 0 w a t G y X + @ @ *.*.*.*.*.*.*.*.*.*.*.*.*.*.",
"*.*.*.*.*.*.*.*.*.*.@ @ X % J ` ) ) _ ] [ } / / ~ k e @ o + @ @ @ @ o @ - 4 4 5 5 5 w r N U $ o @ @ *.*.*.*.*.*.*.*.*.*.*.*.*.*.",
"*.*.*.*.*.*.*.*.*.@ @ o o p E ` ) _ ] [ { } / / J g * o + @ @ @ @ @ @ o # 2 4 4 5 5 5 g h Y i X + @ *.*.*.*.*.*.*.*.*.*.*.*.*.*.",
"*.*.*.*.*.*.*.*.*.@ @ o $ F Q ( ) ) ] [ } / / ~ k 5 o o @ @ *.*.@ @ @ o + * 4 4 4 5 5 a t N S @ o @ @ *.*.*.*.*.*.*.*.*.*.*.*.*.",
"*.*.*.*.*.*.*.*.*.@ + o 2 L ` ( ) ] ] { } / / L r # o @ @ @ *.*.*.@ @ @ o @ ; 4 4 4 5 w t M Y - X @ @ *.*.*.*.*.*.*.*.*.*.*.*.*.",
"*.*.*.*.*.*.*.*.*.@ o o p E ` ( ) ] [ } } / ~ V , o o @ @ *.*.*.*.*.@ @ o + * 4 4 4 4 5 l / T y X + @ *.*.*.*.*.*.*.*.*.*.*.*.*.",
"*.*.*.*.*.*.*.*.@ @ o @ x E ` ( ) ] ' } / / ~ k * o + @ *.*.*.*.*.*.*.@ @ o # ; 4 4 4 9 A @.T v + o @ *.*.*.*.*.*.*.*.*.*.*.*.*.",
"*.*.*.*.*.*.*.*.@ @ X $ J W ` ( ] ] { } / / Y q + o @ @ *.*.*.*.*.*.*.@ @ o @ ; 4 4 5 9 R $.~ H $ o @ @ *.*.*.*.*.*.*.*.*.*.*.*.",
"*.*.*.*.*.*.*.*.@ + o 2 L W W ( ] ' { } / / J , o o @ @ *.*.*.*.*.*.*.@ @ + o * 4 5 5 , V %./ P - X @ @ *.*.*.*.*.*.*.*.*.*.*.*.",
"*.*.*.*.*.*.*.*.@ o o u L W W ` ] ' } / / ~ B = o + @ *.*.*.*.*.*.*.*.*.@ + o $ 4 5 5 9 E  ./ I 6 o o @ *.*.*.*.*.*.*.*.*.*.*.*.",
"*.*.*.*.*.*.*.*.@ o o u L W W ` ` ' } / / ~ k # o @ @ *.*.*.*.*.*.*.*.*.@ @ o # 4 5 0 B / / / T p o o @ *.*.*.*.*.*.*.*.*.*.*.*.",
"*.*.*.*.*.*.*.*.@ o o u L W W ` ` { / / / T a # o @ @ *.*.*.*.*.*.*.*.*.@ @ o @ 4 5 g E / / / T p o o @ *.*.*.*.*.*.*.*.*.*.*.*.",
"*.*.*.*.*.*.*.@ @ o + s L W W ` ' { / / / Y 0 o o @ @ *.*.*.*.*.*.*.*.*.*.@ o @ ; w M E ^ / / T s o o @ *.*.*.*.*.*.*.*.*.*.*.*.",
"*.*.*.*.*.*.*.@ @ o @ m E R W ` ' } / / / Y , o o @ *.*.*.*.*.*.*.*.*.*.*.@ o o * a J W Q / / ~ v + o @ @ *.*.*.*.*.*.*.*.*.*.*.",
"*.*.*.*.*.*.*.@ @ o # m L R W ` ' } / / / Y 5 o o @ *.*.*.*.*.*.*.*.*.*.*.@ o o = M J A Q / / ~ F $ o @ @ *.*.*.*.*.*.*.*.*.*.*.",
"*.*.*.*.*.*.*.@ @ o # m L R W ` ' } / / / Y 5 o o @ *.*.*.*.*.*.*.*.*.*.*.@ o o ; J R W W { / ~ H * o @ @ *.*.*.*.*.*.*.*.*.*.*.",
"*.*.*.*.*.*.*.@ @ o @ d L R W W ' / / / / Y 5 o o @ *.*.*.*.*.*.*.*.*.*.*.@ o o 4 J R W ` { } ~ H * o @ @ *.*.*.*.*.*.*.*.*.*.*.",
"*.*.*.*.*.*.*.@ @ o @ d J R W W Q / / / / L 5 o o @ *.*.*.*.*.*.*.*.*.*.*.@ o o 7 L W W ` { } ~ F $ o @ @ *.*.*.*.*.*.*.*.*.*.*.",
"*.*.*.*.*.*.*.@ @ o @ 7 G R W W ^ / / / / L 5 o o @ *.*.*.*.*.*.*.*.*.*.*.@ o o u L W ` ` ' } ~ v + o @ @ *.*.*.*.*.*.*.*.*.*.*.",
"*.*.*.*.*.*.*.@ @ o o ; N J Z W ^ / / / / Y w o o @ @ *.*.*.*.*.*.*.*.*.*.@ o @ x E W ( ] ' } ~ s X o @ *.*.*.*.*.*.*.*.*.*.*.*.",
"*.*.*.*.*.*.*.*.@ o o = j J R W ^ / / / / ~ j # o @ @ *.*.*.*.*.*.*.*.*.@ @ o $ G Q ( ) ] { } T u X o @ *.*.*.*.*.*.*.*.*.*.*.*.",
"*.*.*.*.*.*.*.*.@ o o * a N R W ^ / / / / ~ M & o @ @ *.*.*.*.*.*.*.*.*.@ @ X - L Q ( ) ] | } T u X o @ *.*.*.*.*.*.*.*.*.*.*.*.",
"*.*.*.*.*.*.*.*.@ + o * 7 M J Q / / / / / ~ V = o + @ *.*.*.*.*.*.*.*.*.@ o o y Y ` ( ) ] | / T 4 o + @ *.*.*.*.*.*.*.*.*.*.*.*.",
"*.*.*.*.*.*.*.*.@ @ o $ 4 a V E ^ / / / ~ ~ J 5 o o @ @ *.*.*.*.*.*.*.@ @ o o z ! ] ) _ ] | / Y * o @ @ *.*.*.*.*.*.*.*.*.*.*.*.",
"*.*.*.*.*.*.*.*.@ @ o @ 4 0 j R ^ ~ }  ./ ~ Y e @ o @ @ *.*.*.*.*.*.*.@ @ o $ L { ) _ ..] } ~ G # o @ @ *.*.*.*.*.*.*.*.*.*.*.*.",
"*.*.*.*.*.*.*.*.@ @ o @ ; 7 0 k Q ~ } @./ ~ ~ N ; o + @ *.*.*.*.*.*.*.@ + X y ~ [ _ _ ..[ } ~ x + o @ *.*.*.*.*.*.*.*.*.*.*.*.*.",
"*.*.*.*.*.*.*.*.*.@ @ o * 4 5 0 B ~ / $.} ~ ~ Y w o o @ @ *.*.*.*.*.@ @ o @ F ^ ........| / T 4 X + @ *.*.*.*.*.*.*.*.*.*.*.*.*.",
"*.*.*.*.*.*.*.*.*.@ @ o # 4 7 5 0 B ~ $.#.~ / ~ k $ o @ @ *.*.*.*.@ @ + . 6 ~ [ ..o...] } / H & o @ @ *.*.*.*.*.*.*.*.*.*.*.*.*.",
"*.*.*.*.*.*.*.*.*.@ @ o @ ; 5 5 5 9 M @.&./ ~ ~ V 5 o o @ @ *.*.@ @ @ . $ L { ........| } ~ x + o @ @ *.*.*.*.*.*.*.*.*.*.*.*.*.",
"*.*.*.*.*.*.*.*.*.@ @ + o $ 4 5 5 0 q V @. .~ / ! N $ . @ @ @ @ @ @ X + v / X...X...[ } / T 4 X + @ *.*.*.*.*.*.*.*.*.*.*.*.*.*.",
"*.*.*.*.*.*.*.*.*.*.@ @ o @ ; 4 5 5 0 q k R ^ ^ ~ T s @ X @ @ @ @ X + c / +.X.X.X.[ } } ~ G & o @ @ *.*.*.*.*.*.*.*.*.*.*.*.*.*.",
"*.*.*.*.*.*.*.*.*.*.@ @ + o * 4 4 5 5 w e h l C / ~ Y z @   X X   @ n / | X.+.+.| } } / T w + o @ @ *.*.*.*.*.*.*.*.*.*.*.*.*.*.",
"*.*.*.*.*.*.*.*.*.*.*.@ @ o # ; 4 4 5 5 w g h h R / ~ T v - - - 2 n /  . . . . . .} / ~ G & o + @ *.*.*.*.*.*.*.*.*.*.*.*.*.*.*.",
"*.*.*.*.*.*.*.*.*.*.*.@ @ o + * 4 4 4 5 5 w h k k Z / ~ T T Y Y ~ / }  . . . .} } / / Y 0 + o @ @ *.*.*.*.*.*.*.*.*.*.*.*.*.*.*.",
"*.*.*.*.*.*.*.*.*.*.*.@ @ @ o @ ; 4 4 4 5 7 e g h h C / ~ ~ ~ ~ / } } } } } } } / / ~ h & o @ @ @ *.*.*.*.*.*.*.*.*.*.*.*.*.*.*.",
"*.*.*.*.*.*.*.*.*.*.*.*.@ @ @ o # ; 4 4 5 5 5 w a k h E / / / / / / / / / / / / / ~ M : o o @ @ *.*.*.*.*.*.*.*.*.*.*.*.*.*.*.*.",
"*.*.*.*.*.*.*.*.*.*.*.*.*.@ @ o o $ ; 4 4 5 5 5 w g k h B ^ / ~ ~ ~ / / / / ~ / ! k 9 + o @ @ @ *.*.*.*.*.*.*.*.*.*.*.*.*.*.*.*.",
"*.*.*.*.*.*.*.*.*.*.*.*.*.@ @ @ o + $ ; 4 4 5 5 7 w a h h l ^ / / / / / / / / E k 0 # o @ @ @ *.*.*.*.*.*.*.*.*.*.*.*.*.*.*.*.*.",
"*.*.*.*.*.*.*.*.*.*.*.*.*.*.@ @ @ o + $ ; 4 5 5 5 w w e g k k B Z ^ ! E ! R k h w # o + @ @ *.*.*.*.*.*.*.*.*.*.*.*.*.*.*.*.*.*.",
"*.*.*.*.*.*.*.*.*.*.*.*.*.*.*.@ @ @ o + # - 4 5 5 5 0 w e g g h h k k k k h j w # o o @ @ *.*.*.*.*.*.*.*.*.*.*.*.*.*.*.*.*.*.*.",
"*.*.*.*.*.*.*.*.*.*.*.*.*.*.*.*.@ @ @ o o @ * ; 4 5 0 w w w a a g h k k g w < @ o + @ @ *.*.*.*.*.*.*.*.*.*.*.*.*.*.*.*.*.*.*.*.",
"*.*.*.*.*.*.*.*.*.*.*.*.*.*.*.*.*.@ @ @ @ o + # - ; 5 5 0 w w w e e w 5 ; # o o + @ @ *.*.*.*.*.*.*.*.*.*.*.*.*.*.*.*.*.*.*.*.*.",
"*.*.*.*.*.*.*.*.*.*.*.*.*.*.*.*.*.*.@ @ @ @ o o @ # * ; ; ; > > > ; * # + o o @ @ @ *.*.*.*.*.*.*.*.*.*.*.*.*.*.*.*.*.*.*.*.*.*.",
"*.*.*.*.*.*.*.*.*.*.*.*.*.*.*.*.*.*.*.*.@ @ @ @ o o o @ @ @ @ @ @ + o o o @ @ @ @ *.*.*.*.*.*.*.*.*.*.*.*.*.*.*.*.*.*.*.*.*.*.*.",
"*.*.*.*.*.*.*.*.*.*.*.*.*.*.*.*.*.*.*.*.*.@ @ @ @ @ + o o o o o o o + + @ @ @ @ *.*.*.*.*.*.*.*.*.*.*.*.*.*.*.*.*.*.*.*.*.*.*.*.",
"*.*.*.*.*.*.*.*.*.*.*.*.*.*.*.*.*.*.*.*.*.*.*.@ @ @ @ @ @ @ @ @ @ @ @ @ @ @ *.*.*.*.*.*.*.*.*.*.*.*.*.*.*.*.*.*.*.*.*.*.*.*.*.*.",
"*.*.*.*.*.*.*.*.*.*.*.*.*.*.*.*.*.*.*.*.*.*.*.*.*.*.@ @ @ @ @ @ @ @ *.*.*.*.*.*.*.*.*.*.*.*.*.*.*.*.*.*.*.*.*.*.*.*.*.*.*.*.*.*.",
"*.*.*.*.*.*.*.*.*.*.*.*.*.*.*.*.*.*.*.*.*.*.*.*.*.*.*.*.*.*.*.*.*.*.*.*.*.*.*.*.*.*.*.*.*.*.*.*.*.*.*.*.*.*.*.*.*.*.*.*.*.*.*.*."
};
