/* XPM */
static char *result[] = {
/* columns rows colors chars-per-pixel */
"64 64 114 2 ",
"   c #401000",
".  c #501000",
"X  c #502000",
"o  c #503000",
"O  c #602000",
"+  c #603000",
"@  c #703000",
"#  c #704000",
"$  c #705000",
"%  c #803000",
"&  c #804000",
"*  c #904000",
"=  c #805000",
"-  c #905000",
";  c #804010",
":  c #905010",
">  c #A04000",
",  c #B04000",
"<  c #A05000",
"1  c #B05000",
"2  c #806000",
"3  c #906000",
"4  c #907000",
"5  c #A06000",
"6  c #B06000",
"7  c #A07000",
"8  c #B07000",
"9  c #A06010",
"0  c #B07010",
"q  c #C05000",
"w  c #D05000",
"e  c #C06000",
"r  c #D06000",
"t  c #C07000",
"y  c #D07000",
"u  c #C07010",
"i  c #E06000",
"p  c #E07000",
"a  c #A08000",
"s  c #B08000",
"d  c #B09000",
"f  c #B08010",
"g  c #C08000",
"h  c #D08000",
"j  c #C09000",
"k  c #D09000",
"l  c #C08010",
"z  c #C09010",
"x  c #E08000",
"c  c #F08000",
"v  c #E09000",
"b  c #F09000",
"n  c #E08010",
"m  c #E09010",
"M  c #F09010",
"N  c #C0A000",
"B  c #D0A000",
"V  c #C0B000",
"C  c #D0B000",
"Z  c #C0A010",
"A  c #D0A010",
"S  c #E0A000",
"D  c #F0A000",
"F  c #E0B000",
"G  c #F0B000",
"H  c #E0A010",
"J  c #F0A010",
"K  c #F0B010",
"L  c #E08020",
"P  c #E09020",
"I  c #E0A020",
"U  c #F0A020",
"Y  c #F0B020",
"T  c #E0A030",
"R  c #F0A030",
"E  c #F0B030",
"W  c #D0C000",
"Q  c #D0C010",
"!  c #E0C000",
"~  c #F0C000",
"^  c #E0D000",
"/  c #F0D000",
"(  c #E0C010",
")  c #F0C010",
"_  c #F0D010",
"`  c #E0E000",
"'  c #F0E000",
"]  c #F0E010",
"[  c #F0F010",
"{  c #F0C020",
"}  c #F0D020",
"|  c #F0C030",
" . c #F0D030",
".. c #F0E020",
"X. c #F0F020",
"o. c #F0E030",
"O. c #F0F030",
"+. c #F0B040",
"@. c #F0B050",
"#. c #F0B060",
"$. c #F0C040",
"%. c #F0D040",
"&. c #F0C050",
"*. c #F0D050",
"=. c #F0E040",
"-. c #F0F040",
";. c #F0E050",
":. c #F0F050",
">. c #F0C060",
",. c #F0D060",
"<. c #F0C070",
"1. c #F0E060",
"2. c #F0F060",
"3. c None",
/* pixels */
"3.3.3.3.3.3.3.3.3.3.3.3.3.3.3.3.3.3.3.3.3.3.3.3.3.3.3.3.3.3.3.3.3.3.3.3.3.3.3.3.3.3.3.3.3.3.3.3.3.3.3.3.3.3.3.3.3.3.3.3.3.3.3.3.",
"3.3.3.3.3.3.3.3.3.3.3.3.3.3.3.3.3.3.3.3.3.3.3.3.3.3.3.+ + + + + + + 3.3.3.3.3.3.3.3.3.3.3.3.3.3.3.3.3.3.3.3.3.3.3.3.3.3.3.3.3.3.",
"3.3.3.3.3.3.3.3.3.3.3.3.3.3.3.3.3.3.3.3.3.3.3.+ + + + + + + + + + + + + + + 3.3.3.3.3.3.3.3.3.3.3.3.3.3.3.3.3.3.3.3.3.3.3.3.3.3.",
"3.3.3.3.3.3.3.3.3.3.3.3.3.3.3.3.3.3.3.+ + + + + + X X X X . . . . X X O + + + + + 3.3.3.3.3.3.3.3.3.3.3.3.3.3.3.3.3.3.3.3.3.3.3.",
"3.3.3.3.3.3.3.3.3.3.3.3.3.3.3.3.3.3.+ + + O X X   X X + = = = = = + X X   X X + + + + 3.3.3.3.3.3.3.3.3.3.3.3.3.3.3.3.3.3.3.3.3.",
"3.3.3.3.3.3.3.3.3.3.3.3.3.3.3.3.+ + + + X X X + = 0 l I E E E E Y I l 5 = + X . X + + + + 3.3.3.3.3.3.3.3.3.3.3.3.3.3.3.3.3.3.3.",
"3.3.3.3.3.3.3.3.3.3.3.3.3.3.3.+ + + X X + 3 l I E $.&.&.&.>.&.&.&.%.%. .{ H f = X . X O + + + 3.3.3.3.3.3.3.3.3.3.3.3.3.3.3.3.3.",
"3.3.3.3.3.3.3.3.3.3.3.3.3.3.+ + O X X - H | $.&.>.>.>.>.*.*.*.;.;.;.;.;.=.=.o._ z $ X X X + + + 3.3.3.3.3.3.3.3.3.3.3.3.3.3.3.3.",
"3.3.3.3.3.3.3.3.3.3.3.3.+ + + X X # l E &.>.>.>.>.*.*.;.=.-.-.-.-.-.-.-.-.-.-.-.X._ Z 2   X + + + 3.3.3.3.3.3.3.3.3.3.3.3.3.3.3.",
"3.3.3.3.3.3.3.3.3.3.3.+ + + X   3 U $.>.#.#.>.*.;.=.-.O.O.O.O.O.O.O.O.O.X.O.O.-.-.-.X.] a X . O + + 3.3.3.3.3.3.3.3.3.3.3.3.3.3.",
"3.3.3.3.3.3.3.3.3.3.+ + + X   3 Y @.>.#.>.&.*.=.-.O.O.O.-.-.-.-.-.:.;.:.2.:.-.X.X.-.-.O.[ N +   X + + 3.3.3.3.3.3.3.3.3.3.3.3.3.",
"3.3.3.3.3.3.3.3.3.+ + + X o 7 Y +.#.#.&.*.=.-.O.O.O.-.o.| P x x x y y n T +.*.2.:.X.O.-.O.X.( = . X + + 3.3.3.3.3.3.3.3.3.3.3.3.",
"3.3.3.3.3.3.3.3.+ + + X + j Y +.#.#.&.*.-.O.O.O.-.} m p r e 6 6 6 6 6 1 1 1 q L *.2.-.X.O.-.X.] 2 . O + + 3.3.3.3.3.3.3.3.3.3.3.",
"3.3.3.3.3.3.3.3.+ + X o j { @.#.#.&.*.-.O.O.O.o.M r e t t t t e 6 6 6 6 6 6 5 1 q L *.2.O.O.-.X._ #   + + + 3.3.3.3.3.3.3.3.3.3.",
"3.3.3.3.3.3.3.+ + O X 7 { @.@.@.&.*.-.O.O.O.{ p r t t t 6 < - - - - - 5 5 6 6 5 5 < w | :.O.O.O.X.C + . + + + 3.3.3.3.3.3.3.3.3.",
"3.3.3.3.3.3.+ + +   # K +.@.@.&.%.-.O.O.O.K i t t 8 < & @ O O + + O + @ # - 5 5 5 5 < q Y :.O.O.O.[ N + X + + 3.3.3.3.3.3.3.3.3.",
"3.3.3.3.3.3.+ + X + k | +.@.&.*.-.O.O.O.K i h t 9 # O X X X X X X X X X X + # - 5 5 5 5 , K -.O.O.O.[ d X X + + 3.3.3.3.3.3.3.3.",
"3.3.3.3.3.+ + X X s { +.@.@.&.=.O.O.O.) i y t : O X X O + + + + + + O + + X X + = 5 6 5 < q ..-.O.-.X.' # . + + 3.3.3.3.3.3.3.3.",
"3.3.3.3.3.+ + . 2 ) | +.@.&.%.-.O.O.} i h 8 & X X + + + + + + + + + + + + + O X O & 5 5 5 < x O.O.O.O.[ d X X + + 3.3.3.3.3.3.3.",
"3.3.3.3.+ + X + B { +.+.&.%.-.O.O.O.c y u @ X X + + + + 3.3.3.3.3.3.3.+ + + + + X O = 5 5 5 1 K O.O.O.X.' # . + + 3.3.3.3.3.3.3.",
"3.3.3.3.+ + . = ) | +.&.&.=.O.O.O.) p t & X X + + + 3.3.3.3.3.3.3.3.3.3.3.+ + + + X + = 5 5 < e ..O.O.O.[ d X X + + 3.3.3.3.3.3.",
"3.3.3.+ + O X s { $.+.&.%.-.O.O.X.c y : X X + + + 3.3.3.3.3.3.3.3.3.3.3.3.3.3.+ + + X @ - 5 5 e } O.O.O.X.' # . + + 3.3.3.3.3.3.",
"3.3.3.+ + X + B { $.$.$.%.O.O.O.K p 0 + X + + 3.3.3.3.3.3.3.3.3.3.3.3.3.3.3.3.3.+ + X X & 5 6 6 K O.O.O.O.[ d X X + + 3.3.3.3.3.",
"3.3.3.+ O X 3 ) | $.$.$.=.O.O.X.b y & X O + + 3.3.3.3.3.3.3.3.3.3.3.3.3.3.3.3.3.3.+ + X + - 6 5 h  .O.O.O.X.^ # X + + 3.3.3.3.3.",
"3.3.+ + X X j { | +.$.%.-.O.O.X.x 5 X X + + 3.3.3.3.3.3.3.3.3.3.3.3.3.3.3.3.3.3.3.+ + X O & 5 6 t { o.O.O.O.[ = . + + 3.3.3.3.3.",
"3.3.+ + X # F { | $.$.=.O.O.O.) p & X O + 3.3.3.3.3.3.3.3.3.3.3.3.3.3.3.3.3.3.3.3.+ + + X @ 5 6 h {  .O.O.O.[ a . O + 3.3.3.3.3.",
"3.3.3.+ X & K { | $.%.=.O.O.O.K r @ X + + 3.3.3.3.3.3.3.3.3.3.3.3.3.3.3.3.3.3.3.3.3.+ + X + - 6 h { | o.O.O.X.C + X + + 3.3.3.3.",
"3.3.+ + X & K { | $.%.-.O.O.X.D 1 X X + + 3.3.3.3.3.3.3.3.3.3.3.3.3.3.3.3.3.3.3.3.3.+ + O X = 6 x ) |  .O.O.X.^ # X + 3.3.3.3.3.",
"3.3.+ + X = K { | $.%.-.O.O.X.b & X O + 3.3.3.3.3.3.3.3.3.3.3.3.3.3.3.3.3.3.3.3.3.3.3.+ O X & 6 v ) | | O.O.X.' & X + + 3.3.3.3.",
"3.3.+ O X 5 ) { | $.%.O.O.O.X.v @ X + + 3.3.3.3.3.3.3.3.3.3.3.3.3.3.3.3.3.3.3.3.3.3.3.+ O X # t G { | | O.O.O.] & . + + 3.3.3.3.",
"3.3.+ X X 8 ) { | $.=.O.O.O.X.v @ X + + 3.3.3.3.3.3.3.3.3.3.3.3.3.3.3.3.3.3.3.3.3.3.3.+ + X @ t ) { | | =.-.O.[ 3 X O + 3.3.3.3.",
"3.3.+ X X 8 ) { | $.=.O.O.O.X.v @ X + 3.3.3.3.3.3.3.3.3.3.3.3.3.3.3.3.3.3.3.3.3.3.3.3.+ + X + g _ { | | =.-.O.[ 8 X X + 3.3.3.3.",
"3.3.+ X X 5 ) { | | =.O.O.O.X.D @ X + 3.3.3.3.3.3.3.3.3.3.3.3.3.3.3.3.3.3.3.3.3.3.3.3.+ + X O k _ { E $.=.-.O.[ 5 X O + 3.3.3.3.",
"3.3.+ X X 5 ) { | | =.O.O.O.X.G @ X + + 3.3.3.3.3.3.3.3.3.3.3.3.3.3.3.3.3.3.3.3.3.3.3.+ O X & G } { | $.=.-.O.] & X + + 3.3.3.3.",
"3.3.+ O X & D { | | o.O.O.O.X._ % X + + 3.3.3.3.3.3.3.3.3.3.3.3.3.3.3.3.3.3.3.3.3.3.3.+ O X 5 _ | | +.$.=.-.X./ % X + + 3.3.3.3.",
"3.3.+ + X @ k ) { | o.O.O.O.X.[ 5 X X + 3.3.3.3.3.3.3.3.3.3.3.3.3.3.3.3.3.3.3.3.3.3.3.+ X . 8 ] | | +.$.=.-.X.~ % X + 3.3.3.3.3.",
"3.3.+ + X O t ) { | o.O.O.O.O.[ j X X + + 3.3.3.3.3.3.3.3.3.3.3.3.3.3.3.3.3.3.3.3.3.+ + X O B ..| | +.$.=.O.X.F @ X + + 3.3.3.3.",
"3.3.3.+ X + 6 G { | o.O.O.O.O.X.! @ X + + 3.3.3.3.3.3.3.3.3.3.3.3.3.3.3.3.3.3.3.3.3.+ + . & /  .$.+.+.$.-.O.[ h O X + + 3.3.3.3.",
"3.3.+ + X + < D { |  .O.O.O.O.X.[ 3 . O + 3.3.3.3.3.3.3.3.3.3.3.3.3.3.3.3.3.3.3.3.3.+ O . a [  .$.+.&.%.-.O.[ 6 X X + 3.3.3.3.3.",
"3.3.+ + O O & t K |  .O.O.O.O.O.[ N X X + + 3.3.3.3.3.3.3.3.3.3.3.3.3.3.3.3.3.3.3.+ + X O W ..$.+.+.&.=.-.X.) % X O + 3.3.3.3.3.",
"3.3.3.+ + X @ < v {  .o.O.O.O.O.X.^ # . + + 3.3.3.3.3.3.3.3.3.3.3.3.3.3.3.3.3.3.3.+ +   4 ] %.$.+.@.&.=.O.X.k O X + + 3.3.3.3.3.",
"3.3.3.+ + X O - 6 D  .o.O.O.O.O.X.[ 7 . O + + 3.3.3.3.3.3.3.3.3.3.3.3.3.3.3.3.3.+ + X + C ..&.@.@.&.%.-.O.[ 1 X X + + 3.3.3.3.3.",
"3.3.3.+ + + X # 5 y Y o.O.O.O.O.O.X.` #   + + + 3.3.3.3.3.3.3.3.3.3.3.3.3.3.3.+ + +   2 ] %.@.@.@.&.=.O.X.G % X O + 3.3.3.3.3.3.",
"3.3.3.3.+ + X + 3 6 b o.O.O.O.O.O.O.[ C + . + + + + 3.3.3.3.3.3.3.3.3.3.3.3.+ + + . + B  .&.@.@.&.%.-.O.[ e O X + + 3.3.3.3.3.3.",
"3.3.3.3.+ + X O & 5 e K O.O.O.O.O.O.O.[ N +   O + + + 3.3.3.3.3.3.3.3.3.+ + + + . + B } &.#.#.@.&.-.O.X.S % X O + + 3.3.3.3.3.3.",
"3.3.3.3.3.+ + X @ 3 5 e K O.O.O.O.O.O.O.[ V +   X + + + + + + + + + + + + + X   + B  .&.#.#.#.&.=.O.O.] q + X + + 3.3.3.3.3.3.3.",
"3.3.3.3.3.+ + X O & 5 6 q { O.O.O.O.O.O.O.[ ! 4 X   X X + + + + + + + X X . X $ A  .>.<.#.#.&.=.O.O.X.x % X O + + 3.3.3.3.3.3.3.",
"3.3.3.3.3.+ + + X O - 5 < r ..O.O.O.O.O.O.O.X.[ V = + .   . . . . .   X X = l { %.,.<.#.#.&.*.-.O.X.D > + X + + 3.3.3.3.3.3.3.3.",
"3.3.3.3.3.3.+ + + X @ - 5 1 y X.O.O.O.O.O.-.-.O.X.[ Q d 2 = = = = = - f A { %.,.>.<.#.>.&.;.-.O.O.K 1 @ X + + 3.3.3.3.3.3.3.3.3.",
"3.3.3.3.3.3.3.+ + X O & 3 6 1 y } -.O.O.O.O.-.-.-.-.O.X.X.........}  .%.;.,.,.>.>.#.&.*.=.O.O.O.) 1 @ X X + + 3.3.3.3.3.3.3.3.3.",
"3.3.3.3.3.3.3.+ + + X O ; 3 5 < q ) -.-.X.O.O.-.-.-.-.-.-.-.:.:.:.;.;.,.,.>.>.>.&.*.*.-.O.O.O.) e & X X + + 3.3.3.3.3.3.3.3.3.3.",
"3.3.3.3.3.3.3.3.+ + + X O # - 5 < q K -.-.O.X.O.-.-.-.-.-.:.;.;.;.*.,.*.*.&.&.*.;.-.-.O.O.O.J e * + X + + 3.3.3.3.3.3.3.3.3.3.3.",
"3.3.3.3.3.3.3.3.3.+ + + X O # - 5 5 1 v o.:.:.X.X.O.O.-.-.-.=.=.=.;.*.*.;.;.;.-.O.O.O.-...x 1 * O X + + + 3.3.3.3.3.3.3.3.3.3.3.",
"3.3.3.3.3.3.3.3.3.3.+ + + X O # - 5 5 1 q m ;.2.-.O.X.X.O.-.-.-.-.-.-.-.-.O.O.O.O.-.O.K r < & O X + + + 3.3.3.3.3.3.3.3.3.3.3.3.",
"3.3.3.3.3.3.3.3.3.3.3.+ + + X O @ - < 5 5 1 e U 1.2.2.:.O.X.X.X.X.X.X.O.O.O.-.-.=.J y 1 - @ X X + + + 3.3.3.3.3.3.3.3.3.3.3.3.3.",
"3.3.3.3.3.3.3.3.3.3.3.3.+ + + X X + & - 5 5 5 1 r n E *.2.2.:.:.:.:.:.-.-.%.| P e 1 - & O X O + + + 3.3.3.3.3.3.3.3.3.3.3.3.3.3.",
"3.3.3.3.3.3.3.3.3.3.3.3.3.+ + + + X X + & - 5 5 5 < 1 q y m P P P U R m y e 1 < * & + X X + + + + 3.3.3.3.3.3.3.3.3.3.3.3.3.3.3.",
"3.3.3.3.3.3.3.3.3.3.3.3.3.3.+ + + + O X O @ & & - 5 5 5 5 < 1 1 1 1 < < < - & @ O X X O + + + 3.3.3.3.3.3.3.3.3.3.3.3.3.3.3.3.3.",
"3.3.3.3.3.3.3.3.3.3.3.3.3.3.3.3.+ + + + o X X + + # & - - - - - - & & & @ + + X X O + + + + 3.3.3.3.3.3.3.3.3.3.3.3.3.3.3.3.3.3.",
"3.3.3.3.3.3.3.3.3.3.3.3.3.3.3.3.3.+ + + + + + X X X O + + + + + + + X X X X X + + + + + 3.3.3.3.3.3.3.3.3.3.3.3.3.3.3.3.3.3.3.3.",
"3.3.3.3.3.3.3.3.3.3.3.3.3.3.3.3.3.3.3.+ + + + + + + O X X X X X X X + O O + + + + + 3.3.3.3.3.3.3.3.3.3.3.3.3.3.3.3.3.3.3.3.3.3.",
"3.3.3.3.3.3.3.3.3.3.3.3.3.3.3.3.3.3.3.3.3.3.+ + + + + + + + + + + + + + + + + 3.3.3.3.3.3.3.3.3.3.3.3.3.3.3.3.3.3.3.3.3.3.3.3.3.",
"3.3.3.3.3.3.3.3.3.3.3.3.3.3.3.3.3.3.3.3.3.3.3.3.3.3.+ + + + + + + + 3.3.3.3.3.3.3.3.3.3.3.3.3.3.3.3.3.3.3.3.3.3.3.3.3.3.3.3.3.3.",
"3.3.3.3.3.3.3.3.3.3.3.3.3.3.3.3.3.3.3.3.3.3.3.3.3.3.3.3.3.3.3.3.3.3.3.3.3.3.3.3.3.3.3.3.3.3.3.3.3.3.3.3.3.3.3.3.3.3.3.3.3.3.3.3."
};
