/* XPM */
static char *result[] = {
/* columns rows colors chars-per-pixel */
"64 64 120 2 ",
"   c #400000",
".  c #401000",
"X  c #501000",
"o  c #502000",
"O  c #503000",
"+  c #602000",
"@  c #702000",
"#  c #603000",
"$  c #703000",
"%  c #704000",
"&  c #705000",
"*  c #704010",
"=  c #802000",
"-  c #803000",
";  c #804000",
":  c #904000",
">  c #805000",
",  c #905000",
"<  c #804010",
"1  c #905010",
"2  c #A04000",
"3  c #A05000",
"4  c #B05000",
"5  c #806000",
"6  c #906000",
"7  c #907000",
"8  c #A06000",
"9  c #B06000",
"0  c #A07000",
"q  c #B07000",
"w  c #C05000",
"e  c #D05000",
"r  c #C06000",
"t  c #D06000",
"y  c #C07000",
"u  c #D07000",
"i  c #E06000",
"p  c #E07000",
"a  c #F07000",
"s  c #A08000",
"d  c #B08000",
"f  c #B09000",
"g  c #B08010",
"h  c #B0A000",
"j  c #C08000",
"k  c #D08000",
"l  c #C09000",
"z  c #D09000",
"x  c #C08010",
"c  c #C09010",
"v  c #D09010",
"b  c #E08000",
"n  c #F08000",
"m  c #E09000",
"M  c #F09000",
"N  c #F09010",
"B  c #C0A000",
"V  c #D0A000",
"C  c #C0B000",
"Z  c #D0B000",
"A  c #C0A010",
"S  c #D0A010",
"D  c #C0B010",
"F  c #D0B010",
"G  c #E0A000",
"H  c #F0A000",
"J  c #E0B000",
"K  c #F0B000",
"L  c #E0A010",
"P  c #F0A010",
"I  c #E0B010",
"U  c #F0B010",
"Y  c #F09020",
"T  c #E0A020",
"R  c #F0A020",
"E  c #E0B020",
"W  c #F0B020",
"Q  c #F0B030",
"!  c #D0C000",
"~  c #E0C000",
"^  c #F0C000",
"/  c #E0D000",
"(  c #F0D000",
")  c #E0C010",
"_  c #F0C010",
"`  c #E0D010",
"'  c #F0D010",
"]  c #F0E000",
"[  c #F0E010",
"{  c #F0F010",
"}  c #F0C020",
"|  c #F0D020",
" . c #F0C030",
".. c #F0D030",
"X. c #F0E020",
"o. c #F0F020",
"O. c #F0E030",
"+. c #F0F030",
"@. c #F0B040",
"#. c #F0B050",
"$. c #F0B060",
"%. c #F0C040",
"&. c #F0D040",
"*. c #F0C050",
"=. c #F0D050",
"-. c #F0E040",
";. c #F0F040",
":. c #F0E050",
">. c #F0F050",
",. c #F0C060",
"<. c #F0D060",
"1. c #F0C070",
"2. c #F0D070",
"3. c #F0E060",
"4. c #F0F060",
"5. c #F0F070",
"6. c #F0F080",
"7. c #F0F090",
"8. c #F0F0A0",
"9. c None",
/* pixels */
"9.9.9.9.9.9.9.9.9.9.9.9.9.9.9.9.9.9.9.9.9.9.9.9.9.9.9.9.9.9.9.9.9.9.9.9.9.9.9.9.9.9.9.9.9.9.9.9.9.9.9.9.9.9.9.9.9.9.9.9.9.9.9.9.",
"9.9.9.9.9.9.9.9.9.9.9.9.9.9.9.9.9.9.9.9.9.9.9.9.9.9.# # # # # # # 9.9.9.9.9.9.9.9.9.9.9.9.9.9.9.9.9.9.9.9.9.9.9.9.9.9.9.9.9.9.9.",
"9.9.9.9.9.9.9.9.9.9.9.9.9.9.9.9.9.9.9.9.9.9.# # # # # # # # # # # # # # # 9.9.9.9.9.9.9.9.9.9.9.9.9.9.9.9.9.9.9.9.9.9.9.9.9.9.9.",
"9.9.9.9.9.9.9.9.9.9.9.9.9.9.9.9.9.9.9.9.# # # # + o o X X X X X o o + # # # # # # 9.9.9.9.9.9.9.9.9.9.9.9.9.9.9.9.9.9.9.9.9.9.9.",
"9.9.9.9.9.9.9.9.9.9.9.9.9.9.9.9.9.9.# # # # o o o o # > > > > > # o o . o o + # # # 9.9.9.9.9.9.9.9.9.9.9.9.9.9.9.9.9.9.9.9.9.9.",
"9.9.9.9.9.9.9.9.9.9.9.9.9.9.9.9.# # # # o o o % 8 x T  . . . .} E c 0 > # o X o # # # # 9.9.9.9.9.9.9.9.9.9.9.9.9.9.9.9.9.9.9.9.",
"9.9.9.9.9.9.9.9.9.9.9.9.9.9.9.# # # + o o ; x W %.=.=.*.=.=.:.-.-.O.X.X.) A 7 + . o # # # 9.9.9.9.9.9.9.9.9.9.9.9.9.9.9.9.9.9.9.",
"9.9.9.9.9.9.9.9.9.9.9.9.9.9.# # # o . # g W %.<.,.,.<.=.:.:.;.;.;.;.;.+.+.o.o.D % o X + # # 9.9.9.9.9.9.9.9.9.9.9.9.9.9.9.9.9.9.",
"9.9.9.9.9.9.9.9.9.9.9.9.9.# # # o O 6 T %.,.,.,.,.=.:.;.;.;.+.+.+.+.+.+.+.;.+.o.[ f % X o # # 9.9.9.9.9.9.9.9.9.9.9.9.9.9.9.9.9.",
"9.9.9.9.9.9.9.9.9.9.9.9.# # # X # c Q *.,.,.,.*.=.;.;.+.+.+.+.+.+.+.+.+.+.+.+.+.+.{ ` 5 . o # # 9.9.9.9.9.9.9.9.9.9.9.9.9.9.9.9.",
"9.9.9.9.9.9.9.9.9.9.9.# # # X # v  .,.1.,.*.=.:.;.+.+.+.+.+.X._ _ ' _ _ X.o.+.+.+.+.o.[ 6 . o # # 9.9.9.9.9.9.9.9.9.9.9.9.9.9.9.",
"9.9.9.9.9.9.9.9.9.9.# # # o # z  .,.1.,.*.=.;.;.+.+.+.o._ H n p t t t t p m P | +.+.+.o.] 6 . o # # 9.9.9.9.9.9.9.9.9.9.9.9.9.9.",
"9.9.9.9.9.9.9.9.9.9.# # o O l  .,.$.$.*.=.;.+.+.+.+._ n p u u u y y y y y r r i P +.+.+.o.] 5 X + # # 9.9.9.9.9.9.9.9.9.9.9.9.9.",
"9.9.9.9.9.9.9.9.9.# # o . 0 W #.$.$.*.=.;.+.+.+.X.H a b k u u y y y y r r r 9 q t a } +.+.o./ % . # # # 9.9.9.9.9.9.9.9.9.9.9.9.",
"9.9.9.9.9.9.9.9.# # + . 5 U @.$.$.*.=.;.;.+.+.| n p k k q 8 , , , , 8 9 9 9 9 9 9 9 i } ;.o.{ C # o # # 9.9.9.9.9.9.9.9.9.9.9.9.",
"9.9.9.9.9.9.9.9.# # o # L  .$.$.*.=.-.;.+.+.X.n b k 9 , $ + + + + + # % , 8 9 9 9 9 r p -.;.o.{ f X o # # 9.9.9.9.9.9.9.9.9.9.9.",
"9.9.9.9.9.9.9.# # o o d } #.#.#.*.-.;.+.+.o.n b j , # o o o o o o o o o # ; 8 9 9 9 9 r b 4.+.o.] > X # # # 9.9.9.9.9.9.9.9.9.9.",
"9.9.9.9.9.9.# # # . & U %.#.#.*.=.;.+.+.o.M b q ; o o o # # # # # # # # o + * 6 8 9 8 8 w %.6.o.{ Z # o # # 9.9.9.9.9.9.9.9.9.9.",
"9.9.9.9.9.9.# # o O l } #.#.*.*.-.;.+.+._ a y $ o o # # # # # # # # # # # o o % 6 8 8 8 4 b 7.4.{ { 7 . + # # 9.9.9.9.9.9.9.9.9.",
"9.9.9.9.9.9.# # X 6 _ %.#.#.*.&.;.+.+.o.M y ; o o # # # 9.9.9.9.9.9.# # # # o + < 8 8 8 8 w  .7.+.{ ! # o # # 9.9.9.9.9.9.9.9.9.",
"9.9.9.9.9.# # o # V } %.#.*.=.;.+.+.+._ p , o o # # # 9.9.9.9.9.9.9.9.9.# # # o + > 8 8 8 3 k 4.>.o.{ s o o # # 9.9.9.9.9.9.9.9.",
"9.9.9.9.9.# # X > _  .@.#.*.&.;.+.+.o.M y $ o # # 9.9.9.9.9.9.9.9.9.9.9.9.# # # o $ 6 8 8 3 u +.>.+.o./ % o # # 9.9.9.9.9.9.9.9.",
"9.9.9.9.9.# o o s _ %.@.*.%.-.;.+.+._ p > o + # # 9.9.9.9.9.9.9.9.9.9.9.9.9.# # o + > 8 8 3 u o.;.;.o.{ > X # # 9.9.9.9.9.9.9.9.",
"9.9.9.9.# # o o l } %.@.*.&.;.+.+.+.P r + o # # 9.9.9.9.9.9.9.9.9.9.9.9.9.9.# # + o $ 8 9 8 r | +.;.+.{ s o o # 9.9.9.9.9.9.9.9.",
"9.9.9.9.# # o % U } %.%.%.&.;.+.+.o.M , o + # 9.9.9.9.9.9.9.9.9.9.9.9.9.9.9.9.# # o # , 9 9 4 U +.+.+.{ B o o # # 9.9.9.9.9.9.9.",
"9.9.9.9.# + o 0 _  .%.%.%.-.+.+.+.X.p ; o # # 9.9.9.9.9.9.9.9.9.9.9.9.9.9.9.9.# # + o ; 8 9 r U +.+.+.o./ % o # 9.9.9.9.9.9.9.9.",
"9.9.9.9.# o o d '  .%.%.&.-.+.+.+._ t $ o # # 9.9.9.9.9.9.9.9.9.9.9.9.9.9.9.9.9.# # o $ 8 9 u } O.+.+.o.] ; X # # 9.9.9.9.9.9.9.",
"9.9.9.9.# o o d _  .%.%.&.;.+.+.+.U 4 o o # # 9.9.9.9.9.9.9.9.9.9.9.9.9.9.9.9.9.# # o # 8 9 b } ..+.+.o.{ > X # # 9.9.9.9.9.9.9.",
"9.9.9.9.# o o j _  .%.%.&.;.+.+.o.U 3 o o # 9.9.9.9.9.9.9.9.9.9.9.9.9.9.9.9.9.9.# # o # 6 y H }  .O.+.+.{ s o o # 9.9.9.9.9.9.9.",
"9.9.9.# # o # z _  .%.%.-.;.+.+.o.P 3 o + # 9.9.9.9.9.9.9.9.9.9.9.9.9.9.9.9.9.9.# # + o > k ^ }  .O.+.+.{ f o o # 9.9.9.9.9.9.9.",
"9.9.9.# # o % G _  . .%.-.;.+.+.o.P - o # # 9.9.9.9.9.9.9.9.9.9.9.9.9.9.9.9.9.9.9.# o o ; G _ W  .&.+.+.{ f o o # 9.9.9.9.9.9.9.",
"9.9.9.# # o $ G _  . .%.-.+.+.+.o.G $ o # # 9.9.9.9.9.9.9.9.9.9.9.9.9.9.9.9.9.9.9.# o o : K ' }  .&.+.+.{ f X o # 9.9.9.9.9.9.9.",
"9.9.9.# # o $ G _  . . .O.+.+.+.o.H $ o # # 9.9.9.9.9.9.9.9.9.9.9.9.9.9.9.9.9.9.9.# o o , _ }  .%.&.;.+.{ f X o # 9.9.9.9.9.9.9.",
"9.9.9.# # o # j _ }  . .O.+.+.+.o.U - o # # 9.9.9.9.9.9.9.9.9.9.9.9.9.9.9.9.9.9.9.# o X 0 ' }  .%.&.;.+.{ d X o # 9.9.9.9.9.9.9.",
"9.9.9.# # o o 8 ^ }  . .O.+.+.+.o._ 3 o o # 9.9.9.9.9.9.9.9.9.9.9.9.9.9.9.9.9.9.9.# o o l X. . .%.&.;.+.{ q o o # 9.9.9.9.9.9.9.",
"9.9.9.9.# o o , K }  . .O.+.+.+.o.[ 9 o o # 9.9.9.9.9.9.9.9.9.9.9.9.9.9.9.9.9.9.# # o # J X. .%.%.&.;.+.{ 8 o + # 9.9.9.9.9.9.9.",
"9.9.9.9.# o o : m _  . .O.+.+.+.+.{ y o o # # 9.9.9.9.9.9.9.9.9.9.9.9.9.9.9.9.9.# # o ; ' ..Q @.%.&.;.+.[ ; o # # 9.9.9.9.9.9.9.",
"9.9.9.9.# + o ; k _ }  .O.+.+.+.+.o.J $ o # # 9.9.9.9.9.9.9.9.9.9.9.9.9.9.9.9.9.# + X 0 [ ..@.#.*.&.;.o.^ - o # # 9.9.9.9.9.9.9.",
"9.9.9.9.# + o % r K }  .O.+.+.+.+.o.] ; . # # 9.9.9.9.9.9.9.9.9.9.9.9.9.9.9.9.# # o X B o.%.@.#.*.-.+.o.G @ o # 9.9.9.9.9.9.9.9.",
"9.9.9.9.# # o # , b _ ..O.+.+.+.+.o.{ d X o # # 9.9.9.9.9.9.9.9.9.9.9.9.9.9.9.# # X % ( O.@.#.#.*.;.+.{ y X o # # 9.9.9.9.9.9.9.",
"9.9.9.9.# # o o ; 9 H | O.+.+.+.+.+.{ ~ # o # # 9.9.9.9.9.9.9.9.9.9.9.9.9.9.# # o X f o.%.#.#.#.=.;.+.[ 3 o + # 9.9.9.9.9.9.9.9.",
"9.9.9.9.9.# + o ; 8 y U O.o.+.+.+.+.o.{ 0 X + # # 9.9.9.9.9.9.9.9.9.9.9.9.9.# # X % [ O.#.#.$.*.-.;.o.^ = o # # 9.9.9.9.9.9.9.9.",
"9.9.9.9.9.# # o # 8 9 u } +.+.+.+.+.+.{ ~ % o # # 9.9.9.9.9.9.9.9.9.9.9.9.# # o X h o.*.#.$.$.*.;.+.{ k + o # # 9.9.9.9.9.9.9.9.",
"9.9.9.9.9.# # o + > 9 9 b O.+.;.+.o.+.o.{ >   # # # 9.9.9.9.9.9.9.9.9.9.# # + X 6 [ &.,.,.$.*.=.;.+.' 2 o + # # 9.9.9.9.9.9.9.9.",
"9.9.9.9.9.9.# # o $ 8 9 r U +.;.;.o.+.o.{ Z # X # # # # 9.9.9.9.9.9.9.# # + . % ' O.,.,.,.,.=.;.+.o.m @ o # # 9.9.9.9.9.9.9.9.9.",
"9.9.9.9.9.9.# # o + ; 8 9 r U +.>.+.o.+.o.{ B # . + # # # # # # # # # # + . # F O.,.1.,.$.*.:.;.+.' 2 o o # # 9.9.9.9.9.9.9.9.9.",
"9.9.9.9.9.9.# # # o $ , 9 9 w U >.4.o.o.+.o.{ C % X X o + # # # # # + o . > ) ..<.2.,.,.*.=.;.+.{ u + o # # 9.9.9.9.9.9.9.9.9.9.",
"9.9.9.9.9.9.9.# # o + ; 8 9 9 w _ 5.4.{ +.+.o.{ ] s % o X . X X X . X o > I -.<.2.,.,.*.=.;.+.o.K : o o # # 9.9.9.9.9.9.9.9.9.9.",
"9.9.9.9.9.9.9.# # # o + , 8 9 9 t O.8.>.{ +.+.o.o.{ ` B 7 > > > > > 0 S | -.3.<.,.,.*.:.;.+.+.' w # o # # 9.9.9.9.9.9.9.9.9.9.9.",
"9.9.9.9.9.9.9.9.# # # o $ , 8 9 9 u  .8.>.{ +.+.+.+.o.o.o.{ X.X.X.X.+.;.:.3.<.<.=.=.:.;.+.+.[ t $ o # # # 9.9.9.9.9.9.9.9.9.9.9.",
"9.9.9.9.9.9.9.9.9.# # O + ; , 8 9 4 e R 7.>.o.+.+.+.+.+.+.+.;.;.;.;.>.>.:.:.=.:.:.;.;.+.+.[ p : o o # # 9.9.9.9.9.9.9.9.9.9.9.9.",
"9.9.9.9.9.9.9.9.9.# # # o + % , 8 9 9 w N 5.>.o.o.+.+.+.+.+.;.;.;.;.>.>.;.;.;.;.;.+.+.+.' u : + o # # 9.9.9.9.9.9.9.9.9.9.9.9.9.",
"9.9.9.9.9.9.9.9.9.9.# # # o + % , 8 8 9 w n =.4.;.o.o.+.+.+.+.+.;.;.;.;.;.;.;.+.+.+.o._ u : + o # # # 9.9.9.9.9.9.9.9.9.9.9.9.9.",
"9.9.9.9.9.9.9.9.9.9.9.# # # o + % , 8 8 9 r t Y ..+.+.+.+.+.+.+.+.+.+.+.+.+.+.+.+.' M t , + o # # # 9.9.9.9.9.9.9.9.9.9.9.9.9.9.",
"9.9.9.9.9.9.9.9.9.9.9.9.# # # o + % , 8 8 9 9 r t n | +.+.+.+.+.+.+.+.+.+.+.o.| H u 9 1 + o # # # 9.9.9.9.9.9.9.9.9.9.9.9.9.9.9.",
"9.9.9.9.9.9.9.9.9.9.9.9.9.# # # o + $ ; 3 8 9 9 9 r i b N U | X.X.X.X.X.' H n p r , $ o o # # # 9.9.9.9.9.9.9.9.9.9.9.9.9.9.9.9.",
"9.9.9.9.9.9.9.9.9.9.9.9.9.9.# # # O o + % , 8 8 9 9 9 9 r t p p p p p p t r 9 3 ; + o o # # # 9.9.9.9.9.9.9.9.9.9.9.9.9.9.9.9.9.",
"9.9.9.9.9.9.9.9.9.9.9.9.9.9.9.# # # # o o # % > , 8 9 9 9 9 q 9 r 9 9 8 , : ; # o o # # # # 9.9.9.9.9.9.9.9.9.9.9.9.9.9.9.9.9.9.",
"9.9.9.9.9.9.9.9.9.9.9.9.9.9.9.9.# # # # + o o + # % ; , , , , , , : ; $ # o o o + # # # # 9.9.9.9.9.9.9.9.9.9.9.9.9.9.9.9.9.9.9.",
"9.9.9.9.9.9.9.9.9.9.9.9.9.9.9.9.9.9.# # # # # o o o + # # # # # # + o o o o + # # # # 9.9.9.9.9.9.9.9.9.9.9.9.9.9.9.9.9.9.9.9.9.",
"9.9.9.9.9.9.9.9.9.9.9.9.9.9.9.9.9.9.9.# # # # # # # + o o o o o o o + + # # # # # 9.9.9.9.9.9.9.9.9.9.9.9.9.9.9.9.9.9.9.9.9.9.9.",
"9.9.9.9.9.9.9.9.9.9.9.9.9.9.9.9.9.9.9.9.9.9.# # # # # # # # # # # # # # # # 9.9.9.9.9.9.9.9.9.9.9.9.9.9.9.9.9.9.9.9.9.9.9.9.9.9.",
"9.9.9.9.9.9.9.9.9.9.9.9.9.9.9.9.9.9.9.9.9.9.9.9.9.9.# # # # # # # # 9.9.9.9.9.9.9.9.9.9.9.9.9.9.9.9.9.9.9.9.9.9.9.9.9.9.9.9.9.9.",
"9.9.9.9.9.9.9.9.9.9.9.9.9.9.9.9.9.9.9.9.9.9.9.9.9.9.9.9.9.9.9.9.9.9.9.9.9.9.9.9.9.9.9.9.9.9.9.9.9.9.9.9.9.9.9.9.9.9.9.9.9.9.9.9."
};
