/* XPM */
static char *result[] = {
/* columns rows colors chars-per-pixel */
"64 64 103 2 ",
"   c #401000",
".  c #501000",
"X  c #502000",
"o  c #503000",
"O  c #602000",
"+  c #603000",
"@  c #703000",
"#  c #703010",
"$  c #704000",
"%  c #705000",
"&  c #704010",
"*  c #803000",
"=  c #804000",
"-  c #904000",
";  c #805000",
":  c #905000",
">  c #805010",
",  c #905010",
"<  c #A05000",
"1  c #B05000",
"2  c #A05010",
"3  c #806000",
"4  c #906000",
"5  c #907000",
"6  c #A06000",
"7  c #B06000",
"8  c #A07000",
"9  c #B07000",
"0  c #B07010",
"q  c #C06000",
"w  c #D06000",
"e  c #C07000",
"r  c #D07000",
"t  c #E06000",
"y  c #E07000",
"u  c #A08000",
"i  c #B08000",
"p  c #B09000",
"a  c #B0A000",
"s  c #C08000",
"d  c #D08000",
"f  c #C09000",
"g  c #D09000",
"h  c #C08010",
"j  c #E08000",
"k  c #F08000",
"l  c #E09000",
"z  c #F09000",
"x  c #F09010",
"c  c #C0A000",
"v  c #D0A000",
"b  c #D0B000",
"n  c #D0A010",
"m  c #D0B010",
"M  c #E0A000",
"N  c #F0A000",
"B  c #E0B000",
"V  c #F0B000",
"C  c #F0A010",
"Z  c #E0B010",
"A  c #F0B010",
"S  c #E0A020",
"D  c #F0B020",
"F  c #F0B030",
"G  c #D0C000",
"H  c #E0C000",
"J  c #F0C000",
"K  c #E0D000",
"L  c #F0D000",
"P  c #E0C010",
"I  c #F0C010",
"U  c #E0D010",
"Y  c #F0D010",
"T  c #F0E000",
"R  c #F0E010",
"E  c #F0F010",
"W  c #F0C020",
"Q  c #F0D020",
"!  c #F0C030",
"~  c #F0D030",
"^  c #F0E020",
"/  c #F0F020",
"(  c #F0E030",
")  c #F0F030",
"_  c #F0B040",
"`  c #F0B050",
"'  c #F0B060",
"]  c #F0C040",
"[  c #F0D040",
"{  c #F0C050",
"}  c #F0D050",
"|  c #F0E040",
" . c #F0F040",
".. c #F0E050",
"X. c #F0F050",
"o. c #F0C060",
"O. c #F0D060",
"+. c #F0C070",
"@. c #F0E060",
"#. c #F0F060",
"$. c #F0F080",
"%. c #F0F090",
"&. c None",
/* pixels */
"&.&.&.&.&.&.&.&.&.&.&.&.&.&.&.&.&.&.&.&.&.&.&.&.&.&.&.&.&.&.&.&.&.&.&.&.&.&.&.&.&.&.&.&.&.&.&.&.&.&.&.&.&.&.&.&.&.&.&.&.&.&.&.&.",
"&.&.&.&.&.&.&.&.&.&.&.&.&.&.&.&.&.&.&.&.&.&.&.&.&.&.&.&.&.&.&.+ + + + + + + &.&.&.&.&.&.&.&.&.&.&.&.&.&.&.&.&.&.&.&.&.&.&.&.&.&.",
"&.&.&.&.&.&.&.&.&.&.&.&.&.&.&.&.&.&.&.&.&.&.&.&.&.&.&.&.+ + + + + + + + + + + + + &.&.&.&.&.&.&.&.&.&.&.&.&.&.&.&.&.&.&.&.&.&.&.",
"&.&.&.&.&.&.&.&.&.&.&.&.&.&.&.&.&.&.&.&.&.&.&.&.&.+ + + + + X X X . . X X X X + + + + &.&.&.&.&.&.&.&.&.&.&.&.&.&.&.&.&.&.&.&.&.",
"&.&.&.&.&.&.&.&.&.&.&.&.&.&.&.&.&.&.&.&.&.&.&.&.+ + + O X X X X $ ; ; ; ; + X X X + + + &.&.&.&.&.&.&.&.&.&.&.&.&.&.&.&.&.&.&.&.",
"&.&.&.&.&.&.&.&.&.&.&.&.&.&.&.&.&.&.&.&.&.&.&.+ + + X . X $ i n Z W W W W S 0 = X X O + + + &.&.&.&.&.&.&.&.&.&.&.&.&.&.&.&.&.&.",
"&.&.&.&.&.&.&.&.&.&.&.&.&.&.&.&.&.&.&.&.&.+ + + + X X 4 c Y ^ ^ ( | [ [ [ [ ] D h $ X X + + + &.&.&.&.&.&.&.&.&.&.&.&.&.&.&.&.&.",
"&.&.&.&.&.&.&.&.&.&.&.&.&.&.&.&.&.&.&.&.+ + + X   + c R E / ) ( ( ( [ [ { { o.} [ D 4 X X O + + &.&.&.&.&.&.&.&.&.&.&.&.&.&.&.&.",
"&.&.&.&.&.&.&.&.&.&.&.&.&.&.&.&.&.&.&.&.+ + X X $ c R / ( ( ( ( ( ( ( ~ [ ] { o.o.} F h +   X + + &.&.&.&.&.&.&.&.&.&.&.&.&.&.&.",
"&.&.&.&.&.&.&.&.&.&.&.&.&.&.&.&.&.&.&.+ + X X 5 J E R I V V V I Q ^ ~ ( ~ ] ] ` ' +.O.] Z 3 . X + + &.&.&.&.&.&.&.&.&.&.&.&.&.&.",
"&.&.&.&.&.&.&.&.&.&.&.&.&.&.&.&.&.&.+ + X . 4 L R V l r r r r r l N Y ( ~ ~ ] ] ` ' +.+.[ Y 3   O + + &.&.&.&.&.&.&.&.&.&.&.&.&.",
"&.&.&.&.&.&.&.&.&.&.&.&.&.&.&.&.&.+ + O . ; H L l r e 9 9 9 9 e e r j Y ( ~ ~ ] { ` o.+.+.[ P +   + + + &.&.&.&.&.&.&.&.&.&.&.&.",
"&.&.&.&.&.&.&.&.&.&.&.&.&.&.&.&.&.+ + X + b L j q 9 9 7 7 7 6 7 9 e e j J Q ~ ~ ] _ ` ' o.o.( m + X + + &.&.&.&.&.&.&.&.&.&.&.&.",
"&.&.&.&.&.&.&.&.&.&.&.&.&.&.&.&.+ + X X i J j e 9 7 6 6 6 6 6 6 6 6 9 e r I ( ~ ] ] _ ` o.o.} / p X X + + &.&.&.&.&.&.&.&.&.&.&.",
"&.&.&.&.&.&.&.&.&.&.&.&.&.&.&.&.+ + X $ B l e 7 7 6 6 6 6 6 4 ; $ $ = 6 e j Y ~ ! ] _ ` ' o.o.| R % . + + &.&.&.&.&.&.&.&.&.&.&.",
"&.&.&.&.&.&.&.&.&.&.&.&.&.&.&.+ + X X i V r 9 7 6 6 6 6 6 4 ; + O X O + : e N ^ ~ ! ] _ ` o.o.O.) a X X + + &.&.&.&.&.&.&.&.&.&.",
"&.&.&.&.&.&.&.&.&.&.&.&.&.&.&.+ + X $ v d e 7 6 6 6 6 6 4 ; + O X O X X O 4 r V ~ ! ! _ ` ' o.o.| R % . + + &.&.&.&.&.&.&.&.&.&.",
"&.&.&.&.&.&.&.&.&.&.&.&.&.&.&.+ + X : g e 9 6 6 6 6 6 6 ; @ X X + + + + X + 6 l Q ~ ! ! _ ` o.o.} / p X X + + &.&.&.&.&.&.&.&.&.",
"&.&.&.&.&.&.&.&.&.&.&.&.&.&.+ + X + s d e 7 6 6 6 6 6 6 @ X X + + + + + + X & e J ~ ! ! ] ` ` o.}  .R $ . + + &.&.&.&.&.&.&.&.&.",
"&.&.&.&.&.&.&.&.&.&.&.&.&.&.+ + X $ g d 7 6 6 6 7 7 7 , O X + + + &.&.+ + X X : l Q ! ! ! _ ` { { ../ p . O + &.&.&.&.&.&.&.&.&.",
"&.&.&.&.&.&.&.&.&.&.&.&.&.&.+ + X : d r 7 6 6 6 7 7 6 @ X + + &.&.&.&.+ + + X @ e J ~ ! ! _ ` { } ..) G + X + + &.&.&.&.&.&.&.&.",
"&.&.&.&.&.&.&.&.&.&.&.&.&.+ + X + 9 l r 7 7 6 7 q 9 : X X + + &.&.&.&.&.+ + X X : M Q ! ! ] ` { } }  .E ; . + + &.&.&.&.&.&.&.&.",
"&.&.&.&.&.&.&.&.&.&.&.&.&.+ + X @ M N e 7 7 7 7 e 7 @ X + + &.&.&.&.&.&.&.+ O X @ g Q ! ! ] ` { } }  .E u . O + &.&.&.&.&.&.&.&.",
"&.&.&.&.&.&.&.&.&.&.&.&.&.+ O X ; N N d 7 7 7 q e 6 + X + + &.&.&.&.&.&.&.+ + X + e Y ! ! ! _ { } }  ./ b + X + + &.&.&.&.&.&.&.",
"&.&.&.&.&.&.&.&.&.&.&.&.&.+ X X 4 N J N q 7 e e e : X O + &.&.&.&.&.&.&.&.+ + X X < J Q ! ! ] { { [  .) T $ . + + &.&.&.&.&.&.&.",
"&.&.&.&.&.&.&.&.&.&.&.&.&.+ X X 6 V I A j w e e e = X + + &.&.&.&.&.&.&.&.&.+ O X = M Q W ! ] ] { |  .) R ; . + + &.&.&.&.&.&.&.",
"&.&.&.&.&.&.&.&.&.&.&.&.+ + X O s J A W ( N t d 9 @ X + + &.&.&.&.&.&.&.&.&.+ + X @ g Y W ! ] ] ] |  .) E 5 . O + &.&.&.&.&.&.&.",
"&.&.&.&.&.&.&.&.&.&.&.&.+ + X @ g J D ~ ) X.x r 6 O X + + &.&.&.&.&.&.&.&.&.+ + X O s Y W ! ] ] [ |  .) E p X X + &.&.&.&.&.&.&.",
"&.&.&.&.&.&.&.&.&.&.&.&.+ + X @ M I D ~ / $.} y 6 X X + &.&.&.&.&.&.&.&.&.&.+ + X O s Y W W ! ] [ |  .) E p X X + &.&.&.&.&.&.&.",
"&.&.&.&.&.&.&.&.&.&.&.&.+ + X @ M I D ~ )  .) z < X X + &.&.&.&.&.&.&.&.&.&.&.+ X + s Y W W ! ] [ |  .) E p X X + &.&.&.&.&.&.&.",
"&.&.&.&.&.&.&.&.&.&.&.&.+ + X @ M I F ~ ) ) ) Y 1 X X + &.&.&.&.&.&.&.&.&.&.+ + X + 9 Y W W ! ] [ | ) ) E f . X + &.&.&.&.&.&.&.",
"&.&.&.&.&.&.&.&.&.&.&.&.+ + X @ M I ! [ ) ) ) E 7 X X + &.&.&.&.&.&.&.&.&.&.+ + X X 6 J Q W ! ! [  .) ) E c O X + + &.&.&.&.&.&.",
"&.&.&.&.&.&.&.&.&.&.&.&.+ + X @ M W ! ]  .) ) E 9 X X + &.&.&.&.&.&.&.&.&.&.+ + X O 6 J W W ! ! [ ) ) ) E g O X + + &.&.&.&.&.&.",
"&.&.&.&.&.&.&.&.&.&.&.&.+ + X @ M W ! ] |  .) E i X X + &.&.&.&.&.&.&.&.&.&.+ + X + s Y W W ! ! ~ ) ) ) E e . X + &.&.&.&.&.&.&.",
"&.&.&.&.&.&.&.&.&.&.&.&.+ + X @ M W ! ] [  .) E p X X + &.&.&.&.&.&.&.&.&.&.&.+ X + s Y W W ! ! ( ) ) ) E 7 X X + &.&.&.&.&.&.&.",
"&.&.&.&.&.&.&.&.&.&.&.&.+ + X @ M Q ! ] } |  .E p X X + &.&.&.&.&.&.&.&.&.&.+ + X @ g Y W W ! ! ( ) ) ) Y 1 X X + &.&.&.&.&.&.&.",
"&.&.&.&.&.&.&.&.&.&.&.&.+ + X + v Q ! ] { }  ./ c X X + + &.&.&.&.&.&.&.&.&.+ + X @ g Y W W ! ! ( ) ) ) A < o X + &.&.&.&.&.&.&.",
"&.&.&.&.&.&.&.&.&.&.&.&.+ + X X s Y ! _ { { ..) K $ X + &.&.&.&.&.&.&.&.&.&.+ O X = l Y W D F ! ) )  .) j = X O + &.&.&.&.&.&.&.",
"&.&.&.&.&.&.&.&.&.&.&.&.&.+ X . 6 I ! _ ` { }  .R ; . + + &.&.&.&.&.&.&.&.&.+ X X : V Y I D D ~ / ) #.^ w @ X + + &.&.&.&.&.&.&.",
"&.&.&.&.&.&.&.&.&.&.&.&.&.+ O X : I ! _ ` o.{  .E 3 . + + &.&.&.&.&.&.&.&.+ + X O 9 J I A D ! ( / #.%.N q $ X + + &.&.&.&.&.&.&.",
"&.&.&.&.&.&.&.&.&.&.&.&.&.+ O X = A ~ ] ` ' o.../ p . O + &.&.&.&.&.&.&.&.+ + X @ g Y I A W ! ( / %.} y 7 + X + + &.&.&.&.&.&.&.",
"&.&.&.&.&.&.&.&.&.&.&.&.&.+ + X O v Q ! _ ' o.O. .U + X + + &.&.&.&.&.&.+ + X X : V Y A A W ~ ^  . .k r 6 X X + &.&.&.&.&.&.&.&.",
"&.&.&.&.&.&.&.&.&.&.&.&.&.+ + X X 9 Y ! _ ' o.o.../ 5   + + &.&.&.&.&.&.+ + X @ e J I A I W ~ ) ) z y e = X O + &.&.&.&.&.&.&.&.",
"&.&.&.&.&.&.&.&.&.&.&.&.&.&.+ + X = I ~ ] ` o.+.o. .P + . + + &.&.&.&.+ + O X = M L I V A W W C k y r e $ X + + &.&.&.&.&.&.&.&.",
"&.&.&.&.&.&.&.&.&.&.&.&.&.&.+ + X O v ^ ] _ ' +.o.@./ u   O + + &.&.&.+ + X + s J Y V N A A j w r d e 6 + X + + &.&.&.&.&.&.&.&.",
"&.&.&.&.&.&.&.&.&.&.&.&.&.&.+ + X X 9 Y ~ ] ` o.O.o...R %   + + + + + + X o 9 V R I N N N j q e e e 9 = X + + &.&.&.&.&.&.&.&.&.",
"&.&.&.&.&.&.&.&.&.&.&.&.&.&.&.+ + X @ B ( ] { { O.O.O. .m +   O + + + X   4 B L Y N z N j e q e e e 6 + X + + &.&.&.&.&.&.&.&.&.",
"&.&.&.&.&.&.&.&.&.&.&.&.&.&.&.+ + X X 9 R ~ ] { { } O.O.( m +     .     4 B J Y V j j d q 7 7 q e e : X O + &.&.&.&.&.&.&.&.&.&.",
"&.&.&.&.&.&.&.&.&.&.&.&.&.&.&.+ + O X * V / ~ ] ] } ......( P 8 ; ; % 8 J Y R J j r e e 7 7 7 7 e 7 @ X + + &.&.&.&.&.&.&.&.&.&.",
"&.&.&.&.&.&.&.&.&.&.&.&.&.&.&.&.+ + X O 7 Y ( ~ [ [ [ |  . .) / R R R R Y R Y N r e 9 7 7 7 7 e 7 - X X + + &.&.&.&.&.&.&.&.&.&.",
"&.&.&.&.&.&.&.&.&.&.&.&.&.&.&.&.+ + O X @ d ^ ( ( ( | | |  . .) ) / ^ ^ ^ Y N r e 9 7 7 7 7 7 9 2 + X + + &.&.&.&.&.&.&.&.&.&.&.",
"&.&.&.&.&.&.&.&.&.&.&.&.&.&.&.&.&.+ + X X - l ^ ( ( ( ( ( ) ) ) ) ( ^ ^ Y z r e 9 7 7 6 6 7 7 6 @ X + + + &.&.&.&.&.&.&.&.&.&.&.",
"&.&.&.&.&.&.&.&.&.&.&.&.&.&.&.&.&.+ + + X + < l Y ( ( ( ) ) ) ( ^ ^ ^ I z r e 9 7 7 6 6 7 7 6 @ X X + + &.&.&.&.&.&.&.&.&.&.&.&.",
"&.&.&.&.&.&.&.&.&.&.&.&.&.&.&.&.&.&.+ + + X @ 6 j V Q ^ ( ^ ^ ^ ^ Y V j e e 9 7 6 6 6 7 7 6 = X X + + &.&.&.&.&.&.&.&.&.&.&.&.&.",
"&.&.&.&.&.&.&.&.&.&.&.&.&.&.&.&.&.&.&.+ + X X # 6 e l V I I I V N l r e 9 7 6 6 6 6 6 6 < = + X + + &.&.&.&.&.&.&.&.&.&.&.&.&.&.",
"&.&.&.&.&.&.&.&.&.&.&.&.&.&.&.&.&.&.&.+ + + O X @ : 7 e r d d r e e e 9 7 6 6 6 6 6 6 , @ X X + + + &.&.&.&.&.&.&.&.&.&.&.&.&.&.",
"&.&.&.&.&.&.&.&.&.&.&.&.&.&.&.&.&.&.&.&.+ + + + X + > 6 9 9 e e 9 7 7 7 6 6 7 6 6 : = + X X + + + &.&.&.&.&.&.&.&.&.&.&.&.&.&.&.",
"&.&.&.&.&.&.&.&.&.&.&.&.&.&.&.&.&.&.&.&.&.+ + + + X O @ = : 6 6 6 6 6 6 6 6 6 : ; @ O X + + + + &.&.&.&.&.&.&.&.&.&.&.&.&.&.&.&.",
"&.&.&.&.&.&.&.&.&.&.&.&.&.&.&.&.&.&.&.&.&.&.+ + + + X X O + @ = ; : : : : ; $ @ + X X + + + &.&.&.&.&.&.&.&.&.&.&.&.&.&.&.&.&.&.",
"&.&.&.&.&.&.&.&.&.&.&.&.&.&.&.&.&.&.&.&.&.&.&.&.+ + + + X X X O + + + + + + O X X + + + + &.&.&.&.&.&.&.&.&.&.&.&.&.&.&.&.&.&.&.",
"&.&.&.&.&.&.&.&.&.&.&.&.&.&.&.&.&.&.&.&.&.&.&.&.&.+ + + + + + O X X X X X X O + + + + + &.&.&.&.&.&.&.&.&.&.&.&.&.&.&.&.&.&.&.&.",
"&.&.&.&.&.&.&.&.&.&.&.&.&.&.&.&.&.&.&.&.&.&.&.&.&.&.&.+ + + + + + + + + + + + + + + &.&.&.&.&.&.&.&.&.&.&.&.&.&.&.&.&.&.&.&.&.&.",
"&.&.&.&.&.&.&.&.&.&.&.&.&.&.&.&.&.&.&.&.&.&.&.&.&.&.&.&.&.&.&.+ + + + + + + + &.&.&.&.&.&.&.&.&.&.&.&.&.&.&.&.&.&.&.&.&.&.&.&.&.",
"&.&.&.&.&.&.&.&.&.&.&.&.&.&.&.&.&.&.&.&.&.&.&.&.&.&.&.&.&.&.&.&.&.&.&.&.&.&.&.&.&.&.&.&.&.&.&.&.&.&.&.&.&.&.&.&.&.&.&.&.&.&.&.&."
};
