/* XPM */
static char *result[] = {
/* columns rows colors chars-per-pixel */
"64 64 78 1 ",
"  c #501000",
". c #502000",
"X c #503000",
"o c #602000",
"O c #603000",
"+ c #703000",
"@ c #704000",
"# c #705000",
"$ c #803000",
"% c #804000",
"& c #805000",
"* c #905000",
"= c #A05000",
"- c #906000",
"; c #A06000",
": c #B06000",
"> c #A07000",
", c #B07000",
"< c #A06010",
"1 c #C06000",
"2 c #D06000",
"3 c #C07000",
"4 c #D07000",
"5 c #E07000",
"6 c #A08000",
"7 c #B09000",
"8 c #B0A000",
"9 c #C08000",
"0 c #D08000",
"q c #E08000",
"w c #F08000",
"e c #E09000",
"r c #F09010",
"t c #C0A000",
"y c #C0A010",
"u c #E0A000",
"i c #F0A000",
"p c #E0B000",
"a c #F0B000",
"s c #F0B010",
"d c #F0B020",
"f c #F0B030",
"g c #D0C010",
"h c #F0C000",
"j c #E0D000",
"k c #F0D000",
"l c #E0C010",
"z c #F0C010",
"x c #F0D010",
"c c #F0E000",
"v c #F0E010",
"b c #F0F010",
"n c #F0C020",
"m c #F0C030",
"M c #F0D030",
"N c #F0E020",
"B c #F0F020",
"V c #F0E030",
"C c #F0F030",
"Z c #F0B040",
"A c #F0B050",
"S c #F0B060",
"D c #F0C040",
"F c #F0D040",
"G c #F0C050",
"H c #F0D050",
"J c #F0E040",
"K c #F0F040",
"L c #F0E050",
"P c #F0F050",
"I c #F0C060",
"U c #F0D060",
"Y c #F0C070",
"T c #F0E060",
"R c #F0F060",
"E c #F0F080",
"W c #F0F0A0",
"Q c None",
/* pixels */
"QQQQQQQQQQQQQQQQQQQQQQQQQQQQQQQQQQQQQQQQQQQQQQQQQQQQQQQQQQQQQQQQ",
"QQQQQQQQQQQQQQQQQQQQQQQQQQQQQOOOOOOQQQQQQQQQQQQQQQQQQQQQQQQQQQQQ",
"QQQQQQQQQQQQQQQQQQQQQQQQQQQOOOOooOOOOQQQQQQQQQQQQQQQQQQQQQQQQQQQ",
"QQQQQQQQQQQQQQQQQQQQQQQQQQOOO.... .oOOQQQQQQQQQQQQQQQQQQQQQQQQQQ",
"QQQQQQQQQQQQQQQQQQQQQQQQQQOO..@--@..oOOQQQQQQQQQQQQQQQQQQQQQQQQQ",
"QQQQQQQQQQQQQQQQQQQQQQQQQOO..>lMMny# oOOQQQQQQQQQQQQQQQQQQQQQQQQ",
"QQQQQQQQQQQQQQQQQQQQQQQQOO. -xJTTLCgO OOOQQQQQQQQQQQQQQQQQQQQQQQ",
"QQQQQQQQQQQQQQQQQQQQQQQQOO &vCHUUUPBtO.OOQQQQQQQQQQQQQQQQQQQQQQQ",
"QQQQQQQQQQQQQQQQQQQQQQQOO.otBJGUUULKb6..OQQQQQQQQQQQQQQQQQQQQQQQ",
"QQQQQQQQQQQQQQQQQQQQQQQOO.@jCLGIUULPB7..OQQQQQQQQQQQQQQQQQQQQQQQ",
"QQQQQQQQQQQQQQQQQQQQQQQOO.%xCHGIUILPB7..OQQQQQQQQQQQQQQQQQQQQQQQ",
"QQQQQQQQQQQQQQQQQQQQQQQOO.%xCHGIYIHPB8..OQQQQQQQQQQQQQQQQQQQQQQQ",
"QQQQQQQQQQQQQQQQQQQQQQQOO.%xCHAIIIHPBt..OOQQQQQQQQQQQQQQQQQQQQQQ",
"QQQQQQQQQQQQQQQQQQQQQQQOO.%xCGAIIIHPCj@.OOQQQQQQQQQQQQQQQQQQQQQQ",
"QQQQQQQQQQQQQQQQQQQQQQQOO.%xVGASIIHPCc% OOQQQQQQQQQQQQQQQQQQQQQQ",
"QQQQQQQQQQQQQQQQQQQQQQQOO.%xVGAAIIHPCc% OOQQQQQQQQQQQQQQQQQQQQQQ",
"QQQQQQQQQQQQQQQQQQQQQQQQO.%kVDAAIIHPCc% OOQQQQQQQQQQQQQQQQQQQQQQ",
"QQQQQQQQQQQQQQQQQQQQQQQOO.%hVDZAIIHPCc% OOQQQQQQQQQQQQQQQQQQQQQQ",
"QQQQQQQQQQQQQQQQQQQQQQQOO %xMDZAIGHKCc% OOQQQQQQQQQQQQQQQQQQQQQQ",
"QQQQQQQQQQQQQQQQQQQQQQQOo.-xMDZAIGHKCc% OOQQQQQQQQQQQQQQQQQQQQQQ",
"QQQQQQQQQQQQQQQQQQQQQQQO..>vMDZAGGHKCc% OOQQQQQQQQQQQQQQQQQQQQQQ",
"QQQQQQQQQQQQQQQQQQQQQQQO..,vFDZAGHLKCc% OOQQQQQQQQQQQQQQQQQQQQQQ",
"QQQQQQQQQQQQQQQQQQQQQQQO..,vMmZAGHLKCc% OOQQQQQQQQQQQQQQQQQQQQQQ",
"QQQQQQQQQQQQQQQQQQQQQQQO..,xmmZAGHJKCc%.OOQQQQQQQQQQQQQQQQQQQQQQ",
"QQQQQQQQQQQQQQQQQQQQQQQO..,xmmZGGHJKBc%.OOQQQQQQQQQQQQQQQQQQQQQQ",
"QQQQQQQQQQQQQQQQQQQQQQQO..>xmmZGGFKKBc%.OOQQQQQQQQQQQQQQQQQQQQQQ",
"QQQQQQQQQQQQQQQQQQQQQQQO..>xmmDDGFKKBc%.OOQQQQQQQQQQQQQQQQQQQQQQ",
"QQQQQQQQQQQQQQQQQQQQQQQO..>xmmDDDJKKBk%.OOQQQQQQQQQQQQQQQQQQQQQQ",
"QQQQQQQQQQQQQQQQQQQQQQQO..>xnmmDFJKKBk%.OOQQQQQQQQQQQQQQQQQQQQQQ",
"QQQQQQQQQQQQQQQQQQQQQQQO..;xnnmDFJCCBk$.OOQQQQQQQQQQQQQQQQQQQQQQ",
"QQQQQQQQQQQQQQQQQQQQQQQO..;znnmDFKCCBk$.OOQQQQQQQQQQQQQQQQQQQQQQ",
"QQQQQQQQQQQQQQQQQQQQQQQO..;znnmDFKCCBk$.OOQQQQQQQQQQQQQQQQQQQQQQ",
"QQQQQQQQQQQQQQQQQQQQQQQO..*znnmmFCCCBh$.OOQQQQQQQQQQQQQQQQQQQQQQ",
"QQQQQQQQQQQQQQQQQQQQQQQO..*annmmMCCCBh$.OOQQQQQQQQQQQQQQQQQQQQQQ",
"QQQQQQQQQQQQQQQQQQQQQQQO..*azdmmVCCCBp+.OOQQQQQQQQQQQQQQQQQQQQQQ",
"QQQQQQQQQQQQQQQQQQQQQQQO..*izdfmVCCCBu+.OOQQQQQQQQQQQQQQQQQQQQQQ",
"QQQQQQQQQQQQQQQQQQQQQQQO..*ezzdmVCCCBe+.OOQQQQQQQQQQQQQQQQQQQQQQ",
"QQQQQQQQQQQQQQQQQQQQQQQOo.*0aznMCCKKN5@.OOQQQQQQQQQQQQQQQQQQQQQQ",
"QQQQQQQQQQQQQQQQQQQQQQQOo.*4iznMBCPKx2%.OOQQQQQQQQQQQQQQQQQQQQQQ",
"QQQQQQQQQQQQQQQQQQQQQQQOo.*3eanMBCERi4@.OOQQQQQQQQQQQQQQQQQQQQQQ",
"QQQQQQQQQQQQQQQQQQQQQQQOo.*34izMBCWLw0@.OOQQQQQQQQQQQQQQQQQQQQQQ",
"QQQQQQQQQQQQQQQQQQQQQQQOoX&330inNKPrw0@.OOQQQQQQQQQQQQQQQQQQQQQQ",
"QQQQQQQQQQQQQQQQQQQQQQQOo.&3330eesiwe4%.OOQQQQQQQQQQQQQQQQQQQQQQ",
"QQQQQQQQQQQQQQQQQQQQQQQOoX&,333315wwq3%.OOQQQQQQQQQQQQQQQQQQQQQQ",
"QQQQQQQQQQQQQQQQQQQQQQQOo.@:3,,334qqq9@.OOQQQQQQQQQQQQQQQQQQQQQQ",
"QQQQQQQQQQQQQQQQQQQQQQQOO.O;,:::1344q3@.OOQQQQQQQQQQQQQQQQQQQQQQ",
"QQQQQQQQQQQQQQQQQQQQQQQOO.+;,::::13403@.OOQQQQQQQQQQQQQQQQQQQQQQ",
"QQQQQQQQQQQQQQQQQQQQQQQQO.+;,:::::3303@.OOQQQQQQQQQQQQQQQQQQQQQQ",
"QQQQQQQQQQQQQQQQQQQQQQQOO.+;::;:::,303@.OOQQQQQQQQQQQQQQQQQQQQQQ",
"QQQQQQQQQQQQQQQQQQQQQQQOO.+*::;;;::303@.OOQQQQQQQQQQQQQQQQQQQQQQ",
"QQQQQQQQQQQQQQQQQQQQQQQOO.O*::;;;::303@.OOQQQQQQQQQQQQQQQQQQQQQQ",
"QQQQQQQQQQQQQQQQQQQQQQQOO.O*::;;:::40,@.OOQQQQQQQQQQQQQQQQQQQQQQ",
"QQQQQQQQQQQQQQQQQQQQQQQOO.O*:;;;;::40;o.OOQQQQQQQQQQQQQQQQQQQQQQ",
"QQQQQQQQQQQQQQQQQQQQQQQOO.O*::;;;::44=o.OQQQQQQQQQQQQQQQQQQQQQQQ",
"QQQQQQQQQQQQQQQQQQQQQQQOO.O&;:;;::143*o.OQQQQQQQQQQQQQQQQQQQQQQQ",
"QQQQQQQQQQQQQQQQQQQQQQQOOOo@-;;;::133*.oOQQQQQQQQQQQQQQQQQQQQQQQ",
"QQQQQQQQQQQQQQQQQQQQQQQQOO.O&;;;::13<+.OOQQQQQQQQQQQQQQQQQQQQQQQ",
"QQQQQQQQQQQQQQQQQQQQQQQQOOO.+&;;:::;%.oOOQQQQQQQQQQQQQQQQQQQQQQQ",
"QQQQQQQQQQQQQQQQQQQQQQQQQOOoo+%*-*&@o.OOQQQQQQQQQQQQQQQQQQQQQQQQ",
"QQQQQQQQQQQQQQQQQQQQQQQQQOOOo.oO+OO..OOOQQQQQQQQQQQQQQQQQQQQQQQQ",
"QQQQQQQQQQQQQQQQQQQQQQQQQQOOOO.....oOOOQQQQQQQQQQQQQQQQQQQQQQQQQ",
"QQQQQQQQQQQQQQQQQQQQQQQQQQQOOOOOOOOOOOQQQQQQQQQQQQQQQQQQQQQQQQQQ",
"QQQQQQQQQQQQQQQQQQQQQQQQQQQQQOOOOOOOQQQQQQQQQQQQQQQQQQQQQQQQQQQQ",
"QQQQQQQQQQQQQQQQQQQQQQQQQQQQQQQQQQQQQQQQQQQQQQQQQQQQQQQQQQQQQQQQ"
};
