/* XPM */
static char *result[] = {
/* columns rows colors chars-per-pixel */
"64 64 97 2 ",
"   c #401000",
".  c #501000",
"X  c #502000",
"o  c #602000",
"O  c #603000",
"+  c #703000",
"@  c #704000",
"#  c #705000",
"$  c #803000",
"%  c #804000",
"&  c #904000",
"*  c #805000",
"=  c #905000",
"-  c #A05000",
";  c #B05000",
":  c #A05010",
">  c #906000",
",  c #907000",
"<  c #A06000",
"1  c #B06000",
"2  c #A07000",
"3  c #B07000",
"4  c #A06010",
"5  c #C06000",
"6  c #D06000",
"7  c #C07000",
"8  c #D07000",
"9  c #E07000",
"0  c #A08000",
"q  c #B08000",
"w  c #B09000",
"e  c #B08010",
"r  c #D08000",
"t  c #C09000",
"y  c #D09000",
"u  c #D08010",
"i  c #E08000",
"p  c #F08000",
"a  c #E09000",
"s  c #F09000",
"d  c #E08010",
"f  c #E09010",
"g  c #F09010",
"h  c #C0A000",
"j  c #D0A000",
"k  c #D0B000",
"l  c #D0A010",
"z  c #C0B010",
"x  c #E0A000",
"c  c #F0A000",
"v  c #F0B000",
"b  c #F0A010",
"n  c #F0B010",
"m  c #E0A020",
"M  c #F0A020",
"N  c #F0B020",
"B  c #F0B030",
"V  c #D0C000",
"C  c #E0C000",
"Z  c #F0C000",
"A  c #E0D000",
"S  c #F0D000",
"D  c #F0C010",
"F  c #F0D010",
"G  c #F0F000",
"H  c #F0E010",
"J  c #F0F010",
"K  c #F0C020",
"L  c #E0D020",
"P  c #F0D020",
"I  c #F0C030",
"U  c #F0D030",
"Y  c #F0E020",
"T  c #F0F020",
"R  c #F0E030",
"E  c #F0F030",
"W  c #F0B040",
"Q  c #F0B050",
"!  c #F0B060",
"~  c #F0C040",
"^  c #F0D040",
"/  c #F0C050",
"(  c #F0D050",
")  c #F0E040",
"_  c #F0F040",
"`  c #F0E050",
"'  c #F0F050",
"]  c #F0C060",
"[  c #F0D060",
"{  c #F0C070",
"}  c #F0D070",
"|  c #F0E060",
" . c #F0F060",
".. c #F0F070",
"X. c #F0F080",
"o. c #F0F0A0",
"O. c None",
/* pixels */
"O.O.O.O.O.O.O.O.O.O.O.O.O.O.O.O.O.O.O.O.O.O.O.O.O.O.O.O.O.O.O.O.O.O.O.O.O.O.O.O.O.O.O.O.O.O.O.O.O.O.O.O.O.O.O.O.O.O.O.O.O.O.O.O.",
"O.O.O.O.O.O.O.O.O.O.O.O.O.O.O.O.O.O.O.O.O.O.O.O.O.O.O.O.O.O O O O O O.O.O.O.O.O.O.O.O.O.O.O.O.O.O.O.O.O.O.O.O.O.O.O.O.O.O.O.O.O.",
"O.O.O.O.O.O.O.O.O.O.O.O.O.O.O.O.O.O.O.O.O.O.O.O.O.O.O O O O O O O O O O O O.O.O.O.O.O.O.O.O.O.O.O.O.O.O.O.O.O.O.O.O.O.O.O.O.O.O.",
"O.O.O.O.O.O.O.O.O.O.O.O.O.O.O.O.O.O.O.O.O.O.O.O.O.O O O o X . . X X o O O O O.O.O.O.O.O.O.O.O.O.O.O.O.O.O.O.O.O.O.O.O.O.O.O.O.O.",
"O.O.O.O.O.O.O.O.O.O.O.O.O.O.O.O.O.O.O.O.O.O.O.O.O O o X X O * * @ X . X O O O O.O.O.O.O.O.O.O.O.O.O.O.O.O.O.O.O.O.O.O.O.O.O.O.O.",
"O.O.O.O.O.O.O.O.O.O.O.O.O.O.O.O.O.O.O.O.O.O.O.O O o X O e m K P L z > o X O O O O.O.O.O.O.O.O.O.O.O.O.O.O.O.O.O.O.O.O.O.O.O.O.O.",
"O.O.O.O.O.O.O.O.O.O.O.O.O.O.O.O.O.O.O.O.O.O.O.O O X # l U ( ( ' _ T J 0   X O O O O.O.O.O.O.O.O.O.O.O.O.O.O.O.O.O.O.O.O.O.O.O.O.",
"O.O.O.O.O.O.O.O.O.O.O.O.O.O.O.O.O.O.O.O.O.O.O O X O l ) [ [ [ ' ' _ T G , X X O O O.O.O.O.O.O.O.O.O.O.O.O.O.O.O.O.O.O.O.O.O.O.O.",
"O.O.O.O.O.O.O.O.O.O.O.O.O.O.O.O.O.O.O.O.O.O O o   2 P [ } [ ( ' _ _ E J v = X o O O O.O.O.O.O.O.O.O.O.O.O.O.O.O.O.O.O.O.O.O.O.O.",
"O.O.O.O.O.O.O.O.O.O.O.O.O.O.O.O.O.O.O.O.O O O   # D ^ [ [ ] ( ' _ E E I b a @ X O O O.O.O.O.O.O.O.O.O.O.O.O.O.O.O.O.O.O.O.O.O.O.",
"O.O.O.O.O.O.O.O.O.O.O.O.O.O.O.O.O.O.O.O.O O X O j U / ] ] ] ` ' E E E M c c < X o O O.O.O.O.O.O.O.O.O.O.O.O.O.O.O.O.O.O.O.O.O.O.",
"O.O.O.O.O.O.O.O.O.O.O.O.O.O.O.O.O.O.O.O O o . 0 H ^ ] { ] ] ` _ E E P b v c 7 O X O O O.O.O.O.O.O.O.O.O.O.O.O.O.O.O.O.O.O.O.O.O.",
"O.O.O.O.O.O.O.O.O.O.O.O.O.O.O.O.O.O.O.O O X O V R / ] ] ] [ ' _ E E K s i a y @ X O O O.O.O.O.O.O.O.O.O.O.O.O.O.O.O.O.O.O.O.O.O.",
"O.O.O.O.O.O.O.O.O.O.O.O.O.O.O.O.O.O.O.O o . > H ^ / ] ] ] ( ' _ E E N r 5 i a = X o O O.O.O.O.O.O.O.O.O.O.O.O.O.O.O.O.O.O.O.O.O.",
"O.O.O.O.O.O.O.O.O.O.O.O.O.O.O.O.O.O.O.O X . w T ~ Q ! ] ] ( _ _ E R b 1 7 r a < X X O O.O.O.O.O.O.O.O.O.O.O.O.O.O.O.O.O.O.O.O.O.",
"O.O.O.O.O.O.O.O.O.O.O.O.O.O.O.O.O.O.O O X O k Y / Q ! ] ] ( _ E E R d = 7 r i 1 o X O O O.O.O.O.O.O.O.O.O.O.O.O.O.O.O.O.O.O.O.O.",
"O.O.O.O.O.O.O.O.O.O.O.O.O.O.O.O.O.O.O O . @ F R / Q ! ] / ( _ E E P 7 = 7 8 i 7 @ X O O.O.O.O.O.O.O.O.O.O.O.O.O.O.O.O.O.O.O.O.O.",
"O.O.O.O.O.O.O.O.O.O.O.O.O.O.O.O.O.O.O o . > H ^ Q Q ! ] / ` _ E E K 1 - 1 8 i r % X O O O.O.O.O.O.O.O.O.O.O.O.O.O.O.O.O.O.O.O.O.",
"O.O.O.O.O.O.O.O.O.O.O.O.O.O.O.O.O.O.O X X q H ~ W Q ! ] ( ` _ E E N < - 1 7 r r % X O O O.O.O.O.O.O.O.O.O.O.O.O.O.O.O.O.O.O.O.O.",
"O.O.O.O.O.O.O.O.O.O.O.O.O.O.O.O.O.O.O X . t Y ~ W Q Q / ( ) _ E E b - - 1 7 r r < X X O O.O.O.O.O.O.O.O.O.O.O.O.O.O.O.O.O.O.O.O.",
"O.O.O.O.O.O.O.O.O.O.O.O.O.O.O.O.O.O O X o j Y ~ W Q Q / ( _ E E E f - < 1 5 8 r < o X O O.O.O.O.O.O.O.O.O.O.O.O.O.O.O.O.O.O.O.O.",
"O.O.O.O.O.O.O.O.O.O.O.O.O.O.O.O.O.O O X @ C Y ~ W Q Q / ( _ E T E u = < 1 5 8 r 1 o X O O.O.O.O.O.O.O.O.O.O.O.O.O.O.O.O.O.O.O.O.",
"O.O.O.O.O.O.O.O.O.O.O.O.O.O.O.O.O.O.O X @ Z U ~ W Q / / ` _ E T R 8 = < < 1 8 r 1 o X O O.O.O.O.O.O.O.O.O.O.O.O.O.O.O.O.O.O.O.O.",
"O.O.O.O.O.O.O.O.O.O.O.O.O.O.O.O.O.O O X @ D U I ~ Q / ( ) _ E T Y 8 = < 1 1 8 i < X X O O.O.O.O.O.O.O.O.O.O.O.O.O.O.O.O.O.O.O.O.",
"O.O.O.O.O.O.O.O.O.O.O.O.O.O.O.O.O.O O X % D U I W / / ( ) _ E E P 8 = < 1 7 8 i 1 o X O O O.O.O.O.O.O.O.O.O.O.O.O.O.O.O.O.O.O.O.",
"O.O.O.O.O.O.O.O.O.O.O.O.O.O.O.O.O.O o X > F I I W / / ^ _ E E E K 7 - 1 1 6 9 p r @ X O O O.O.O.O.O.O.O.O.O.O.O.O.O.O.O.O.O.O.O.",
"O.O.O.O.O.O.O.O.O.O.O.O.O.O.O.O.O.O X X 2 F I I ~ ~ ~ ^ _ E E E K 7 < ; 8 n n n i @ X O O O.O.O.O.O.O.O.O.O.O.O.O.O.O.O.O.O.O.O.",
"O.O.O.O.O.O.O.O.O.O.O.O.O.O.O.O.O.O X X 2 F K I ~ ~ ~ ) _ E E E K 7 1 8 F ' X.T i @ X O O O.O.O.O.O.O.O.O.O.O.O.O.O.O.O.O.O.O.O.",
"O.O.O.O.O.O.O.O.O.O.O.O.O.O.O.O.O.O X X 2 F K I ~ ~ ^ ) _ E E E N 8 i K E _ ..T x + X O O O.O.O.O.O.O.O.O.O.O.O.O.O.O.O.O.O.O.O.",
"O.O.O.O.O.O.O.O.O.O.O.O.O.O.O.O.O.O X X < F K I ~ ~ ^ ) E E E E M s v K U E E T Z + X O O O.O.O.O.O.O.O.O.O.O.O.O.O.O.O.O.O.O.O.",
"O.O.O.O.O.O.O.O.O.O.O.O.O.O.O.O.O.O X X < D K K I ~ ^ _ E E E E b v D B U E E T Z $ X O O O.O.O.O.O.O.O.O.O.O.O.O.O.O.O.O.O.O.O.",
"O.O.O.O.O.O.O.O.O.O.O.O.O.O.O.O.O.O X X < D K K I ~ U _ E E T Y b D K I I E E T Z $ X O O O.O.O.O.O.O.O.O.O.O.O.O.O.O.O.O.O.O.O.",
"O.O.O.O.O.O.O.O.O.O.O.O.O.O.O.O.O.O X X - Z D K I I ^ E E E T Y b D K I ~ ) E T S $ X O O O.O.O.O.O.O.O.O.O.O.O.O.O.O.O.O.O.O.O.",
"O.O.O.O.O.O.O.O.O.O.O.O.O.O.O.O.O.O X X = v D K I I U E E E E P b K K ~ ~ ) _ T S $ X O O O.O.O.O.O.O.O.O.O.O.O.O.O.O.O.O.O.O.O.",
"O.O.O.O.O.O.O.O.O.O.O.O.O.O.O.O.O.O X X & c D N I I R E E E T P g K I ~ / ^ _ T S % X O O O.O.O.O.O.O.O.O.O.O.O.O.O.O.O.O.O.O.O.",
"O.O.O.O.O.O.O.O.O.O.O.O.O.O.O.O.O.O X X & a D N I I R E E E T K g P I W / ( _ T S % X O O O.O.O.O.O.O.O.O.O.O.O.O.O.O.O.O.O.O.O.",
"O.O.O.O.O.O.O.O.O.O.O.O.O.O.O.O.O.O o X & a Z D I I R E E E E N g P I W Q / ' E S @ X O O O.O.O.O.O.O.O.O.O.O.O.O.O.O.O.O.O.O.O.",
"O.O.O.O.O.O.O.O.O.O.O.O.O.O.O.O.O.O o X * 8 v D K U E E _ E T N g U ~ Q ! / ' E A @ X O O O.O.O.O.O.O.O.O.O.O.O.O.O.O.O.O.O.O.O.",
"O.O.O.O.O.O.O.O.O.O.O.O.O.O.O.O.O.O o X % 7 s v K U E E _ _ T b s U / Q ! / ' T C O X O O O.O.O.O.O.O.O.O.O.O.O.O.O.O.O.O.O.O.O.",
"O.O.O.O.O.O.O.O.O.O.O.O.O.O.O.O.O.O O X + 1 8 c K U T E  .' Y g c I / ! ! / ' T h X X O O O.O.O.O.O.O.O.O.O.O.O.O.O.O.O.O.O.O.O.",
"O.O.O.O.O.O.O.O.O.O.O.O.O.O.O.O.O.O O X + < 7 i n I Y T o...Z p c I / ] ] ] _ T w X X O O.O.O.O.O.O.O.O.O.O.O.O.O.O.O.O.O.O.O.O.",
"O.O.O.O.O.O.O.O.O.O.O.O.O.O.O.O.O.O.O X + < 7 7 i b R E .. .s s c I [ ] ] ( _ T w X X O O.O.O.O.O.O.O.O.O.O.O.O.O.O.O.O.O.O.O.O.",
"O.O.O.O.O.O.O.O.O.O.O.O.O.O.O.O.O.O O X O < 7 7 7 8 s P R b p s c I [ ] ] ` _ J w . X O O.O.O.O.O.O.O.O.O.O.O.O.O.O.O.O.O.O.O.O.",
"O.O.O.O.O.O.O.O.O.O.O.O.O.O.O.O.O.O O o X = 3 3 7 5 5 9 s p p s s N [ [ ] ` _ J q X X O O.O.O.O.O.O.O.O.O.O.O.O.O.O.O.O.O.O.O.O.",
"O.O.O.O.O.O.O.O.O.O.O.O.O.O.O.O.O.O.O o X % 1 3 1 5 7 8 i p i s s N | [ [ ' _ J 2 X o O O.O.O.O.O.O.O.O.O.O.O.O.O.O.O.O.O.O.O.O.",
"O.O.O.O.O.O.O.O.O.O.O.O.O.O.O.O.O.O.O o X @ < 3 1 1 5 7 8 i i s s n | [ ` ' E H % . O O O.O.O.O.O.O.O.O.O.O.O.O.O.O.O.O.O.O.O.O.",
"O.O.O.O.O.O.O.O.O.O.O.O.O.O.O.O.O.O.O O X + < 1 1 1 1 5 7 8 r i s b `  .' _ E S % X O O O.O.O.O.O.O.O.O.O.O.O.O.O.O.O.O.O.O.O.O.",
"O.O.O.O.O.O.O.O.O.O.O.O.O.O.O.O.O.O.O O X O = 1 1 1 1 1 5 7 8 i s c ^  .' _ T C + X O O.O.O.O.O.O.O.O.O.O.O.O.O.O.O.O.O.O.O.O.O.",
"O.O.O.O.O.O.O.O.O.O.O.O.O.O.O.O.O.O.O.O X O * < 1 < 1 1 1 7 7 r s s I ' _ _ J t . X O O O.O.O.O.O.O.O.O.O.O.O.O.O.O.O.O.O.O.O.O.",
"O.O.O.O.O.O.O.O.O.O.O.O.O.O.O.O.O.O.O.O O X @ < < < < < 1 3 7 r s s N E _ E J 3 X X O O.O.O.O.O.O.O.O.O.O.O.O.O.O.O.O.O.O.O.O.O.",
"O.O.O.O.O.O.O.O.O.O.O.O.O.O.O.O.O.O.O.O O X O = < < < < 1 1 7 8 i c b R E T H & X o O O.O.O.O.O.O.O.O.O.O.O.O.O.O.O.O.O.O.O.O.O.",
"O.O.O.O.O.O.O.O.O.O.O.O.O.O.O.O.O.O.O.O O X o % < < < < 1 1 7 7 i s b N E T v + X O O O.O.O.O.O.O.O.O.O.O.O.O.O.O.O.O.O.O.O.O.O.",
"O.O.O.O.O.O.O.O.O.O.O.O.O.O.O.O.O.O.O.O.O O X + > < < < 1 1 7 7 r s c M I F r o X O O O.O.O.O.O.O.O.O.O.O.O.O.O.O.O.O.O.O.O.O.O.",
"O.O.O.O.O.O.O.O.O.O.O.O.O.O.O.O.O.O.O.O.O O X o % < 1 < < 1 5 7 r a c b N b - X o O O.O.O.O.O.O.O.O.O.O.O.O.O.O.O.O.O.O.O.O.O.O.",
"O.O.O.O.O.O.O.O.O.O.O.O.O.O.O.O.O.O.O.O.O O O X O = < 1 < 1 1 7 8 i s c c r + X O O O.O.O.O.O.O.O.O.O.O.O.O.O.O.O.O.O.O.O.O.O.O.",
"O.O.O.O.O.O.O.O.O.O.O.O.O.O.O.O.O.O.O.O.O.O O X o @ < 1 1 1 1 7 8 i s c a & X o O O O.O.O.O.O.O.O.O.O.O.O.O.O.O.O.O.O.O.O.O.O.O.",
"O.O.O.O.O.O.O.O.O.O.O.O.O.O.O.O.O.O.O.O.O.O O O X O * < 1 1 1 5 8 r i r 4 o X O O O.O.O.O.O.O.O.O.O.O.O.O.O.O.O.O.O.O.O.O.O.O.O.",
"O.O.O.O.O.O.O.O.O.O.O.O.O.O.O.O.O.O.O.O.O.O.O O O X O * > < 1 1 7 7 7 : o X O O O O.O.O.O.O.O.O.O.O.O.O.O.O.O.O.O.O.O.O.O.O.O.O.",
"O.O.O.O.O.O.O.O.O.O.O.O.O.O.O.O.O.O.O.O.O.O.O.O O O X O @ * = < = = % O X O O O O.O.O.O.O.O.O.O.O.O.O.O.O.O.O.O.O.O.O.O.O.O.O.O.",
"O.O.O.O.O.O.O.O.O.O.O.O.O.O.O.O.O.O.O.O.O.O.O.O O O O X X O + + O o X X O O O O.O.O.O.O.O.O.O.O.O.O.O.O.O.O.O.O.O.O.O.O.O.O.O.O.",
"O.O.O.O.O.O.O.O.O.O.O.O.O.O.O.O.O.O.O.O.O.O.O.O.O O O O o X X X X X o O O O O.O.O.O.O.O.O.O.O.O.O.O.O.O.O.O.O.O.O.O.O.O.O.O.O.O.",
"O.O.O.O.O.O.O.O.O.O.O.O.O.O.O.O.O.O.O.O.O.O.O.O.O.O.O O O O O o O O O O O O.O.O.O.O.O.O.O.O.O.O.O.O.O.O.O.O.O.O.O.O.O.O.O.O.O.O.",
"O.O.O.O.O.O.O.O.O.O.O.O.O.O.O.O.O.O.O.O.O.O.O.O.O.O.O.O.O O O O O O O.O.O.O.O.O.O.O.O.O.O.O.O.O.O.O.O.O.O.O.O.O.O.O.O.O.O.O.O.O.",
"O.O.O.O.O.O.O.O.O.O.O.O.O.O.O.O.O.O.O.O.O.O.O.O.O.O.O.O.O.O.O.O.O.O.O.O.O.O.O.O.O.O.O.O.O.O.O.O.O.O.O.O.O.O.O.O.O.O.O.O.O.O.O.O."
};
