/* XPM */
static char *result[] = {
/* columns rows colors chars-per-pixel */
"64 64 92 1 ",
"  c #401000",
". c #501000",
"X c #502000",
"o c #602000",
"O c #603000",
"+ c #703000",
"@ c #704000",
"# c #803000",
"$ c #804000",
"% c #805000",
"& c #905000",
"* c #B05000",
"= c #A05010",
"- c #906000",
"; c #907000",
": c #A06000",
"> c #B06000",
", c #A07000",
"< c #B07000",
"1 c #A06010",
"2 c #C05000",
"3 c #C06000",
"4 c #D06000",
"5 c #C07000",
"6 c #D07000",
"7 c #E07000",
"8 c #F07000",
"9 c #A08000",
"0 c #B08000",
"q c #B09000",
"w c #C08000",
"e c #D08000",
"r c #C09000",
"t c #D09000",
"y c #D08010",
"u c #E08000",
"i c #F08000",
"p c #E09000",
"a c #F09000",
"s c #E09010",
"d c #F09010",
"f c #C0A000",
"g c #D0A000",
"h c #D0B000",
"j c #D0A010",
"k c #E0A000",
"l c #F0A000",
"z c #E0B000",
"x c #F0B000",
"c c #E0A010",
"v c #F0A010",
"b c #E0B010",
"n c #F0B010",
"m c #F0A020",
"M c #F0B020",
"N c #F0B030",
"B c #F0C000",
"V c #E0D000",
"C c #F0D000",
"Z c #E0C010",
"A c #F0C010",
"S c #F0D010",
"D c #F0E000",
"F c #F0E010",
"G c #F0F010",
"H c #F0C020",
"J c #F0D020",
"K c #F0C030",
"L c #F0D030",
"P c #F0E020",
"I c #F0F020",
"U c #F0E030",
"Y c #F0F030",
"T c #F0B040",
"R c #F0B050",
"E c #F0B060",
"W c #F0C040",
"Q c #F0D040",
"! c #F0C050",
"~ c #F0D050",
"^ c #F0E040",
"/ c #F0F040",
"( c #F0E050",
") c #F0F050",
"_ c #F0C060",
"` c #F0D060",
"' c #F0C070",
"] c #F0E060",
"[ c #F0F060",
"{ c #F0F070",
"} c #F0F0A0",
"| c None",
/* pixels */
"||||||||||||||||||||||||||||||||||||||||||||||||||||||||||||||||",
"|||||||||||||||||||||||||||||OOOOO||||||||||||||||||||||||||||||",
"|||||||||||||||||||||||||||OOOOooOOOO|||||||||||||||||||||||||||",
"||||||||||||||||||||||||||OOOX.X.XoOOO||||||||||||||||||||||||||",
"|||||||||||||||||||||||||OOXXO%-%O.XOOO|||||||||||||||||||||||||",
"||||||||||||||||||||||||OOXX%jLLJZ9OXOOO||||||||||||||||||||||||",
"|||||||||||||||||||||||OOo %A^]])/Gq.XOOO|||||||||||||||||||||||",
"||||||||||||||||||||||OOO.Ob^```[)YG;XXOO|||||||||||||||||||||||",
"||||||||||||||||||||||OOXOfP~```(//IC$XoO|||||||||||||||||||||||",
"||||||||||||||||||||||Oo.9GQ_```(/YIS>XXO|||||||||||||||||||||||",
"|||||||||||||||||||||OOXOhY!___`)/YYA5OXOO||||||||||||||||||||||",
"|||||||||||||||||||||OO.%F^!_'_`)/YYne@XO|||||||||||||||||||||||",
"|||||||||||||||||||||OXX9GQ!___~)/YYv5$XOO||||||||||||||||||||||",
"|||||||||||||||||||||OX.rIQR___~)/YPp5$XOO||||||||||||||||||||||",
"||||||||||||||||||||OOXohIWRE__~)/YPu5-XoO||||||||||||||||||||||",
"||||||||||||||||||||OOX@VU!RE__~//YJ65:oXO||||||||||||||||||||||",
"||||||||||||||||||||OO.$SU!RE__~/YYJ45:oXO||||||||||||||||||||||",
"||||||||||||||||||||OoX-FQWRE_!~/YYA35:oXO||||||||||||||||||||||",
"||||||||||||||||||||OXX0FQTRE_!(/YYn3e:oXO||||||||||||||||||||||",
"||||||||||||||||||||OXX0PQTRE!!(/YYv3e<OXOO|||||||||||||||||||||",
"||||||||||||||||||||OXX0PWTRR!~(/YYc2e5@XOO|||||||||||||||||||||",
"||||||||||||||||||||OXX0PWTRR!~^/YYs*ee@XOO|||||||||||||||||||||",
"|||||||||||||||||||OOXogPKWRR!~//YYs*ee$XOO|||||||||||||||||||||",
"|||||||||||||||||||OOX+zPKKT!!~/YYYy>ee$XOO|||||||||||||||||||||",
"|||||||||||||||||||OOX+zPKKW!!^/YYYe>ee$XOO|||||||||||||||||||||",
"|||||||||||||||||||OOX+zJKKW!Q^/YYY73ue$XOO|||||||||||||||||||||",
"|||||||||||||||||||OOX+zJKKWWQ^/YYPva8e$XOO|||||||||||||||||||||",
"|||||||||||||||||||OOX+zJHKWWQ//YIHL{H7@XOO|||||||||||||||||||||",
"|||||||||||||||||||OOX+zJHKWWQ/YYIHH{/k+XOO|||||||||||||||||||||",
"|||||||||||||||||||OOX+kJHKWWQYYYIMHYIB#XOO|||||||||||||||||||||",
"|||||||||||||||||||OOX+kSHKWQ^YYYIMJYIC#XOO|||||||||||||||||||||",
"|||||||||||||||||||OOX+gSHKKQ^YYYYMH/IC#XOO|||||||||||||||||||||",
"|||||||||||||||||||OOX+tSHKKLUYYYYmH/IC$XOO|||||||||||||||||||||",
"|||||||||||||||||||OOXOtSHHKLYYYYIvK/YC$XOO|||||||||||||||||||||",
"|||||||||||||||||||OOX+wAHHKLYYYIPdK)YC$XOO|||||||||||||||||||||",
"|||||||||||||||||||OOX+5BAMKLYYYYJdN)YC$XOO|||||||||||||||||||||",
"|||||||||||||||||||OOX+<xAMKLYYYYJaN]YD$XOO|||||||||||||||||||||",
"|||||||||||||||||||OOX+>lAHKUIY/YHaN]YD$XOO|||||||||||||||||||||",
"|||||||||||||||||||OOX+>uxAHUI/)YMaN]YD$XOO|||||||||||||||||||||",
"|||||||||||||||||||OOXO>6anHUI){YaaN]YD$XOO|||||||||||||||||||||",
"|||||||||||||||||||OOXO:5elHUG{}SiaN]YD$XOO|||||||||||||||||||||",
"|||||||||||||||||||OOXX&55ulHY)[aiaN[YD$XOO|||||||||||||||||||||",
"||||||||||||||||||||OXX%<556unJliaaN[YC@XOO|||||||||||||||||||||",
"||||||||||||||||||||Ooo$<555348iiiaM[YV@XOO|||||||||||||||||||||",
"||||||||||||||||||||Ooo$<5>>556uuuaM)IhOXOO|||||||||||||||||||||",
"||||||||||||||||||||OoX$><>>>36eeuan)IrXXO||||||||||||||||||||||",
"||||||||||||||||||||OOX@:<>>>>556uan)IqXXO||||||||||||||||||||||",
"||||||||||||||||||||OOXO:>>>>>>55ual/IqXXO||||||||||||||||||||||",
"||||||||||||||||||||OOXO&>>::>>55eaaYI0XXO||||||||||||||||||||||",
"||||||||||||||||||||OOXO%>>:::>>5eaaPG,XoO||||||||||||||||||||||",
"|||||||||||||||||||||OoX$:>:::>>56aaPG$.OO||||||||||||||||||||||",
"|||||||||||||||||||||OoX@:>:::>>56uaAS$XOO||||||||||||||||||||||",
"|||||||||||||||||||||OOXO&::::>>56ulnk@XO|||||||||||||||||||||||",
"|||||||||||||||||||||OOXo$:>::>>36uaxeOXOO||||||||||||||||||||||",
"||||||||||||||||||||||OOXO&::>>>36ual>XXO|||||||||||||||||||||||",
"||||||||||||||||||||||OOXo$:::>>36epe$XoO|||||||||||||||||||||||",
"||||||||||||||||||||||OOOXO%:>>>>5ee=oXOO|||||||||||||||||||||||",
"|||||||||||||||||||||||OOOX+%::>>551OXOOO|||||||||||||||||||||||",
"||||||||||||||||||||||||OOOoO@&-&&$+XOOO||||||||||||||||||||||||",
"||||||||||||||||||||||||OOOOXoO@+OXXoOO|||||||||||||||||||||||||",
"|||||||||||||||||||||||||OOOOoXXXXoOOO||||||||||||||||||||||||||",
"||||||||||||||||||||||||||OOOOOoOOOOO|||||||||||||||||||||||||||",
"||||||||||||||||||||||||||||OOOOOOO|||||||||||||||||||||||||||||",
"||||||||||||||||||||||||||||||||||||||||||||||||||||||||||||||||"
};
