/* XPM */
static char *result[] = {
/* columns rows colors chars-per-pixel */
"64 64 94 2 ",
"   c #401000",
".  c #501000",
"X  c #502000",
"o  c #503000",
"O  c #602000",
"+  c #702000",
"@  c #603000",
"#  c #703000",
"$  c #704000",
"%  c #803000",
"&  c #804000",
"*  c #904000",
"=  c #805000",
"-  c #905000",
";  c #A04000",
":  c #A05000",
">  c #B05000",
",  c #906000",
"<  c #907000",
"1  c #A06000",
"2  c #B06000",
"3  c #A07000",
"4  c #B07000",
"5  c #C05000",
"6  c #C06000",
"7  c #C07000",
"8  c #D07000",
"9  c #E07000",
"0  c #F07000",
"q  c #B08000",
"w  c #C08000",
"e  c #D08000",
"r  c #C09000",
"t  c #D09000",
"y  c #E08000",
"u  c #F08000",
"i  c #E09000",
"p  c #F09000",
"a  c #F09010",
"s  c #C0A000",
"d  c #D0A000",
"f  c #C0B000",
"g  c #D0B000",
"h  c #D0B010",
"j  c #E0A000",
"k  c #F0A000",
"l  c #E0B000",
"z  c #F0B000",
"x  c #E0A010",
"c  c #F0A010",
"v  c #F0B010",
"b  c #E0A020",
"n  c #F0A020",
"m  c #F0B020",
"M  c #F0B030",
"N  c #E0C000",
"B  c #F0C000",
"V  c #F0D000",
"C  c #E0C010",
"Z  c #F0C010",
"A  c #F0D010",
"S  c #F0E000",
"D  c #F0F000",
"F  c #F0E010",
"G  c #F0F010",
"H  c #F0C020",
"J  c #F0D020",
"K  c #F0C030",
"L  c #F0D030",
"P  c #F0E020",
"I  c #F0F020",
"U  c #F0E030",
"Y  c #F0F030",
"T  c #F0B040",
"R  c #F0B050",
"E  c #F0B060",
"W  c #F0C040",
"Q  c #F0D040",
"!  c #F0C050",
"~  c #F0D050",
"^  c #F0E040",
"/  c #F0F040",
"(  c #F0E050",
")  c #F0F050",
"_  c #F0C060",
"`  c #F0D060",
"'  c #F0C070",
"]  c #F0D070",
"[  c #F0E060",
"{  c #F0F060",
"}  c #F0F070",
"|  c #F0F080",
" . c #F0F0B0",
".. c None",
/* pixels */
"................................................................................................................................",
"........................................................@ @ @ @ @ ..............................................................",
"..................................................@ @ @ @ O O @ @ @ @ @ @ ......................................................",
"..............................................@ @ @ @ O X X X . X X O @ @ @ ....................................................",
"............................................@ @ @ @ X   @ = , = @ X X X @ @ @ ..................................................",
"..........................................@ @ @ X   @ 1 b H U P C s < O X @ @ @ ................................................",
"..........................................@ @ X X , x K ~ ( ) / Y I G s @ . @ @ @ ..............................................",
"........................................@ @ X   3 H Q ` ` ) ) / / Y I G f @ . @ @ @ ............................................",
"......................................@ @ X   , H ~ ] ` ( ) / / Y I Y I A r @ X @ @ @ ..........................................",
"....................................@ @ @ . = Z Q _ ' ` ( ) / Y I Y K n c k w X X @ @ ..........................................",
"....................................@ @ X @ h L _ ' _ ` ( / Y Y Y H a k k k p , X O @ @ ........................................",
"..................................@ @ @   < J ! ' _ _ ~ ) / Y I U a z k k k k t $ X @ @ ........................................",
"..................................@ @ X @ h L _ _ _ _ ( / / Y Y n k k y y p k p 1 X O @ @ ......................................",
"................................@ @ @   < J ! E _ _ ` ( / Y Y J c k 7 7 8 e p k w @ X @ @ ......................................",
"................................@ @ X @ g L ! E E _ ~ / / Y Y m k 4 1 4 7 8 y p i - X O @ ......................................",
"................................@ O . < A W R R _ _ ~ / Y Y P c 4 $ 1 1 4 7 8 y p 4 X X @ @ ....................................",
"..............................@ @ X X s J ! R E _ ! ( / Y I A 8 @ = 1 1 2 7 8 e i e $ X @ @ ....................................",
"..............................@ @ X $ N L ! R E _ ~ ( / Y G i O X = , 1 1 2 7 8 y y & X @ @ ....................................",
"..............................@ @ . = A W R R E ! ~ / / Y F 2 . O $ , 1 1 2 6 7 e i 1 X X @ ....................................",
"..............................@ O X q A W R R R ! ~ / Y I Z * X X $ , 1 1 2 2 7 e i 2 X X @ ....................................",
"............................@ @ X @ d J W T R ! ~ ( / Y I z # X X @ - 1 1 1 2 6 8 y 7 @ X @ @ ..................................",
"............................@ @ X $ N L W T R ! ~ ^ / Y G e O X X @ = 1 2 : 2 2 7 y e & X @ @ ..................................",
"............................@ @ . & Z K W T R ! ~ / Y Y G 4 X X X @ & 1 2 1 1 2 7 u y & X @ @ ..................................",
"............................@ O X , A K W T ! ! ~ / Y Y F 2 X X O X & 1 1 1 2 2 8 p y - X O @ ..................................",
"............................@ X X q A K W T ! ~ ^ / Y I A : X X O X & 1 2 1 2 2 9 u u 4 o X @ ..................................",
"............................@ X X q A K W T ! Q ^ / Y I Z % X @ @ X $ 1 2 2 2 5 0 J v 2 X X @ ..................................",
"............................@ X X q A K W W W Q / / Y I B # X @ @ X # 1 4 2 6 z ( { S > X X @ ..................................",
"..........................@ @ X X r A K W W W Q / Y Y I l # X @ @ X # 1 2 6 c I } { D 2 X X @ ..................................",
"..........................@ @ X @ d A K K W W Q / Y Y I j # X @ @ X @ 1 7 p J Y Y / G 4 . X @ ..................................",
"..........................@ @ X # j A K K W W ^ Y Y Y I j # X @ @ X @ 1 i Z K U Y Y G w X X @ @ ................................",
"..........................@ @ X # j A H K W Q ^ Y Y Y I i # X @ @ X @ 2 z H M L Y Y I j @ X @ @ ................................",
"..........................@ @ X # j A H K W Q / Y Y Y I i # X @ @ X @ w A H K L Y Y I N # X @ @ ................................",
"..........................@ @ X # t A H K K Q Y Y Y Y I i # X @ @ X @ t A H K W / Y I B # X @ @ ................................",
"..........................@ @ X @ t A H K K L Y Y Y Y I i # X @ @ X @ d A K W W ^ / I N # X @ @ ................................",
"..........................@ @ X @ 7 B H K K L Y Y Y Y I i # X @ @ X # l J K T W ^ / I d O X @ @ ................................",
"..........................@ @ X @ 2 z Z m K L Y Y Y Y I i # X @ @ X # l J W T ! ( / G r . X @ ..................................",
"..........................@ @ X X - k Z H K L Y Y Y Y I y # X @ @ X $ N L W R ! ~ / G q . X @ ..................................",
"............................@ X X * e B H K U I Y Y Y P y $ X @ @ X & A L R R R ~ / G q . X @ ..................................",
"............................@ X X & 7 k Z H U I / / Y P u & X @ O . , F Q R R ! ~ / G q . X @ ..................................",
"............................@ O X = 2 y v H U I / ) Y J u 1 X X X . q G W R E _ ~ / G 4 X X @ ..................................",
"............................@ O X $ 2 7 p H L I ) | Y Z p 2 X X X X s I ! E E _ ( Y G - X O @ ..................................",
"............................@ @ X # 1 7 6 i H I )  ./ p p 4 X X X @ N Y ! _ _ _ ( Y S & X @ @ ..................................",
"............................@ @ X @ 1 7 4 7 y H Y { K u p e $ X . & F ^ _ _ _ ~ ) I N # X @ @ ..................................",
"............................@ @ X @ - 4 4 7 6 8 v v p p p i $ X . < F ( ` _ _ ( / I d O X @ @ ..................................",
"..............................@ @ X & 1 4 2 7 7 8 u p p p p - X X s I ( ` _ ` ) / G w . X @ ....................................",
"..............................@ @ X # 1 2 2 2 6 8 y u p p p 2   $ A / [ ` ` ) ) Y G 1 X X @ ....................................",
"..............................@ @ X @ - 1 2 2 2 6 8 y y p p y O < I ) [ ` ) ) / Y V & X @ @ ....................................",
"..............................@ @ O O & 1 2 2 2 2 7 8 e y p p k P / ) [ ) ) / / I l + X @ @ ....................................",
"................................@ @ X # : 2 1 2 2 2 7 8 y p k c Y ) ) ) / / / Y G 7 X X @ @ ....................................",
"................................@ @ X @ - 1 1 1 1 2 7 7 e p k c H Y / / / / Y I V * X O @ ......................................",
"................................@ @ O X $ 1 1 1 1 2 2 7 8 y p k n L Y Y Y Y Y G e O X @ @ ......................................",
"..................................@ @ X @ - 1 1 1 2 2 7 7 e p k c m U Y Y Y I Z ; X O @ @ ......................................",
"..................................@ @ O X $ 1 2 1 1 2 6 7 8 y p k c M J P U Z y # X @ @ ........................................",
"....................................@ @ X @ = 1 1 1 2 2 7 7 e p k k n M M m p * X O @ @ ........................................",
"....................................@ @ @ X # - 1 1 1 2 6 7 8 y p k k c c k 2 X X @ @ ..........................................",
"......................................@ @ O O $ , 1 2 2 6 7 8 e y p k k k w # X @ @ @ ..........................................",
"......................................@ @ @ X O $ - 1 2 2 6 7 8 y y p k 7 % X @ @ @ ............................................",
"........................................@ @ @ X O # = - 1 2 7 7 8 8 w 1 # X X @ @ ..............................................",
"..........................................@ @ @ O X @ # & - 1 1 1 - & @ X X @ @ ................................................",
"............................................@ @ @ @ X X O @ @ @ @ O X X O @ @ ..................................................",
"..............................................@ @ @ @ @ X X X X X X O O @ @ ....................................................",
"..................................................@ @ @ @ @ O @ @ @ @ @ @ ......................................................",
"......................................................@ @ @ @ @ @ @ ............................................................",
"................................................................................................................................"
};
