/* XPM */
static char *result[] = {
/* columns rows colors chars-per-pixel */
"64 64 94 2 ",
"   c #300000",
".  c #401000",
"X  c #501000",
"o  c #502000",
"O  c #503000",
"+  c #602000",
"@  c #603000",
"#  c #703000",
"$  c #704000",
"%  c #803000",
"&  c #804000",
"*  c #904000",
"=  c #805000",
"-  c #905000",
";  c #905010",
":  c #A05000",
">  c #806000",
",  c #906000",
"<  c #907000",
"1  c #A06000",
"2  c #B06000",
"3  c #A07000",
"4  c #B07000",
"5  c #C05000",
"6  c #C06000",
"7  c #D06000",
"8  c #C07000",
"9  c #D07000",
"0  c #E07000",
"q  c #F07000",
"w  c #A08000",
"e  c #B08000",
"r  c #B09000",
"t  c #C08000",
"y  c #D08000",
"u  c #C09000",
"i  c #D09000",
"p  c #D09010",
"a  c #E08000",
"s  c #E09000",
"d  c #F09000",
"f  c #C0A000",
"g  c #D0A000",
"h  c #C0B000",
"j  c #D0B000",
"k  c #D0A010",
"l  c #E0A000",
"z  c #F0A000",
"x  c #E0B000",
"c  c #F0B000",
"v  c #F0A010",
"b  c #F0B010",
"n  c #F0B020",
"m  c #F0B030",
"M  c #D0C000",
"N  c #D0C010",
"B  c #E0C000",
"V  c #F0C000",
"C  c #E0D000",
"Z  c #F0D000",
"A  c #F0C010",
"S  c #E0D010",
"D  c #F0D010",
"F  c #F0E000",
"G  c #F0E010",
"H  c #F0F010",
"J  c #F0C020",
"K  c #F0D020",
"L  c #F0C030",
"P  c #F0D030",
"I  c #F0E020",
"U  c #F0F020",
"Y  c #F0E030",
"T  c #F0F030",
"R  c #F0B040",
"E  c #F0B050",
"W  c #F0B060",
"Q  c #F0C040",
"!  c #F0D040",
"~  c #F0C050",
"^  c #F0D050",
"/  c #F0E040",
"(  c #F0F040",
")  c #F0E050",
"_  c #F0F050",
"`  c #F0C060",
"'  c #F0D060",
"]  c #F0C070",
"[  c #F0E060",
"{  c #F0F060",
"}  c #F0F070",
"|  c #F0F080",
" . c #F0F0A0",
".. c None",
/* pixels */
"................................................................................................................................",
"..............................................................@ @ @ @ @ @ ......................................................",
"........................................................@ @ @ @ @ @ + + @ @ @ ..................................................",
"......................................................@ @ @ o o o . o o o + @ @ @ ..............................................",
"..................................................@ @ @ + o o o $ = , = o o o + @ @ ............................................",
"................................................@ @ @ o o $ w f S K K n p , o o o @ @ ..........................................",
"..............................................@ @ @ o o , B H U T ( ) ^ ! L k > X o @ @ ........................................",
"..............................................@ @ o @ w Z U T T / / ) ^ ' ' ! J , . o @ @ ......................................",
"............................................@ @ o o , l V D Y T T Y ! ^ ^ ` ' ^ K < . o @ @ ....................................",
"..........................................@ @ + o & t i a s c I T Y P ! ~ ` ` ' ) G > X @ @ @ ..................................",
"..........................................@ @ o @ 4 t t t t 9 c T T Y ! ~ ~ ` ] ' ( N @ o @ @ ..................................",
"........................................@ @ o o - 8 8 4 4 4 t 9 V T Y ! Q ~ ` ` ] ' U < . + @ @ ................................",
"........................................@ @ o $ 4 8 4 2 1 1 4 8 a I T P Q ~ E ` ` ` ( N @ o @ @ ................................",
"........................................@ + o - 4 4 2 1 , - - 4 9 c T Y Q Q E W ` ` ) U < . + @ ................................",
"......................................@ @ o @ 1 4 4 1 1 , - = = 4 s I Y P Q E E ` ` ' T M @ o @ @ ..............................",
"......................................@ @ o $ 4 4 2 1 1 , , - $ = 8 V T P Q E E W ` ` ( H = X @ @ ..............................",
"......................................@ + o - 4 4 2 1 1 1 1 , , # # i U P Q Q E W ` ` ) U r X + @ ..............................",
"....................................@ @ o + - 4 2 1 1 1 1 1 1 - + o 2 G Y L Q E E W ` ^ T M @ o @ @ ............................",
"....................................@ @ o # 1 4 2 2 1 1 1 2 1 & o o & V Y L Q R E W ` ^ ( H = . @ @ ............................",
"....................................@ @ o $ 2 4 2 1 : 1 2 4 2 # o o + i I L L R E E ~ ^ _ U r o o @ @ ..........................",
"....................................@ + o = 4 4 1 1 : 2 2 8 : @ o o + 4 I P L Q E E ~ ^ ) T C $ o @ ............................",
"....................................@ o o - 8 4 1 1 1 2 8 8 - o + o o : D P L Q E E ~ ^ ) T G = X @ @ ..........................",
"..................................@ @ o @ 1 8 2 1 1 1 2 8 8 & o @ + o - A P L L R E ~ ^ ) T H > X @ @ ..........................",
"..................................@ @ o $ 4 8 2 2 1 2 6 8 8 $ o @ + o # x I L L Q ~ ~ ^ ) ( H w o o @ ..........................",
"....................................@ o # 4 8 8 2 2 2 8 8 2 @ o @ @ o + g I L L Q ~ ~ ^ / ( U u o o @ ..........................",
"..................................@ @ o # 8 9 8 2 6 8 8 y 1 o o @ @ o + u K J L Q Q ~ ! / ( U j @ o @ @ ........................",
"..................................@ @ o # 8 a s s 7 7 y y 1 + o @ @ o @ t K J L Q Q Q ! ( ( U C $ o @ @ ........................",
"..................................@ + o & y c A K I v q a 1 o o @ @ o @ t D J J Q Q Q ! ( ( U F & o @ @ ........................",
"..................................@ + o - z A J I ( | n 0 - o + @ @ o o 4 D J J L Q Q ! ( ( U F & o @ @ ........................",
"..................................@ + o - c A m P T { T a & o @ @ @ o o 1 A J J L Q Q / ( T U Z & o @ @ ........................",
"..................................@ + o - c A m P T U U b # o @ @ @ o o - A K J L Q Q / ( T U Z & o @ @ ........................",
"..................................@ o o 1 V J L P T T U V % o @ ..@ o o - A K J L Q Q / T T U Z & o @ @ ........................",
"..................................@ o o 1 V J L Q ( T U Z % o @ @ @ o o - c D J L L L Y T T U Z % o @ @ ........................",
"..................................@ + o 1 A J Q Q / ( T G & X @ @ @ o o - c A J L L P T T T U V % o @ @ ........................",
"..................................@ + o 1 A J Q Q ! ( T H 3 o + @ @ + o - c D J J L P T T T U x # o @ @ ........................",
"..................................@ + o , A J Q ~ ^ ) ( H e o o @ @ o @ 1 c D n L L P T T T U s # o @ @ ........................",
"..................................@ + o - A J Q E ~ ) ( H r o o @ @ o @ 2 c D n n L Y T T T U a # o @ @ ........................",
"..................................@ @ o $ b J Q E ~ ^ ( U r o o @ @ o # 4 c A b J L Y U ( ( D 7 $ o @ @ ........................",
"..................................@ @ o # x K Q E W ` _ U f o o @ @ o # 4 z A b J P T U { _ z 5 @ o @ @ ........................",
"....................................@ o # x K Q E W ` ) T B # o @ @ o # 8 z c b J P I T  .) 0 : o o @ ..........................",
"..................................@ @ o @ g K Q E W ` ' ( G & X @ + o & 8 z c A J P U _ } d 0 1 o o @ ..........................",
"..................................@ @ o o t I Q E W ` ' ( H = X @ o o - y z c b n L T ( b 0 y & o + @ ..........................",
"....................................@ O X 3 G ! ~ W ] ' _ U w o o o o : y d c z z K Y b q a 8 # o @ @ ..........................",
"....................................@ + o - G P ~ ` ` ' { T h o o o @ 4 y a s a a s a 0 a y 4 # o @ @ ..........................",
"....................................@ @ o # V Y ! ~ ` ' [ ( G $ X o $ 8 y 9 8 8 8 6 9 y 9 8 1 + o @ @ ..........................",
"....................................@ @ o + g U ! ^ ^ ` ' _ U < X o - t y 8 8 8 8 8 8 8 8 8 & o + @ ............................",
"....................................@ @ o X 4 H Y ! ) ^ ' { T f   o 2 y 9 8 8 2 2 2 6 8 8 2 # o @ @ ............................",
"......................................@ + o * G T / ( ) ^ [ _ I < - 8 y 8 8 2 2 2 2 2 8 8 : + o @ @ ............................",
"......................................@ @ o + l U / ( ( ( ) _ _ G y y 9 8 2 2 2 2 2 2 8 4 & o + @ ..............................",
"......................................@ @ o o 1 H T / ( T T ( T l s y 8 8 2 2 2 2 2 2 8 2 # o @ @ ..............................",
"........................................@ @ o # x U T T T T T c s a 8 8 2 2 1 1 1 2 6 8 - + o @ @ ..............................",
"........................................@ @ o + 2 D T T T T A d s y 8 2 2 2 1 1 1 2 6 2 & o + @ ................................",
"........................................@ @ + o # y D I D c z s y 8 4 2 2 1 1 1 2 2 2 ; + o @ @ ................................",
"..........................................@ @ o + * y c z z s y 8 8 2 2 1 1 1 1 2 2 1 # o @ @ @ ................................",
"..........................................@ @ @ o + 1 y s a y t 8 2 2 2 1 1 1 2 2 1 & o o @ @ ..................................",
"............................................@ @ @ o # 1 8 t 8 8 4 2 2 2 2 1 2 2 1 & + o @ @ ....................................",
"..............................................@ @ o o $ 1 4 4 4 2 2 1 2 1 1 1 1 & + o @ @ @ ....................................",
"..............................................@ @ @ o o # - 1 1 1 1 1 1 1 - & $ + o @ @ @ ......................................",
"................................................@ @ @ o o @ # & = - - - & # + o o @ @ @ ........................................",
"..................................................@ @ @ + o o + @ @ @ @ + o o @ @ @ @ ..........................................",
"....................................................@ @ @ @ @ + o o o o o @ @ @ @ @ ............................................",
"......................................................@ @ @ @ @ @ @ @ @ @ @ @ @ ................................................",
"..............................................................@ @ @ @ @ @ @ ....................................................",
"................................................................................................................................"
};
