/* XPM */
static char *result[] = {
/* columns rows colors chars-per-pixel */
"64 64 109 2 ",
"   c #401000",
".  c #501000",
"X  c #502000",
"o  c #503000",
"O  c #602000",
"+  c #702000",
"@  c #603000",
"#  c #703000",
"$  c #604000",
"%  c #704000",
"&  c #705000",
"*  c #803000",
"=  c #804000",
"-  c #904000",
";  c #805000",
":  c #905000",
">  c #804010",
",  c #905010",
"<  c #A05000",
"1  c #B05000",
"2  c #A05010",
"3  c #906000",
"4  c #907000",
"5  c #A06000",
"6  c #B06000",
"7  c #A07000",
"8  c #B07000",
"9  c #B07010",
"0  c #C05000",
"q  c #C06000",
"w  c #D06000",
"e  c #C07000",
"r  c #D07000",
"t  c #E06000",
"y  c #E07000",
"u  c #A08000",
"i  c #B08000",
"p  c #B09000",
"a  c #B08010",
"s  c #C08000",
"d  c #D08000",
"f  c #C09000",
"g  c #D09000",
"h  c #C08010",
"j  c #C09010",
"k  c #D09010",
"l  c #E08000",
"z  c #E09000",
"x  c #F09000",
"c  c #C0A000",
"v  c #D0A000",
"b  c #C0B000",
"n  c #D0B000",
"m  c #C0A010",
"M  c #D0A010",
"N  c #D0B010",
"B  c #E0A000",
"V  c #F0A000",
"C  c #E0B000",
"Z  c #F0B000",
"A  c #E0A010",
"S  c #F0A010",
"D  c #E0B010",
"F  c #F0B010",
"G  c #E0A020",
"H  c #E0B020",
"J  c #F0B020",
"K  c #F0B030",
"L  c #D0C000",
"P  c #D0C010",
"I  c #E0C000",
"U  c #F0C000",
"Y  c #E0D000",
"T  c #F0D000",
"R  c #E0C010",
"E  c #F0C010",
"W  c #F0D010",
"Q  c #F0E000",
"!  c #F0F000",
"~  c #E0E010",
"^  c #F0E010",
"/  c #F0F010",
"(  c #F0C020",
")  c #F0D020",
"_  c #F0C030",
"`  c #F0D030",
"'  c #F0E020",
"]  c #F0F020",
"[  c #F0E030",
"{  c #F0F030",
"}  c #F0B040",
"|  c #F0B050",
" . c #F0B060",
".. c #F0C040",
"X. c #F0D040",
"o. c #F0C050",
"O. c #F0D050",
"+. c #F0E040",
"@. c #F0F040",
"#. c #F0E050",
"$. c #F0F050",
"%. c #F0C060",
"&. c #F0D060",
"*. c #F0C070",
"=. c #F0D070",
"-. c #F0F060",
";. c #F0F080",
":. c #F0F090",
">. c None",
/* pixels */
">.>.>.>.>.>.>.>.>.>.>.>.>.>.>.>.>.>.>.>.>.>.>.>.>.>.>.>.>.>.>.>.>.>.>.>.>.>.>.>.>.>.>.>.>.>.>.>.>.>.>.>.>.>.>.>.>.>.>.>.>.>.>.>.",
">.>.>.>.>.>.>.>.>.>.>.>.>.>.>.>.>.>.>.>.>.>.>.>.>.>.>.>.>.>.>.@ @ @ @ @ @ @ @ >.>.>.>.>.>.>.>.>.>.>.>.>.>.>.>.>.>.>.>.>.>.>.>.>.",
">.>.>.>.>.>.>.>.>.>.>.>.>.>.>.>.>.>.>.>.>.>.>.>.>.>.@ @ @ @ @ @ @ @ @ @ @ @ @ @ @ @ >.>.>.>.>.>.>.>.>.>.>.>.>.>.>.>.>.>.>.>.>.>.",
">.>.>.>.>.>.>.>.>.>.>.>.>.>.>.>.>.>.>.>.>.>.>.@ @ @ @ @ @ X X X X X X X X X X O @ @ @ @ @ >.>.>.>.>.>.>.>.>.>.>.>.>.>.>.>.>.>.>.",
">.>.>.>.>.>.>.>.>.>.>.>.>.>.>.>.>.>.>.>.>.@ @ @ @ O X X   X X @ ; ; ; ; ; % X X   X X @ @ @ @ >.>.>.>.>.>.>.>.>.>.>.>.>.>.>.>.>.",
">.>.>.>.>.>.>.>.>.>.>.>.>.>.>.>.>.>.>.>.@ @ @ O X X X % ; 9 h A J J K K K H k 5 ; @ X X X @ @ @ @ >.>.>.>.>.>.>.>.>.>.>.>.>.>.>.",
">.>.>.>.>.>.>.>.>.>.>.>.>.>.>.>.>.>.@ @ @ @ X   @ 3 j D ( _ _ ....o.| | o.o.o...K G a ; X X O @ @ @ >.>.>.>.>.>.>.>.>.>.>.>.>.>.",
">.>.>.>.>.>.>.>.>.>.>.>.>.>.>.>.>.@ @ @ O   o 3 M ( _ ..................| |  . .%.o...J a $   X @ @ @ >.>.>.>.>.>.>.>.>.>.>.>.>.",
">.>.>.>.>.>.>.>.>.>.>.>.>.>.>.>.@ @ @ X X % j ( _ _ .._ _ _ _ _ _ _ _ _ ....} | |  .%.%...G 4 o X @ @ @ >.>.>.>.>.>.>.>.>.>.>.>.",
">.>.>.>.>.>.>.>.>.>.>.>.>.>.>.@ @ @ X X 7 F ( _ _ _ ( ( ( ( ( ( ( ( ( ( ( _ _ ....| |  .%.o._ j @ . @ @ @ >.>.>.>.>.>.>.>.>.>.>.",
">.>.>.>.>.>.>.>.>.>.>.>.>.>.@ @ O   @ f E ( _ ( ( ( ( E F V z V V V F E ) ( ( ( _ ..} |  .%.%._ M @ . @ @ @ >.>.>.>.>.>.>.>.>.>.",
">.>.>.>.>.>.>.>.>.>.>.>.>.@ @ O . @ c E ( ( ( ( E V l r q 6 6 6 6 6 q d z F E ( ( _ ....| | %.%._ M @   O @ @ >.>.>.>.>.>.>.>.>.",
">.>.>.>.>.>.>.>.>.>.>.>.@ @ O . & n E ( ( ( ( S d 6 < < 5 5 5 5 5 5 5 6 6 q d F ) ( _ _ ..| |  .%._ M @ X @ @ @ >.>.>.>.>.>.>.>.",
">.>.>.>.>.>.>.>.>.>.>.@ @ @ . @ v E ( ( ( E d 6 < 5 5 5 5 5 5 5 5 5 5 5 6 6 6 q z E ( ( _ ..| | %.%.` N $ . @ @ @ >.>.>.>.>.>.>.",
">.>.>.>.>.>.>.>.>.>.@ @ @ . @ c E ( ( ( F r < 5 5 < 5 5 5 3 : ; ; = ; ; : 5 6 6 6 r F ( ( _ ..| | %.%.[ m X X @ @ >.>.>.>.>.>.>.",
">.>.>.>.>.>.>.>.>.>.@ @ X @ c W ( ( ( F q < 5 5 6 6 5 : = # @ O O O O O @ % ; 5 6 6 r F ( ( _ ..| | %.O.' u . O @ @ >.>.>.>.>.>.",
">.>.>.>.>.>.>.>.>.@ @ X X u W ( ( ( ( r < 5 5 6 6 3 = @ O X X X X X X X X X O # : 5 6 r F ( ( _ ..| o.%.+.W &   @ @ @ >.>.>.>.>.",
">.>.>.>.>.>.>.>.>.@ @ . % E ( ( ( ) z 1 6 6 6 6 3 % O X X @ @ @ @ @ @ @ @ @ X X O = 5 6 d E ( _ ..o.o.o.O.{ b X X @ @ >.>.>.>.>.",
">.>.>.>.>.>.>.>.@ @ X X i W ( ( ` F q 5 6 6 6 : # X X @ @ @ @ @ @ @ @ @ @ @ @ @ X X % 5 6 z E ( _ ..o.o.o.#.] 4   @ @ @ >.>.>.>.",
">.>.>.>.>.>.>.>.@ @ . % F ( ( ( ` l 1 6 6 6 5 # X X @ @ @ @ >.>.>.>.>.>.>.@ @ @ @ X X % 5 e Z ( ( ....o.o.O.{ P @ X @ @ >.>.>.>.",
">.>.>.>.>.>.>.@ @ X X i W ( J ` ) r 6 6 q 6 > X X @ @ @ >.>.>.>.>.>.>.>.>.>.>.@ @ @ X X = 5 l E ( _ ....o.O.+./ 4 . O @ >.>.>.>.",
">.>.>.>.>.>.>.@ @ X % D E ( _ [ F q 6 e e 2 O X @ @ @ >.>.>.>.>.>.>.>.>.>.>.>.>.@ @ @ X O : e V ( ( _ ..o.O.#.] b X X @ @ >.>.>.",
">.>.>.>.>.>.>.@ O X 3 E E J _ { z q e e e = X O @ @ >.>.>.>.>.>.>.>.>.>.>.>.>.>.>.@ @ @ X # 5 l E ( _ ....O.#.{ ~ % . @ @ >.>.>.",
">.>.>.>.>.>.>.@ X X i E ( K ` { F q e e < O X @ @ >.>.>.>.>.>.>.>.>.>.>.>.>.>.>.>.>.@ @ X O = e E ( _ ....o.O.@./ 4 . O @ >.>.>.",
">.>.>.>.>.>.@ @ X @ g E J _ [ { F w e e % X @ @ @ >.>.>.>.>.>.>.>.>.>.>.>.>.>.>.>.>.>.@ @ X # 6 Z ) ( _ ....X.@.] c X X @ @ >.>.",
">.>.>.>.>.>.@ @ X = Z E J _ [ { F t d 6 @ X @ @ >.>.>.>.>.>.>.>.>.>.>.>.>.>.>.>.>.>.>.@ @ X O : z W ( _ ....X.@.{ Y % X @ @ >.>.",
">.>.>.>.>.>.@ O X 7 U E _ _ ] -.O.y d : X O @ >.>.>.>.>.>.>.>.>.>.>.>.>.>.>.>.>.>.>.>.>.@ O X = d E ( _ ....X.@.{ ^ ; . @ @ >.>.",
">.>.>.>.>.>.@ X X 8 E ( _ ` ] -.O.y d = X @ @ >.>.>.>.>.>.>.>.>.>.>.>.>.>.>.>.>.>.>.>.>.@ @ X # e U ( _ _ ..X.@.{ / 4 . O @ >.>.",
">.>.>.>.>.>.@ X X 8 E ( _ ` { @.{ x r % X @ @ >.>.>.>.>.>.>.>.>.>.>.>.>.>.>.>.>.>.>.>.>.@ @ X @ e E ( ( _ ..X.@.@./ p X X @ >.>.",
">.>.>.>.>.>.@ X X 8 U ( _ ` { { { V q @ X @ >.>.>.>.>.>.>.>.>.>.>.>.>.>.>.>.>.>.>.>.>.>.@ @ X @ 8 E ( ( _ ..X.@.{ / p X X @ >.>.",
">.>.>.>.>.@ @ X X i U ( _ ` { { { E 1 X X @ >.>.>.>.>.>.>.>.>.>.>.>.>.>.>.>.>.>.>.>.>.>.>.@ X @ 6 E ) ( _ ..X.@.{ ] c X X @ @ >.",
">.>.>.>.>.@ @ X @ g E _ _ ` { { { W 1 X X @ >.>.>.>.>.>.>.>.>.>.>.>.>.>.>.>.>.>.>.>.>.>.@ @ X X < F ) ( _ ..X.@.{ ] I # X @ @ >.",
">.>.>.>.>.@ @ X @ f E _ ..X.@.{ { / 6 X X @ >.>.>.>.>.>.>.>.>.>.>.>.>.>.>.>.>.>.>.>.>.>.@ @ X X 5 E ( ( _ ..X.{ { ] Y % X @ @ >.",
">.>.>.>.>.@ @ X X 8 E ( ..X.@.{ { / s . X @ >.>.>.>.>.>.>.>.>.>.>.>.>.>.>.>.>.>.>.>.>.>.>.@ X @ s W ( ( _ _ +.{ { ] v O X @ @ >.",
">.>.>.>.>.>.@ X X 5 U ( ..X.+.@.{ / v O X @ >.>.>.>.>.>.>.>.>.>.>.>.>.>.>.>.>.>.>.>.>.>.@ @ X # v W ( ( _ _ [ { { / s . X @ >.>.",
">.>.>.>.>.>.@ X X 5 U ( ....+.@.@.] T # X @ @ >.>.>.>.>.>.>.>.>.>.>.>.>.>.>.>.>.>.>.>.>.@ @ X # C W ( ( _ _ [ { { / 8 X X @ >.>.",
">.>.>.>.>.>.@ O X : Z ( ....X.@.@.{ ! ; . @ @ >.>.>.>.>.>.>.>.>.>.>.>.>.>.>.>.>.>.>.>.>.@ @ X = U ) ( ( _ _ { { { ^ < X X @ >.>.",
">.>.>.>.>.>.@ @ X % B E _ ..X.+.@.@./ u . O @ >.>.>.>.>.>.>.>.>.>.>.>.>.>.>.>.>.>.>.>.@ @ X X i ^ ( ( ( _ ` { { { F * X O @ >.>.",
">.>.>.>.>.>.@ @ X O d E _ ....O.#.@.] n @ X @ @ >.>.>.>.>.>.>.>.>.>.>.>.>.>.>.>.>.>.>.@ @ X @ C ) ( ( _ _ ` ] @.@.d + X @ @ >.>.",
">.>.>.>.>.>.@ @ X X 5 U ( ..o.o.O.$.{ Q & . @ @ >.>.>.>.>.>.>.>.>.>.>.>.>.>.>.>.>.>.>.@ @   3 W ) ( ( _ _ [ ] -.` 1 @ X @ @ >.>.",
">.>.>.>.>.>.>.@ @ X = V ( ....o.O.O.@.] 4   @ @ >.>.>.>.>.>.>.>.>.>.>.>.>.>.>.>.>.>.@ @ X O v ^ _ ( ( _ ` ] $.;.l - X X @ >.>.>.",
">.>.>.>.>.>.>.@ @ X O d W _ ..o.o.o.#.{ I O . @ @ >.>.>.>.>.>.>.>.>.>.>.>.>.>.>.>.@ @ O . 3 W ) ( ( _ _ [ ] :...0 = X O @ >.>.>.",
">.>.>.>.>.>.>.@ @ X O 5 U ( ..o.o.o.%.$.] u   X @ @ >.>.>.>.>.>.>.>.>.>.>.>.>.>.@ @ @   % I ' _ ( ( K _ ] $.$.y < @ X @ @ >.>.>.",
">.>.>.>.>.>.>.@ @ O X # z W _ ..| | %.&.@.^ 3 . O @ @ >.>.>.>.>.>.>.>.>.>.>.>.@ @ @ . O v ^ ` ( ( ( K ` { @.x q : X O @ @ >.>.>.",
">.>.>.>.>.>.>.>.@ @ X O < Z ( ..o.| %.%.%.@.^ &   O @ @ @ >.>.>.>.>.>.>.>.@ @ @ O . @ c ^ [ _ ( ( K _ [ { F w 6 # X @ @ >.>.>.>.",
">.>.>.>.>.>.>.>.@ @ O X # d W _ ..| |  .%.&.+.N @   X @ @ @ @ @ @ @ @ @ @ @ @ O . @ c / ' ` ( ( J _ [ { ( w 8 : @ X @ @ >.>.>.>.",
">.>.>.>.>.>.>.>.>.@ @ X O : Z ) _ ..| | %.*.&.X.R 3 X   X X @ @ @ @ @ @ O X     % L / [ ` ( ( ( J ` { ( w 6 5 # X @ @ >.>.>.>.>.",
">.>.>.>.>.>.>.>.>.@ @ @ X # 6 Z ) _ ..| |  .*.&.X.) j ; X X   . . . .     @ & 7 I ] [ ` _ ( ( J ` { F w 6 6 = X O @ @ >.>.>.>.>.",
">.>.>.>.>.>.>.>.>.>.@ @ X O % e E ( _ ..| |  .%.=.&.X.( M a : ; ; ; ; ; 7 N ^ / ' [ ` _ ( ( J ` [ S 0 q 8 2 O X @ @ >.>.>.>.>.>.",
">.>.>.>.>.>.>.>.>.>.@ @ @ X O = d E ( _ ..} | |  .%.%.O.X.` ` ) ) ) ' ' ' ] [ +.` _ _ ( ( ( ` ) l 0 6 8 5 # X @ @ >.>.>.>.>.>.>.",
">.>.>.>.>.>.>.>.>.>.>.@ @ @ X @ : d E ) _ ....} | |  .%.%.O.O.O.X.+.+.+.X.X.X..._ ( ( ( ( ` E r 1 6 8 5 = X X @ @ >.>.>.>.>.>.>.",
">.>.>.>.>.>.>.>.>.>.>.>.@ @ @ X @ : e Z ) _ _ ....} } | | o.o.o.o.o.X......._ _ ( ( ( ) ) V q 6 6 6 5 = O X @ @ >.>.>.>.>.>.>.>.",
">.>.>.>.>.>.>.>.>.>.>.>.>.@ @ O X @ = 6 V E ) _ _ _ .................._ _ _ ( ( ( ) ( F d 6 6 6 6 < = X X @ @ @ >.>.>.>.>.>.>.>.",
">.>.>.>.>.>.>.>.>.>.>.>.>.@ @ @ O X @ = 5 d V E ) _ _ _ _ _ _ _ _ _ _ _ ( ( ( ( ( F d q 6 6 6 6 : # X X @ @ @ >.>.>.>.>.>.>.>.>.",
">.>.>.>.>.>.>.>.>.>.>.>.>.>.@ @ @ @ X O % : 5 d V E ( ( ( ( ( ( ( ( ( ( ( ( E F d q 6 6 6 5 5 , # X X @ @ @ >.>.>.>.>.>.>.>.>.>.",
">.>.>.>.>.>.>.>.>.>.>.>.>.>.>.@ @ @ @ X O @ = : 5 e d z F F F F F F F F z d e 6 6 5 5 5 5 : = @ X O @ @ @ >.>.>.>.>.>.>.>.>.>.>.",
">.>.>.>.>.>.>.>.>.>.>.>.>.>.>.>.>.@ @ @ X X O # = : : < 6 e e e e e e 6 6 < 5 5 5 5 5 : > # X X @ @ @ >.>.>.>.>.>.>.>.>.>.>.>.>.",
">.>.>.>.>.>.>.>.>.>.>.>.>.>.>.>.>.>.@ @ @ @ X X O @ % = : : : < < < < 5 5 < 5 : : ; = # O X O @ @ @ >.>.>.>.>.>.>.>.>.>.>.>.>.>.",
">.>.>.>.>.>.>.>.>.>.>.>.>.>.>.>.>.>.>.@ @ @ @ @ X X X O @ # = = : : : : : ; = # @ @ O X X @ @ @ @ >.>.>.>.>.>.>.>.>.>.>.>.>.>.>.",
">.>.>.>.>.>.>.>.>.>.>.>.>.>.>.>.>.>.>.>.>.@ @ @ @ @ O X X X O @ @ @ @ @ @ @ O X X X O @ @ @ @ >.>.>.>.>.>.>.>.>.>.>.>.>.>.>.>.>.",
">.>.>.>.>.>.>.>.>.>.>.>.>.>.>.>.>.>.>.>.>.>.>.@ @ @ @ @ @ @ O X X X X X X X O @ @ @ @ @ @ @ >.>.>.>.>.>.>.>.>.>.>.>.>.>.>.>.>.>.",
">.>.>.>.>.>.>.>.>.>.>.>.>.>.>.>.>.>.>.>.>.>.>.>.>.>.@ @ @ @ @ @ @ @ @ @ @ @ @ @ @ @ @ >.>.>.>.>.>.>.>.>.>.>.>.>.>.>.>.>.>.>.>.>.",
">.>.>.>.>.>.>.>.>.>.>.>.>.>.>.>.>.>.>.>.>.>.>.>.>.>.>.>.>.>.@ @ @ @ @ @ @ @ @ >.>.>.>.>.>.>.>.>.>.>.>.>.>.>.>.>.>.>.>.>.>.>.>.>.",
">.>.>.>.>.>.>.>.>.>.>.>.>.>.>.>.>.>.>.>.>.>.>.>.>.>.>.>.>.>.>.>.>.>.>.>.>.>.>.>.>.>.>.>.>.>.>.>.>.>.>.>.>.>.>.>.>.>.>.>.>.>.>.>."
};
