/* XPM */
static char *result[] = {
/* columns rows colors chars-per-pixel */
"64 64 114 2 ",
"   c #401000",
".  c #501000",
"X  c #502000",
"o  c #503000",
"O  c #602000",
"+  c #603000",
"@  c #703000",
"#  c #604000",
"$  c #704000",
"%  c #705000",
"&  c #802000",
"*  c #803000",
"=  c #804000",
"-  c #904000",
";  c #805000",
":  c #905000",
">  c #804010",
",  c #904010",
"<  c #905010",
"1  c #A05000",
"2  c #B05000",
"3  c #A05010",
"4  c #806000",
"5  c #906000",
"6  c #907000",
"7  c #A06000",
"8  c #B06000",
"9  c #A07000",
"0  c #B07000",
"q  c #B07010",
"w  c #C05000",
"e  c #C06000",
"r  c #D06000",
"t  c #C07000",
"y  c #D07000",
"u  c #E06000",
"i  c #E07000",
"p  c #A08000",
"a  c #B08000",
"s  c #B09000",
"d  c #B08010",
"f  c #C08000",
"g  c #D08000",
"h  c #C09000",
"j  c #D09000",
"k  c #C08010",
"l  c #D08010",
"z  c #C09010",
"x  c #D09010",
"c  c #E08000",
"v  c #E09000",
"b  c #F09000",
"n  c #E09010",
"m  c #F09010",
"M  c #C0A000",
"N  c #C0B000",
"B  c #D0B000",
"V  c #C0A010",
"C  c #D0A010",
"Z  c #D0B010",
"A  c #E0A000",
"S  c #F0A000",
"D  c #E0B000",
"F  c #F0B000",
"G  c #E0A010",
"H  c #F0A010",
"J  c #E0B010",
"K  c #F0B010",
"L  c #C08020",
"P  c #E09020",
"I  c #F09020",
"U  c #E0A020",
"Y  c #F0A020",
"T  c #E0B020",
"R  c #F0B020",
"E  c #F0B030",
"W  c #D0C000",
"Q  c #F0C000",
"!  c #E0D000",
"~  c #F0D000",
"^  c #E0C010",
"/  c #F0C010",
"(  c #E0D010",
")  c #F0D010",
"_  c #F0E000",
"`  c #F0F000",
"'  c #F0E010",
"]  c #F0F010",
"[  c #F0C020",
"{  c #F0D020",
"}  c #F0C030",
"|  c #F0D030",
" . c #F0E020",
".. c #F0F020",
"X. c #F0E030",
"o. c #F0F030",
"O. c #F0B040",
"+. c #F0B050",
"@. c #F0B060",
"#. c #F0C040",
"$. c #F0D040",
"%. c #F0C050",
"&. c #F0D050",
"*. c #F0E040",
"=. c #F0F040",
"-. c #F0E050",
";. c #F0F050",
":. c #F0C060",
">. c #F0D060",
",. c #F0C070",
"<. c #F0F060",
"1. c #F0F070",
"2. c #F0F080",
"3. c None",
/* pixels */
"3.3.3.3.3.3.3.3.3.3.3.3.3.3.3.3.3.3.3.3.3.3.3.3.3.3.3.3.3.3.3.3.3.3.3.3.3.3.3.3.3.3.3.3.3.3.3.3.3.3.3.3.3.3.3.3.3.3.3.3.3.3.3.3.",
"3.3.3.3.3.3.3.3.3.3.3.3.3.3.3.3.3.3.3.3.3.3.3.3.3.3.3.3.3.3.+ + + + + + 3.3.3.3.3.3.3.3.3.3.3.3.3.3.3.3.3.3.3.3.3.3.3.3.3.3.3.3.",
"3.3.3.3.3.3.3.3.3.3.3.3.3.3.3.3.3.3.3.3.3.3.3.3.3.+ + + + + + + + + + + + + + + + + 3.3.3.3.3.3.3.3.3.3.3.3.3.3.3.3.3.3.3.3.3.3.",
"3.3.3.3.3.3.3.3.3.3.3.3.3.3.3.3.3.3.3.3.3.3.3.+ + + + + X X X X X X X X X X X + + + + + + 3.3.3.3.3.3.3.3.3.3.3.3.3.3.3.3.3.3.3.",
"3.3.3.3.3.3.3.3.3.3.3.3.3.3.3.3.3.3.3.3.+ + + + + X X   X X X $ ; ; ; + X X X   X X O + + + + 3.3.3.3.3.3.3.3.3.3.3.3.3.3.3.3.3.",
"3.3.3.3.3.3.3.3.3.3.3.3.3.3.3.3.3.3.3.+ + + O X   X $ : q k l Y E E E P L k q : $ X X . X + + + + 3.3.3.3.3.3.3.3.3.3.3.3.3.3.3.",
"3.3.3.3.3.3.3.3.3.3.3.3.3.3.3.3.3.+ + + + X   + ; k U E E E O.+.+.+.+.+.+.O.#.} R x 7 $ X X O + + + 3.3.3.3.3.3.3.3.3.3.3.3.3.3.",
"3.3.3.3.3.3.3.3.3.3.3.3.3.3.3.3.+ + + X X + 5 x R E #.#.%.%.#.#.%.%.+.+.+.@.@.:.:.%.#.R d #   X + + + 3.3.3.3.3.3.3.3.3.3.3.3.3.",
"3.3.3.3.3.3.3.3.3.3.3.3.3.3.3.+ + + X X ; C [ } #.#.#.#.#.#.} } } #.#.#.#.+.+.+.@.@.:.%.#.U 6 o   O + + 3.3.3.3.3.3.3.3.3.3.3.3.",
"3.3.3.3.3.3.3.3.3.3.3.3.3.3.+ + O   + a K } #.#.} } } } } } } } } } } } } } #.#.%.+.@.@.:.%.} C % X X + + 3.3.3.3.3.3.3.3.3.3.3.",
"3.3.3.3.3.3.3.3.3.3.3.3.3.+ + X X $ x [ } } } } } } | | [ [ K K K K / [ { } } } } #.+.+.@.:.:.#.[ 5   X + + 3.3.3.3.3.3.3.3.3.3.",
"3.3.3.3.3.3.3.3.3.3.3.3.+ + X   5 K [ } } } } } | [ G v g t 8 8 e t t y v K [ { } } #.#.%.+.:.:.#.[ 6   X + + 3.3.3.3.3.3.3.3.3.",
"3.3.3.3.3.3.3.3.3.3.3.+ + X   5 K [ } } E } | [ n t 2 1 1 1 1 1 1 1 1 1 1 8 t v / { } } #.%.%.:.:.#.{ 6   X + + 3.3.3.3.3.3.3.3.",
"3.3.3.3.3.3.3.3.3.3.+ + X   5 K [ } } E | { v e 1 1 7 7 7 7 7 7 7 7 7 7 7 7 1 1 t H [ [ } #.%.%.:.:.$.{ 6   X + + 3.3.3.3.3.3.3.",
"3.3.3.3.3.3.3.3.3.+ + O X 4 K [ } } E | { g 1 7 7 7 8 7 7 : : ; ; ; ; : : 7 7 7 7 8 g K [ } #.#.%.%.%.$.) 5 . O + + 3.3.3.3.3.3.",
"3.3.3.3.3.3.3.3.+ + +   $ J [ } } E X.{ e 1 7 8 8 7 7 ; $ + + O + O O + + $ ; 7 7 8 1 t K [ } #.#.%.%.%.*.) $   + + + 3.3.3.3.3.",
"3.3.3.3.3.3.3.3.+ + X + h [ } [ E X.{ e 1 8 8 8 7 ; @ + X X X X X X X X X X O + ; 7 8 7 t K [ } #.#.%.%.&.o.N X X + + 3.3.3.3.3.",
"3.3.3.3.3.3.3.+ + X X a / [ } E | o.y 2 8 8 8 : $ O X X O + + + + + + + + + X X O $ : 7 8 y K [ } #.%.%.&.-...9 . O + + 3.3.3.3.",
"3.3.3.3.3.3.3.+ + . $ K [ } E } o.v 2 8 e 8 : @ X X + + + + + + + + + + + + + + X X + : 8 8 g / [ } #.%.%.&.o.' $ . + + 3.3.3.3.",
"3.3.3.3.3.3.+ + X X a / [ E } o. .w 8 e t 3 @ X X + + + + 3.3.3.3.3.3.3.3.+ + + + + X + : 7 8 S [ [ #.#.%.&.-...s X X + + 3.3.3.",
"3.3.3.3.3.3.+ O X ; K [ [ E | o.K w t t 7 @ X X + + + 3.3.3.3.3.3.3.3.3.3.3.3.+ + + + X + : 8 y / [ } #.#.&.&.=.' $ . + + 3.3.3.",
"3.3.3.3.3.+ + X X h / [ } } o...y 8 t 0 = X X + + 3.3.3.3.3.3.3.3.3.3.3.3.3.3.3.+ + + + X @ 7 e b [ [ } #.$.&.=...s . O + 3.3.3.",
"3.3.3.3.3.+ + X $ D [ } } | o.) r t t : O X + + 3.3.3.3.3.3.3.3.3.3.3.3.3.3.3.3.3.3.+ + X X > 0 y K [ } #.#.$.-.o.W + X + + 3.3.",
"3.3.3.3.3.+ O X 5 / [ } } ..=.[ r t 8 @ X + + + 3.3.3.3.3.3.3.3.3.3.3.3.3.3.3.3.3.3.3.+ + X + 5 t S [ [ #.#.$.*.=.] ;   + + 3.3.",
"3.3.3.3.3.+ X X a / [ E | ..;.Y r f : X X + + 3.3.3.3.3.3.3.3.3.3.3.3.3.3.3.3.3.3.3.3.+ + O X = 8 S / [ } #.$.*.=...s X X + + 3.",
"3.3.3.3.3.+ X + j / [ E | o.1.I y t $ X + + 3.3.3.3.3.3.3.3.3.3.3.3.3.3.3.3.3.3.3.3.3.3.+ + X + 7 v / [ } #.$.*.=...! $ X + + 3.",
"3.3.3.3.+ + X $ D / } } X.o.2.Y y 8 + X + + 3.3.3.3.3.3.3.3.3.3.3.3.3.3.3.3.3.3.3.3.3.3.+ + X O : g F [ [ } $.*.=.o.' % . + + 3.",
"3.3.3.3.+ + X ; F [ } } o.o.=.H y : X X + 3.3.3.3.3.3.3.3.3.3.3.3.3.3.3.3.3.3.3.3.3.3.3.3.+ + X $ t F [ [ } #.*.=.o.] 6 . O + 3.",
"3.3.3.3.+ O X 7 / [ } } o.o.o.K i = X + + 3.3.3.3.3.3.3.3.3.3.3.3.3.3.3.3.3.3.3.3.3.3.3.3.+ + X @ 8 Q [ [ } #.*.=.o.] s X X + 3.",
"3.3.3.3.+ X X 9 / [ } | o.o.o.) y $ X + + 3.3.3.3.3.3.3.3.3.3.3.3.3.3.3.3.3.3.3.3.3.3.3.3.+ + X + 0 Q [ [ } #.*.=.o.] s X X + 3.",
"3.3.3.3.+ X X 9 / [ } $.o.o.o. .c $ X + 3.3.3.3.3.3.3.3.3.3.3.3.3.3.3.3.3.3.3.3.3.3.3.3.3.3.+ X + 0 Q [ [ } #.$.=.o...M X X + + ",
"3.3.3.3.+ X X 0 / [ } $.o.o.o...v $ X + + 3.3.3.3.3.3.3.3.3.3.3.3.3.3.3.3.3.3.3.3.3.3.3.3.+ + X O 7 F { [ E } $.=.o...D @ X + + ",
"3.3.3.3.+ X X 7 / [ } $.=.o.o...A @ X + + 3.3.3.3.3.3.3.3.3.3.3.3.3.3.3.3.3.3.3.3.3.3.3.3.+ + X O 8 / [ [ } #.*.o.o...D @ X + + ",
"3.3.3.3.+ X X 7 / [ } $.=.o.o...Q * X + 3.3.3.3.3.3.3.3.3.3.3.3.3.3.3.3.3.3.3.3.3.3.3.3.3.3.+ X + f ) [ [ } #.X.o.o.] f . X + + ",
"3.3.3.3.+ X X : K [ } #.*.o.o...~ = X + + 3.3.3.3.3.3.3.3.3.3.3.3.3.3.3.3.3.3.3.3.3.3.3.3.+ + X @ A ' [ [ } #.X.o.o.] 0 . X + 3.",
"3.3.3.3.+ O X = S [ } #.*.=.=...` ; . + + 3.3.3.3.3.3.3.3.3.3.3.3.3.3.3.3.3.3.3.3.3.3.3.3.+ + X @ F { [ [ } } o.o.o.] 8 X X + 3.",
"3.3.3.3.+ + X @ v / } #.$.=.=.o.] p X X + 3.3.3.3.3.3.3.3.3.3.3.3.3.3.3.3.3.3.3.3.3.3.3.3.+ O X : ~ { [ [ } | o.o.o./ - X O + 3.",
"3.3.3.3.+ + X O g / } #.$.*.=.=...M X X + + 3.3.3.3.3.3.3.3.3.3.3.3.3.3.3.3.3.3.3.3.3.3.+ + X O j ' } [ } } | o.o.o.A & X + + 3.",
"3.3.3.3.3.+ X X 7 / [ } #.$.=.=.o.! $ . + + 3.3.3.3.3.3.3.3.3.3.3.3.3.3.3.3.3.3.3.3.3.3.+ +   = ~ { } [ } } X.o.=.o.g @ X + + 3.",
"3.3.3.3.3.+ O X = S [ } #.$.*.-.=.] 6   O + + 3.3.3.3.3.3.3.3.3.3.3.3.3.3.3.3.3.3.3.3.+ + X . a ' | [ [ } } o.o.;./ 2 + X + 3.3.",
"3.3.3.3.3.+ + X + g / } #.$.&.&.;.o.W + X + + 3.3.3.3.3.3.3.3.3.3.3.3.3.3.3.3.3.3.3.3.+ + . ; ~  .} [ } } | ..=.=.c - X O + 3.3.",
"3.3.3.3.3.+ + X O 7 K [ } #.%.&.-.=.] 6   O + + 3.3.3.3.3.3.3.3.3.3.3.3.3.3.3.3.3.3.+ + X O B ] | } [ } } X...1.R 2 @ X + + 3.3.",
"3.3.3.3.3.+ + O X = v { } #.%.&.&.-.o.( +   + + + 3.3.3.3.3.3.3.3.3.3.3.3.3.3.3.+ + + X   9 ] X.} [ [ E } ..<.2.r 1 O X + + 3.3.",
"3.3.3.3.3.3.+ + X + 7 K [ } #.%.%.%.-.o.B + . + + + 3.3.3.3.3.3.3.3.3.3.3.3.3.+ + + X   5 _  .} } } } }  .o.1.m e = X O + 3.3.3.",
"3.3.3.3.3.3.+ + X O @ g / } #.%.%.%.%.-...B +   O + + + + 3.3.3.3.3.3.3.3.+ + + + X   5 _ ..| } } } } | ..;.[ r 7 @ X + + 3.3.3.",
"3.3.3.3.3.3.+ + + X O : S { } #.%.%.%.:.&.o.Z +   X O + + + + + + + + + + + + X   X 9 ' ..$.} } } E } ..=.X.u 8 = X + + + 3.3.3.",
"3.3.3.3.3.3.3.+ + + X @ 8 / [ } #.%.%.:.:.>.X.^ 5 X . X X O + + + + + + O X . X $ N ] X.#.#.} } } } | o.X.i 8 < O X + + 3.3.3.3.",
"3.3.3.3.3.3.3.3.+ + X + = g / } } #.%.@.:.:.:.&.{ C 6 + X X   . . . .   . X % s ' ..X.#.#.} } } E | o. .i 8 7 @ X + + + 3.3.3.3.",
"3.3.3.3.3.3.3.3.+ + + X + = g / } } %.%.+.@.:.,.>.$.| T z 9 ; ; ; ; ; ; 9 V ) ..X.$.#.#.} } } E | o. .i 8 0 - X O + + 3.3.3.3.3.",
"3.3.3.3.3.3.3.3.3.+ + + X + ; g [ } } #.%.+.@.@.,.,.>.&.$.| | { { { { { { X.*.$.#.#.#.} } } E | o./ r 8 9 < + X + + 3.3.3.3.3.3.",
"3.3.3.3.3.3.3.3.3.3.+ + X X @ : g / | } #.%.+.+.@.@.:.:.,.:.>.&.&.&.&.&.%.%.%.#.#.} } } E E X.o.S w 8 7 < O X + + + 3.3.3.3.3.3.",
"3.3.3.3.3.3.3.3.3.3.3.+ + X O $ : t K { } } #.#.+.+.+.+.+.@.@.@.+.+.+.%.+.O.#.#.} } } E | o. .g 2 8 8 < O X + + + 3.3.3.3.3.3.3.",
"3.3.3.3.3.3.3.3.3.3.3.+ + + X O @ = 8 v [ | } } #.#.+.+.O.O.+.+.O.O.O.#.#.#.} } } E } X. .G e 2 8 7 , O X + + + 3.3.3.3.3.3.3.3.",
"3.3.3.3.3.3.3.3.3.3.3.3.+ + + X X @ = : y K [ | } } } #.#.#.#.#.#.#.#.} } } } } | | { G t 2 7 8 7 > O X + + + 3.3.3.3.3.3.3.3.3.",
"3.3.3.3.3.3.3.3.3.3.3.3.3.+ + + O X O $ ; 1 t A [ { | } } } } } } } } } } | | { [ G t 2 7 7 7 : @ O X + + + 3.3.3.3.3.3.3.3.3.3.",
"3.3.3.3.3.3.3.3.3.3.3.3.3.3.+ + + + X O @ = ; 1 8 v G K K [ [ [ [ [ [ [ [ K v g e 2 1 7 7 : = + X X + + + 3.3.3.3.3.3.3.3.3.3.3.",
"3.3.3.3.3.3.3.3.3.3.3.3.3.3.3.3.+ + + X X O @ = ; : 1 8 8 t g c g g g y t 8 1 1 7 7 7 : = @ X X O + + + 3.3.3.3.3.3.3.3.3.3.3.3.",
"3.3.3.3.3.3.3.3.3.3.3.3.3.3.3.3.3.+ + + + X X O + $ = ; : : : : 1 1 1 1 : : : : : = $ + O X O + + + + 3.3.3.3.3.3.3.3.3.3.3.3.3.",
"3.3.3.3.3.3.3.3.3.3.3.3.3.3.3.3.3.3.+ + + + + X X O O + @ @ $ = ; : : ; = $ $ $ + O X X X + + + + 3.3.3.3.3.3.3.3.3.3.3.3.3.3.3.",
"3.3.3.3.3.3.3.3.3.3.3.3.3.3.3.3.3.3.3.3.+ + + + + O X X X O O + + + + + + X O X X X + + + + + 3.3.3.3.3.3.3.3.3.3.3.3.3.3.3.3.3.",
"3.3.3.3.3.3.3.3.3.3.3.3.3.3.3.3.3.3.3.3.3.3.+ + + + + + O + O X X X X X O + + O + + + + + 3.3.3.3.3.3.3.3.3.3.3.3.3.3.3.3.3.3.3.",
"3.3.3.3.3.3.3.3.3.3.3.3.3.3.3.3.3.3.3.3.3.3.3.3.3.+ + + + + + + + + + + + + + + + + 3.3.3.3.3.3.3.3.3.3.3.3.3.3.3.3.3.3.3.3.3.3.",
"3.3.3.3.3.3.3.3.3.3.3.3.3.3.3.3.3.3.3.3.3.3.3.3.3.3.3.3.3.3.+ + + + + + + 3.3.3.3.3.3.3.3.3.3.3.3.3.3.3.3.3.3.3.3.3.3.3.3.3.3.3.",
"3.3.3.3.3.3.3.3.3.3.3.3.3.3.3.3.3.3.3.3.3.3.3.3.3.3.3.3.3.3.3.3.3.3.3.3.3.3.3.3.3.3.3.3.3.3.3.3.3.3.3.3.3.3.3.3.3.3.3.3.3.3.3.3."
};
