/* XPM */
static char *result[] = {
/* columns rows colors chars-per-pixel */
"64 64 115 2 ",
"   c #401000",
".  c #501000",
"X  c #502000",
"o  c #503000",
"O  c #602000",
"+  c #702000",
"@  c #603000",
"#  c #703000",
"$  c #704000",
"%  c #803000",
"&  c #903000",
"*  c #804000",
"=  c #904000",
"-  c #805000",
";  c #905000",
":  c #805010",
">  c #A04000",
",  c #B04000",
"<  c #A05000",
"1  c #B05000",
"2  c #806000",
"3  c #906000",
"4  c #907000",
"5  c #A06000",
"6  c #B06000",
"7  c #A07000",
"8  c #B07000",
"9  c #B06010",
"0  c #B07010",
"q  c #C05000",
"w  c #C06000",
"e  c #D06000",
"r  c #C07000",
"t  c #D07000",
"y  c #D07010",
"u  c #E06000",
"i  c #E07000",
"p  c #A08000",
"a  c #B08000",
"s  c #B09000",
"d  c #B08010",
"f  c #B09010",
"g  c #C08000",
"h  c #D08000",
"j  c #C09000",
"k  c #D09000",
"l  c #C08010",
"z  c #D08010",
"x  c #C09010",
"c  c #D09010",
"v  c #E08000",
"b  c #F08000",
"n  c #E09000",
"m  c #F09000",
"M  c #E09010",
"N  c #C0A000",
"B  c #D0A000",
"V  c #C0B000",
"C  c #D0B000",
"Z  c #C0A010",
"A  c #D0A010",
"S  c #E0A000",
"D  c #F0A000",
"F  c #E0B000",
"G  c #F0B000",
"H  c #E0A010",
"J  c #F0A010",
"K  c #E0B010",
"L  c #F0B010",
"P  c #E09020",
"I  c #E09030",
"U  c #E0A020",
"Y  c #F0A020",
"T  c #E0B020",
"R  c #F0B020",
"E  c #E0A030",
"W  c #F0B030",
"Q  c #D0C000",
"!  c #D0C010",
"~  c #E0C000",
"^  c #F0C000",
"/  c #E0D000",
"(  c #E0C010",
")  c #F0C010",
"_  c #F0D010",
"`  c #E0E000",
"'  c #F0E010",
"]  c #F0F010",
"[  c #F0C020",
"{  c #F0D020",
"}  c #F0C030",
"|  c #F0D030",
" . c #F0E020",
".. c #F0F020",
"X. c #F0E030",
"o. c #F0F030",
"O. c #F0A040",
"+. c #F0B040",
"@. c #F0B050",
"#. c #F0B060",
"$. c #F0C040",
"%. c #F0D040",
"&. c #F0C050",
"*. c #F0D050",
"=. c #F0E040",
"-. c #F0F040",
";. c #F0E050",
":. c #F0F050",
">. c #F0C060",
",. c #F0D060",
"<. c #F0C070",
"1. c #F0F060",
"2. c #F0E070",
"3. c #F0F080",
"4. c None",
/* pixels */
"4.4.4.4.4.4.4.4.4.4.4.4.4.4.4.4.4.4.4.4.4.4.4.4.4.4.4.4.4.4.4.4.4.4.4.4.4.4.4.4.4.4.4.4.4.4.4.4.4.4.4.4.4.4.4.4.4.4.4.4.4.4.4.4.",
"4.4.4.4.4.4.4.4.4.4.4.4.4.4.4.4.4.4.4.4.4.4.4.4.4.4.4.4.4.@ @ @ @ @ 4.4.4.4.4.4.4.4.4.4.4.4.4.4.4.4.4.4.4.4.4.4.4.4.4.4.4.4.4.4.",
"4.4.4.4.4.4.4.4.4.4.4.4.4.4.4.4.4.4.4.4.4.4.4.@ @ @ @ @ @ @ @ @ @ @ @ @ @ @ @ 4.4.4.4.4.4.4.4.4.4.4.4.4.4.4.4.4.4.4.4.4.4.4.4.4.",
"4.4.4.4.4.4.4.4.4.4.4.4.4.4.4.4.4.4.4.4.@ @ @ @ @ O X X X X X X X X X X O @ @ @ @ @ 4.4.4.4.4.4.4.4.4.4.4.4.4.4.4.4.4.4.4.4.4.4.",
"4.4.4.4.4.4.4.4.4.4.4.4.4.4.4.4.4.4.@ @ @ @ X X X X X X X @ - - - @ X X X   X X @ @ @ @ @ 4.4.4.4.4.4.4.4.4.4.4.4.4.4.4.4.4.4.4.",
"4.4.4.4.4.4.4.4.4.4.4.4.4.4.4.4.@ @ @ @ X X X X $ 5 l l l P W W W P l l 5 - @ X X X O @ @ @ 4.4.4.4.4.4.4.4.4.4.4.4.4.4.4.4.4.4.",
"4.4.4.4.4.4.4.4.4.4.4.4.4.4.4.@ @ @ X   @ - 0 z Y +.$.&.&.&.>.>.&.&.$.$.} R H d - X X X @ @ @ @ 4.4.4.4.4.4.4.4.4.4.4.4.4.4.4.4.",
"4.4.4.4.4.4.4.4.4.4.4.4.4.@ @ @ O X X $ x W +.&.#.>.>.>.>.&.&.&.*.*.*.*.*.*.%.| R c 4 @   O @ @ @ 4.4.4.4.4.4.4.4.4.4.4.4.4.4.4.",
"4.4.4.4.4.4.4.4.4.4.4.4.@ @ @ X   @ d Y +.@.#.#.>.&.&.*.%.%.%.=.=.=.=.=.=.;.;.;.*.%.{ A $ . X @ @ @ 4.4.4.4.4.4.4.4.4.4.4.4.4.4.",
"4.4.4.4.4.4.4.4.4.4.4.@ @ @ X X ; H W @.#.#.&.&.&.%.=.X.o.o.o.o.o.o.o.o.o.-.-.=.;.;.=.X.) 7 X . O @ @ 4.4.4.4.4.4.4.4.4.4.4.4.4.",
"4.4.4.4.4.4.4.4.4.4.@ @ @ . @ a R +.@.#.>.&.%.=.X.o...o.:.:.-.-.o.o.o.o.o.o.o.o.-.-.-.=.=. .Z @   X @ @ 4.4.4.4.4.4.4.4.4.4.4.4.",
"4.4.4.4.4.4.4.4.4.@ @ @ . @ x R @.#.#.&.&.%.o...o.:.1.;.W P M n h t h M L )  .o.o.o.o.-.=.-. .( 2   X @ @ 4.4.4.4.4.4.4.4.4.4.4.",
"4.4.4.4.4.4.4.4.@ @ @ . @ x } @.@.&.&.%.=.....1.1.$.P e q 1 1 < < < < > 1 1 w M { o.o.o.-.-.-.o._ 3   X @ @ 4.4.4.4.4.4.4.4.4.4.",
"4.4.4.4.4.4.4.@ @ @ . @ x R +.@.&.&.%.o...-.3.>.t q 1 6 6 6 6 6 6 6 6 6 5 5 < > q h { o.o.o.-.-.o.' 3 . X @ @ 4.4.4.4.4.4.4.4.4.",
"4.4.4.4.4.4.@ @ @ X @ j [ +.@.&.&.%.o...:.2.I q 6 r r 6 5 ; ; ; ; ; ; ; 5 5 5 5 5 > q L o.o.o.-.-.o.' -   O @ @ 4.4.4.4.4.4.4.4.",
"4.4.4.4.4.4.@ @ X X j [ +.@.&.$.%.o...1.&.e 1 r r 6 ; * @ @ @ @ @ O @ @ $ - ; 5 5 5 5 , n ..o.o.-.-...( @ . @ @ @ 4.4.4.4.4.4.4.",
"4.4.4.4.4.@ @ O . 4 { $.+.&.$.%.o...:.$.e w r r ; $ @ X X X X X X X X X X O @ * ; 5 5 5 > t ..o.o.-.-...N X X @ @ 4.4.4.4.4.4.4.",
"4.4.4.4.@ @ @   $ ) } +.&.&.%.o...-.%.e r h 6 * O X X O @ @ @ @ @ @ @ @ @ X X X @ - 5 5 5 > J o.o.-.-.o.] 4   O @ @ 4.4.4.4.4.4.",
"4.4.4.4.@ @ X o N { $.+.&.$.=.o.-.=.u r h 6 # X X @ @ @ @ @ @ @ @ @ @ @ @ @ @ X X @ - 5 5 5 1 L o.o.o.-...~ @ X @ @ 4.4.4.4.4.4.",
"4.4.4.4.@ O X 3 ) } +.@.$.=.o.o.-.b e h 6 @ X O @ @ @ @ 4.4.4.4.4.4.4.4.@ @ @ @ @ X @ * 5 5 < w { o.o.-.o.] s X X @ @ 4.4.4.4.4.",
"4.4.4.@ @ X X j [ $.+.&.%.o.o.-.[ u h 9 @ X O @ @ @ 4.4.4.4.4.4.4.4.4.4.4.4.@ @ @ @ X @ - 5 6 < n o.X.-.-.o.' $ . @ @ 4.4.4.4.4.",
"4.4.4.@ @ X $ ) } $.$.$.=.o.o.o.v t r # X O @ @ 4.4.4.4.4.4.4.4.4.4.4.4.4.4.4.4.@ @ @ X @ ; 6 < t { X.X.-.o.] p . O @ @ 4.4.4.4.",
"4.4.4.@ O X p _ } $.$.%.o.o.o.) i h * X O @ @ 4.4.4.4.4.4.4.4.4.4.4.4.4.4.4.4.4.4.@ @ @ X # 5 6 w L | X.o.-...Q @ X @ @ 4.4.4.4.",
"4.4.@ @ X @ B [ } $.$.=.o.o.o.m v 9 X X @ @ 4.4.4.4.4.4.4.4.4.4.4.4.4.4.4.4.4.4.4.4.@ @ o O * 5 6 v [ | X.-.o.] 4 . O @ 4.4.4.4.",
"4.4.@ @ X - ) [ } $.$.o.o.o. .b h $ X @ @ 4.4.4.4.4.4.4.4.4.4.4.4.4.4.4.4.4.4.4.4.4.@ @ @ X # 5 6 h [ | X.-.-...s X X @ @ 4.4.4.",
"4.4.@ X X 7 ) } $.$.%.o.o.o.) i 6 X X @ @ 4.4.4.4.4.4.4.4.4.4.4.4.4.4.4.4.4.4.4.4.4.4.@ @ X O - 6 h [ } | -.-...Q @ X @ @ 4.4.4.",
"4.4.@ X X a ) } $.$.=.o.o.o.L i ; X O @ 4.4.4.4.4.4.4.4.4.4.4.4.4.4.4.4.4.4.4.4.4.4.4.4.@ O X $ 5 h ) } } X.-.o.] 4 . O @ 4.4.4.",
"4.@ @ X X j ) } $.$.=.o.o.o.J t $ X @ @ 4.4.4.4.4.4.4.4.4.4.4.4.4.4.4.4.4.4.4.4.4.4.4.4.@ @ X # 5 h L [ } X.-.o.] s X X @ 4.4.4.",
"4.@ @ X @ B ) } $.$.X.o.o...J 1 X X @ @ 4.4.4.4.4.4.4.4.4.4.4.4.4.4.4.4.4.4.4.4.4.4.4.4.@ @ X @ ; h G [ } | -.o.] s X X @ 4.4.4.",
"4.@ @ X $ S ) } $.%.o.o.o...D 1 X X @ 4.4.4.4.4.4.4.4.4.4.4.4.4.4.4.4.4.4.4.4.4.4.4.4.4.@ @ X X = n ) [ } | -.o.] s X X @ 4.4.4.",
"4.@ @ X # S ) } $.%.o.o.o.o.L 1 X X @ 4.4.4.4.4.4.4.4.4.4.4.4.4.4.4.4.4.4.4.4.4.4.4.4.4.4.@ X X = S _ [ } %.-.o...N X X @ @ 4.4.",
"4.@ @ X $ S ) } $.%.o.o.o.o.) 6 X X @ 4.4.4.4.4.4.4.4.4.4.4.4.4.4.4.4.4.4.4.4.4.4.4.4.4.4.@ X X = G { [ } $.-.o...~ # X @ @ 4.4.",
"4.@ @ X # S ) } } %.o.o.o.o._ 6 X X @ 4.4.4.4.4.4.4.4.4.4.4.4.4.4.4.4.4.4.4.4.4.4.4.4.4.4.@ X X ; ) [ [ } $.-.o.../ $ X @ @ 4.4.",
"4.@ @ X @ k ) [ } %.o.o.o.o.' 6 X X @ 4.4.4.4.4.4.4.4.4.4.4.4.4.4.4.4.4.4.4.4.4.4.4.4.4.4.@ X . 8 _ [ } $.%.-.o...B O X @ @ 4.4.",
"4.@ @ X @ g ) [ } | o.o.o.o.] 8 X X @ 4.4.4.4.4.4.4.4.4.4.4.4.4.4.4.4.4.4.4.4.4.4.4.4.4.@ @ X X j { } } $.%.-.o.] j . X @ 4.4.4.",
"4.@ @ X X 6 ^ [ } | o.o.o.o.] j . X @ @ 4.4.4.4.4.4.4.4.4.4.4.4.4.4.4.4.4.4.4.4.4.4.4.4.@ @ X # F { } } $.%.-.o.] 8 . X @ 4.4.4.",
"4.4.@ X X ; G [ } | o.o.o.o...~ # X @ @ 4.4.4.4.4.4.4.4.4.4.4.4.4.4.4.4.4.4.4.4.4.4.4.4.@ O X 3 _ | } } $.%.-.o.] 8 X X @ 4.4.4.",
"4.4.@ X X * n ) } | X.o.o.o...] 7 X X @ 4.4.4.4.4.4.4.4.4.4.4.4.4.4.4.4.4.4.4.4.4.4.4.4.@ X X a ' } W $.$.=.o.o.' < X O @ 4.4.4.",
"4.4.@ O X $ h ) } } X.o.o.o.o.] N X X @ @ 4.4.4.4.4.4.4.4.4.4.4.4.4.4.4.4.4.4.4.4.4.4.@ @ X @ C  .$.W $.$.=.o...F + X @ @ 4.4.4.",
"4.4.@ @ X @ < D [ } | o.o.o.o.../ $ . @ @ 4.4.4.4.4.4.4.4.4.4.4.4.4.4.4.4.4.4.4.4.4.4.@ @ . 3 ' | $.+.$.%.-.o.] r O X @ @ 4.4.4.",
"4.4.@ @ X O * r L } | o.o.o.o.o.] 7 . O @ @ 4.4.4.4.4.4.4.4.4.4.4.4.4.4.4.4.4.4.4.4.@ @ X @ C  .$.+.+.$.%.o.o._ = X O @ 4.4.4.4.",
"4.4.4.@ @ X $ 5 n [ | X.o.o.o.o...` $   @ @ @ 4.4.4.4.4.4.4.4.4.4.4.4.4.4.4.4.4.4.@ @ @   - ' %.+.+.&.$.=.o...n + X @ @ 4.4.4.4.",
"4.4.4.@ @ X @ ; w L | X.o.o.o.-.o.] V @ X @ @ @ 4.4.4.4.4.4.4.4.4.4.4.4.4.4.4.4.@ @ @ . @ C  .$.+.@.&.%.o.o.] 1 O X @ @ 4.4.4.4.",
"4.4.4.@ @ O X * 5 v { X.X.o.o.-.-.o.] s X X @ @ @ 4.4.4.4.4.4.4.4.4.4.4.4.4.4.@ @ @ . @ B { $.+.@.&.$.-.o...n % X O @ 4.4.4.4.4.",
"4.4.4.4.@ @ X # 3 6 m X.X.o.o.o.-.-.o.] p . . O @ @ @ 4.4.4.4.4.4.4.4.4.@ @ @ @ O   @ N { &.@.@.@.&.=.o.o._ , @ X @ @ 4.4.4.4.4.",
"4.4.4.4.@ @ X X * 5 1 J o.o.o.o.-.-.-.o.] N @   X @ @ @ @ @ @ @ @ @ @ @ @ @ O X   @ B { &.@.@.@.&.%.o.o.o.t # X O @ @ 4.4.4.4.4.",
"4.4.4.4.@ @ @ X O ; 5 6 ) o.o.o.-.-.-.-.o...( 2 .   X X @ @ @ @ @ @ @ O X X X X 3 K | &.@.@.@.&.%.-.o.o.H & @ X @ @ 4.4.4.4.4.4.",
"4.4.4.4.4.@ @ @ X # 3 < e  .o.o.o.o.-.-.-.-.o.' N 2 @ .   . . . . .   X X @ 3 A [ %.>.#.@.@.&.%.-.o.-.[ 1 @ X @ @ @ 4.4.4.4.4.4.",
"4.4.4.4.4.4.@ @ X X * 5 < t  .o.o.o.o.-.-.-.-.-.o...! f 2 - - - - - - 7 x T } %.>.>.#.#.@.&.%.o...:.} 1 % X O @ @ 4.4.4.4.4.4.4.",
"4.4.4.4.4.4.@ @ @ X O : 5 < w { o.o.o.-.-.-.=.=.:.-.-.o.X. .{ { { | | %.%.*.,.<.<.#.#.&.&.%.o...:.} q = @ X @ @ 4.4.4.4.4.4.4.4.",
"4.4.4.4.4.4.4.@ @ @ X @ ; 5 < q ) o.o.o.o.-.-.=.;.*.;.;.;.;.;.*.,.,.,.,.<.<.>.#.#.&.&.*.=...o.1.$.1 = @ X @ @ @ 4.4.4.4.4.4.4.4.",
"4.4.4.4.4.4.4.4.@ @ @ X @ ; 5 < 1 J o.o.o.o.o.-.=.=.*.*.*.,.&.>.>.>.>.>.>.>.>.&.&.*.%.o...:.1.U 1 = @ X @ @ @ 4.4.4.4.4.4.4.4.4.",
"4.4.4.4.4.4.4.4.4.@ @ @ X @ * 5 5 1 h { o.o.o.o.-.-.-.=.*.*.*.*.*.&.&.&.&.&.*.%.=.o...o.1.,.y > * O X @ @ @ 4.4.4.4.4.4.4.4.4.4.",
"4.4.4.4.4.4.4.4.4.4.@ @ @ X @ * ; 5 < 1 n  .o.o.o.o.o.-.=.=.=.=.=.*.=.=.=.=.=.o.o.-.:.1.O.1 = * O X @ @ @ 4.4.4.4.4.4.4.4.4.4.4.",
"4.4.4.4.4.4.4.4.4.4.4.@ @ @ X O # - 3 5 > q H  ...o.o.o.o.o.o.o.o.o.o.o.o.o.-.:.:.*.E r < * # X X @ @ @ 4.4.4.4.4.4.4.4.4.4.4.4.",
"4.4.4.4.4.4.4.4.4.4.4.4.@ @ @ X X O $ ; 5 < < 1 t H { o.o.o.o.-.-.-.-.-.-.:.;.W z q < ; # O X O @ @ @ 4.4.4.4.4.4.4.4.4.4.4.4.4.",
"4.4.4.4.4.4.4.4.4.4.4.4.4.@ @ @ @ X X @ * ; ; ; < > 1 r n n H H R [ R M h r w 1 ; ; * @ X X @ @ @ @ 4.4.4.4.4.4.4.4.4.4.4.4.4.4.",
"4.4.4.4.4.4.4.4.4.4.4.4.4.4.@ @ @ @ @ X O @ # * ; ; ; ; = > < < 1 1 < < < ; ; * # O X X @ @ @ @ 4.4.4.4.4.4.4.4.4.4.4.4.4.4.4.4.",
"4.4.4.4.4.4.4.4.4.4.4.4.4.4.4.4.@ @ @ @ O X X O @ # $ $ * - ; ; ; * * * * # @ O X X @ @ @ @ @ 4.4.4.4.4.4.4.4.4.4.4.4.4.4.4.4.4.",
"4.4.4.4.4.4.4.4.4.4.4.4.4.4.4.4.4.@ @ @ @ @ @ O X X X O O @ @ @ @ @ O X X X X O @ @ @ @ @ 4.4.4.4.4.4.4.4.4.4.4.4.4.4.4.4.4.4.4.",
"4.4.4.4.4.4.4.4.4.4.4.4.4.4.4.4.4.4.4.4.@ @ @ @ @ @ @ O O X X X X X O @ O O @ @ @ @ @ 4.4.4.4.4.4.4.4.4.4.4.4.4.4.4.4.4.4.4.4.4.",
"4.4.4.4.4.4.4.4.4.4.4.4.4.4.4.4.4.4.4.4.4.4.4.@ @ @ @ @ @ @ @ @ @ @ @ @ @ @ @ @ 4.4.4.4.4.4.4.4.4.4.4.4.4.4.4.4.4.4.4.4.4.4.4.4.",
"4.4.4.4.4.4.4.4.4.4.4.4.4.4.4.4.4.4.4.4.4.4.4.4.4.4.4.4.@ @ @ @ @ @ @ 4.4.4.4.4.4.4.4.4.4.4.4.4.4.4.4.4.4.4.4.4.4.4.4.4.4.4.4.4.",
"4.4.4.4.4.4.4.4.4.4.4.4.4.4.4.4.4.4.4.4.4.4.4.4.4.4.4.4.4.4.4.4.4.4.4.4.4.4.4.4.4.4.4.4.4.4.4.4.4.4.4.4.4.4.4.4.4.4.4.4.4.4.4.4."
};
