/* XPM */
static char *result[] = {
/* columns rows colors chars-per-pixel */
"64 64 85 1 ",
"  c #501000",
". c #502000",
"X c #602000",
"o c #603000",
"O c #703000",
"+ c #704000",
"@ c #804000",
"# c #805000",
"$ c #905000",
"% c #805010",
"& c #905010",
"* c #A05000",
"= c #B05000",
"- c #906000",
"; c #907000",
": c #A06000",
"> c #B06000",
", c #A07000",
"< c #B07000",
"1 c #C06000",
"2 c #D06000",
"3 c #C07000",
"4 c #D07000",
"5 c #E07000",
"6 c #F07000",
"7 c #A08000",
"8 c #B08000",
"9 c #B09000",
"0 c #B08010",
"q c #C08000",
"w c #D08000",
"e c #C09000",
"r c #D09000",
"t c #E08000",
"y c #F08000",
"u c #E09000",
"i c #F09000",
"p c #F09010",
"a c #C0A000",
"s c #D0B000",
"d c #C0A010",
"f c #E0A000",
"g c #F0A000",
"h c #E0B000",
"j c #F0B000",
"k c #E0B010",
"l c #F0B010",
"z c #E0B020",
"x c #F0B020",
"c c #D0C000",
"v c #E0C000",
"b c #F0C000",
"n c #E0D000",
"m c #E0C010",
"M c #F0C010",
"N c #F0D010",
"B c #F0E010",
"V c #F0F010",
"C c #E0C020",
"Z c #F0C020",
"A c #F0D020",
"S c #F0C030",
"D c #F0D030",
"F c #F0E020",
"G c #F0F020",
"H c #F0E030",
"J c #F0F030",
"K c #F0B040",
"L c #F0B050",
"P c #F0B060",
"I c #F0C040",
"U c #F0D040",
"Y c #F0C050",
"T c #F0D050",
"R c #F0E040",
"E c #F0F040",
"W c #F0E050",
"Q c #F0F050",
"! c #F0C060",
"~ c #F0D060",
"^ c #F0C070",
"/ c #F0E060",
"( c #F0F060",
") c #F0F080",
"_ c None",
/* pixels */
"________________________________________________________________",
"______________________________oooooo____________________________",
"____________________________ooooXXoooo__________________________",
"___________________________ooo.....Xooo_________________________",
"__________________________ooX..+$-o..ooo________________________",
"_________________________oo. o9mZDz0o ooo_______________________",
"________________________ooX.#sGRT~WHdo.oo_______________________",
"________________________oo.+hVEW~~~/G9 .oo______________________",
"________________________oX.$NJERY!~~QB# ooo_____________________",
"_______________________oo.X*NJERY!~~WJco.oo_____________________",
"_______________________oo.o*MJJUY!!~~EV; Xo_____________________",
"_______________________oo.o$kJHUY!!^~QJso.o_____________________",
"_______________________oX.O@fJHUYP!!!WJB+ oo____________________",
"_______________________oXo@@rGHUYL!!!WEV# oo____________________",
"_______________________oXX@@qGJUYLP!!WEV7..o____________________",
"_______________________oXX@#3FJUYLL!!TEG9..o____________________",
"_______________________oXX@$>FJUILL!!TEGa..o____________________",
"______________________ooXX@$>AJDILL!!TEGso.oo___________________",
"______________________oo.o$:>NHDIKLP!TEJn+.o____________________",
"______________________oo.O-:>MHDIKLPYTEJB@.oo___________________",
"______________________oo.O::=lHDIKLLYTEJB@ oo___________________",
"______________________oo.O::*kHSIKLLYTEJV-.Xo___________________",
"______________________oo.O:>*hHSSILLYTEJV8..o___________________",
"______________________oo.O:>*fHSSIKYTWEJV8..o___________________",
"______________________oo.O:<*fFSSIKYTREJV8..o___________________",
"______________________oo.O:<=uFSSSKYTREJV8..o___________________",
"______________________oo.O:3=uFSSSIYUREJV8..o___________________",
"______________________oo.O>wufASSSIIUEEJV8..o___________________",
"______________________oo.O3jMfMZZSIIUEJJV<..o___________________",
"______________________oo.O3MZuMZZSIIUEJJV<..o___________________",
"______________________oo.OrMxuMZZSIIRJJJV<..o___________________",
"______________________oo.OfASubAZSSIRJJJV<..o___________________",
"______________________oo.OfAStjAZZSSRJJJV<..o___________________",
"______________________oo.OfZSwjAZZSDJJJJV>..o___________________",
"______________________oo.OfAIwgNZZSDJJJJB=..o___________________",
"______________________oo.+hDIwgNZxSDJJJJN=..o___________________",
"______________________oo.+kDIwfMMxSDJJJJM=..o___________________",
"______________________oo.+jDKwujMZSHGEEJg*..o___________________",
"______________________oo.+jUKwwglZSHGEQFy>..o___________________",
"______________________oo.+bRKwwijlZFG))b6>..o___________________",
"______________________oo.+bRKwwtglZFG)(yt:..o___________________",
"______________________oo.+bEI4w4wgZHJEiyt$.Xo___________________",
"______________________oo.+vES4w33tjlpiytw@.oo___________________",
"______________________oo.OvES343334225tt3+.oo___________________",
"______________________oo.OvEA333<3334www3+.o____________________",
"______________________oo.osJA133>>11334w3+.oo___________________",
"______________________oo..eJA13<>>>>133w>o.oo___________________",
"_______________________o..8GC>3>>>>>>33w:..o____________________",
"_______________________o. 8Gk>3>>>>>>33w:X.o____________________",
"_______________________o. <Vf><>>::>>134$.Xo____________________",
"_______________________oX.,Vr><>:::>>143@.oo____________________",
"_______________________oX.$jq<>>:::>>343+.oo____________________",
"_______________________oo.O3q<>>:::>>34:o.o_____________________",
"_______________________oo.O,<<>>:::>>33$.Xo_____________________",
"_______________________oo.o$<<>>:*>>13>O.oo_____________________",
"________________________oX.+:>>:::>>>>@..oo_____________________",
"________________________oo.o%:::::>>>&o.oo______________________",
"________________________ooo.o#-:::>:&O.ooo______________________",
"_________________________ooo.X+#$-$@O.ooo_______________________",
"__________________________ooo.XoOOoX.ooo________________________",
"___________________________oooX.....ooo_________________________",
"____________________________oooooooooo__________________________",
"______________________________oooooo____________________________",
"________________________________________________________________"
};
