/* XPM */
static char *result[] = {
/* columns rows colors chars-per-pixel */
"64 64 90 1 ",
"  c #010101",
". c #080807",
"X c #060609",
"o c #08070B",
"O c #0A0A0B",
"+ c #0E0D14",
"@ c #100F17",
"# c #100F18",
"$ c #161616",
"% c #181817",
"& c #14131C",
"* c #1A1A19",
"= c #171621",
"- c #181722",
"; c #1B1926",
": c #1D1C2A",
"> c #201E2E",
", c #242424",
"< c #2C2C2C",
"1 c #242234",
"2 c #272538",
"3 c #29263A",
"4 c #2B293D",
"5 c gray20",
"6 c #3C3C3C",
"7 c #2E2B42",
"8 c #312E45",
"9 c #35324B",
"0 c #393651",
"q c #3D3956",
"w c #3E3B59",
"e c #423E5D",
"r c #433F60",
"t c #404040",
"y c #4B4B4B",
"u c #545454",
"i c #5F5F5F",
"p c #454163",
"a c #484466",
"s c #4A4669",
"d c #4E4A6F",
"f c #4F4A70",
"g c #524D74",
"h c #544F78",
"j c #56517A",
"k c #59547E",
"l c #626262",
"z c #6B6B6B",
"x c #737373",
"c c #797979",
"v c #5C5783",
"b c #5E5986",
"n c #625C8A",
"m c #655F90",
"M c #676192",
"N c #6A6496",
"B c #6C669A",
"V c #6E689D",
"C c #706A9F",
"Z c #726BA2",
"A c #766FA8",
"S c #7770A9",
"D c #7A73AD",
"F c #7D76B2",
"G c #7F78B5",
"H c #8079B6",
"J c #857DBD",
"K c #877FC0",
"L c #8A82C5",
"P c #8D85C9",
"I c #9087CC",
"U c #9088CE",
"Y c #958CD4",
"T c #988FD8",
"R c #9A91DB",
"E c #9E95E1",
"W c #A097E3",
"Q c #A299E6",
"! c #A69CEC",
"~ c #A89EEF",
"^ c #A99FF0",
"/ c #ADA3F5",
"( c #AFA5F9",
") c #B0A6FA",
"_ c #B2A8FE",
"` c #CDC7FA",
"' c #CFC9FA",
"] c #D2CCFA",
"[ c #FDFDFF",
"{ c None",
/* pixels */
"{{{{{{{{{{{{{{{{{{{{{{{{{{{{{{{{{{{{{{{{{{{{{{{{{{{{{{{{{{{{{{{{",
"{/(((((((((((()((/()((((((({{{{(({{{{(((()(((((((((((()((()(((/{",
"{(NqwwwwwwwqqqqqqqqqqwwwqeU({{(LJ({{(IewwwwwwqqqqqqqqwwqwwwwqN({",
"{(q                       b)/(J=&F)/)b                       q({",
"{(w jFDDDDDd O<<<<, 1SDDv 0()J-  &F)/0 bDDZ: ,<<<<OXdDDDDDDj w({",
"{(w D_)))))F@O66666.-R__R=;QJ;    &FQ;=R)_R=O56665.&H)))/)_F q({",
"{(w D(/////K1 56666$XG)//9Xb;      =kX9//)D *6666< 3J/////)D w({",
"{(w D(/////Lw ,6666, v(/(k X        X k//(k <6666, pL/////)D w({",
"{)w D)///(/Lj %6666< 9//)FX          XF)/^8 56666$XvL/////)D q){",
"{)w D)/////LN&O66666O-R/(R&          =T/(T=O66665.&BL////()D w){",
"{(w D)///(/LS1 <666t,XH)/^9    adX   9^/)DX,66665 3AK/////)D w({",
"{(q fJLPPPPGDe ,666t6 k)/(k   a//fX  v)/(h t6666, pDFLPPPLHf q({",
"{(q .$2pvBSDFk *666tuX8~((FXXa/WE/fXXF)/!4Out666$ vFDANke1@  q({",
"{(q O.  X&3evn@O6666l%&P((R&&EE97RE=&T((P+*lt666X$bve1&   OO q({",
"{(q <6<,$.  X@XO5666z5 N//^9XZ9  7ZX9^//N 5z6665OX#   O$,56< q({",
"{(q <60665<,$.X,6666zy p~//f & =; $ d~(!e yzt666,oo%,556666< q({",
"{(q <66666666556666tzi 2UELjX ;JP:  jJRI1.lz666665666666666< q/{",
"{(q <666666666666666zx$$ZGV4 =J)(L: 3VFV+*xz666666666666666< q({",
"{(q ,66666666666666tzc< vZ4 =H){{)L; 3Ck 5czt66666666666666, q){",
"{(q  O*,566t6t66t6ttzcy 07 =H){{{{)J; 49 yczt6666666tt55,%.  q({",
"{(q :=X  +,tulzzzlzzxciXX =H){{{{{{)J:  Olcxzzlzzziu6*O  X=1 q({",
"{(w ZRDj8&  O*5ylxccccz% =G){{{{{{{{)K; *xccccxiy5*X X=9vGEA q({",
"{(w D_)(^TDh4+  O*5ylxc5 n_{{{/(//{{{_n 5czly<$X  &8vHR/(((D w({",
"{(w D_///))/!LMe1+  O*5, g_{{//nv//{{)s ,5%.  +3aVU~/))///_F w({",
"{(w vR/(((///)/!PBk9X    7/{//vXXh///~1    X9vZY~((////((^Rb q({",
"{(e X&8kFR/()//(RFZ8 -bs11R(/voooXh/)Y24gM; 4VFT//(((^RFv9&X e({",
"{/Ib0;X X=9kFR/~JZ4 =H_)~Y!/vXoNC+Xj/~R/)_K; 3VJ~^RFv9=X X;0bU/{",
"{{(_(QbX    X&9sh4 =H){{((/vX+N//Z+ h///{{)K; 3hs9&X    XkQ/_){{",
"{{{/)J;      &o   =H){{{//vXoN/`]/Z+Xh//{{{)J:   o&X     =G)/{{{",
"{{{(J-      sEZ& =H){{{//vX+N/`[[]/ZOXh//{{{)J: #ZRgX     &F({{{",
"{{)J-      a/E9 ;J){{{//booN(`[[[[]/Z+Xh//{{{)L: 8R/gX     &F){{",
"{(K;      a/W9 =J){{{{)nXXN(`[[[[[[]/ZoXk/{{{{)L; 8W/f      &H({",
"{(J&      s/W7 ;P){{{{/kXoC/'[[[[[[])A+ g/{{{{)U> 3R/jX     &F){",
"{{)F&     Xg/R8 >L){{{//hX+Z/][[[[])D$ d//{{{)P1 4Y/jX     &Z({{",
"{{{)F&     XgRC# ;K){{{)/h +Z(][[])Z& f^({{{)P1 +BWkX     &A){{{",
"{{{/)G=     X&o   ;K){{{//hX+Z/]])D$ f^({{{)P:   o=X     &Z_/{{{",
"{{)_(QvX    X&9ah3 ;J){{/(/h +Z/(A# f/(/{{)P> 1hd9=X    XjQ/_){{",
"{/Ub0;X X&9kFR/!JB3 :J_)/T!/hX+ZS& d^~Y~__P: 1NK~~TFk9=X X;0bP/{",
"{(e  =9vFT//)///RFC3 ;ng41Y)/hXo+ d/(R13sn1 1BFR(/()(/YFk9&X e){",
"{(q vR~(((///)/!YCv9X    2~///hX d^(/^4     8kBPQ/)///()(~Rv w({",
"{(w D_///()(!PNp1&  X$5, s){{//kh//{{)g ,5*O X@1emP!))////_D w({",
"{(w D_((/RGk8#  X$<yixc5 n_{{{(///{{{_N 5czly5*.  +4hDT/()_D w({",
"{(w AEGv9=X X*5yixccccx* ;K){{{{{{{{)P> *zccccxly5*O X%8jDRZ w){",
"{(q >-X  O,6ulzzzzzzxci.X ;J){{{{{{)P: XOicczzzzxzlut,+  X&: w({",
"{(q  O$,<66ttt6tt6ttzcy 93 ;L){{{{)P: 19 ycztt6tt6tttt6<,*O  q({",
"{(q ,66666666666666tzc5 kC3 ;J){{)P: 1Vv <cz666666666666666, q({",
"{(q <66666666666666tzx*@VFB3 :L))U1 1BFC#%xzt66666666666666< q({",
"{(q <666666666566666zl.1PYJh  :LU1  hHTU1Xizt66666566666666< q({",
"{(q <666665,%OO,t666zy pQ/Qs @ :: + aQ/~p yz6666, O$,<56666< q/{",
"{(q ,65,$O   @XX566tz5 M)/^9oZ8  4Bo9//(B 5z6665XX$X  O$,56< q({",
"{(q +O   &1wvn$X5660z*$P/(R*&ER73YW=&R((P&*lt666o#bvr3&X  OO q({",
"{(q  $1wkNZFFv $666tu.4Q()FXXg/RR(jXXF)/~7Xut666* kFDABve3&  q({",
"{(w dGLLLLLGDr ,666t6 h(/(k  Xg/(jX  k(/(k 6t666, wFGPPIILJg q({",
"{(w D)/////KA3 <6666,XD)//9   XfjX   9^/(GX,66665 2AL/////(D w({",
"{(w D)/(///LB&O56666+*Y(/R=          =T((R=O66665O$NL/////)D w({",
"{(w D(/////LvX$66665 8//(FX          XF)//9 <6666* kP/////)D w({",
"{(w D)///(/Le ,6666, j(/(k X        X k(/(v ,6666, wP/(///)D w({",
"{(w D)/////K3 <6666*XD)//9ok=      &hX9^/(GX%66665 1K////()D q({",
"{(w F_())))H&O66666O&R__R&;WF&    &SQ:&R_(R;O66666O$G))())_D w({",
"{(q jDDDDDDd O<<<<, :ZDDb 0()F=  &Z)/0 bFDS> ,<<<,+ fDDDDDFj w({",
"{(q                       b_/)F&&S)/_b                       q({",
"{(NqwwwwwwwqqqqqqqqqwwwwqeP({{)HD){{(UeqwwwwqqqqqqqqqwwwwqwwqN({",
"{/((((((((((()/((((((((())/{{{{(({{{{/(((((((((((((()(((((((((/{",
"{{{{{{{{{{{{{{{{{{{{{{{{{{{{{{{{{{{{{{{{{{{{{{{{{{{{{{{{{{{{{{{{"
};
