/* XPM */
static char *result[] = {
/* columns rows colors chars-per-pixel */
"64 64 2 1 ",
"  c #2C2C2C",
". c None",
/* pixels */
"................................................................",
"................................................................",
"................................................................",
"................... ............................................",
"................. .  ....................... ...................",
"...............   ..   .................. .  ...................",
"...............    .     ...............    ... ................",
"..............     ..     .............    ... .................",
"..............      .     ............    ... ..  ..............",
"..............       .     ..........     .. ..  ...............",
"...............      .     .........     ..  .  ................",
"...............       .     .......     ..     .................",
"................      .     ......     ..      .................",
".................      .     ....     ..        ................",
".................      .      ..     ..        .................",
"..................      .     .               ..................",
"..................      .                     ..................",
"...................      .                   ...................",
"....................                        ....................",
"....................                       .....................",
".....................                     ......................",
".....................                    .......................",
"......................                  ........................",
".......................                .........................",
".......................               ..........................",
"......................               ...........................",
".....................                ...........................",
".....................                 ..........................",
"....................                   .........................",
"...................                    .........................",
"...................                     ........................",
"..................                       .......................",
".................                        .......................",
".................                         ......................",
"................                           .....................",
"...............              .             .....................",
"..............              ..              ....................",
"..............             ....             ....................",
".............             ......             ...................",
"............             .......              ..................",
"............            .........             ..................",
"...........             ..........             .................",
"..........             ............             ................",
".........  .     .    ..............            ................",
"........  .      .   ................            ...............",
"........ .   .  .    .................            ..............",
"....... ..  .  .    ...................           ..............",
"............  ..   ....................            .............",
"...............    .....................           .............",
"...............   ......................      .   ..............",
"..............   ........................      .   .............",
"..............  ..........................      .   ............",
"...........................................     .   ............",
"............................................     .   ...........",
".............................................    ..   ..........",
"..............................................    .    .........",
"................................................   .   .........",
".................................................  ..   ........",
"..................................................  ..   .......",
"...................................................  .   .......",
"........................................................  ......",
"................................................................",
"................................................................",
"................................................................"
};
