/* XPM */
static char *result[] = {
/* columns rows colors chars-per-pixel */
"64 64 89 1 ",
"  c #898989",
". c #8E8E8E",
"X c gray56",
"o c #959595",
"O c gray59",
"+ c #979797",
"@ c #989898",
"# c gray60",
"$ c #9A9A9A",
"% c #9B9B9B",
"& c gray61",
"* c #9D9D9D",
"= c gray62",
"- c #9F9F9F",
"; c #A0A0A0",
": c gray63",
"> c #A2A2A2",
", c gray64",
"< c #A4A4A4",
"1 c #A5A5A5",
"2 c gray65",
"3 c #A7A7A7",
"4 c gray66",
"5 c #A9A9A9",
"6 c #AAAAAA",
"7 c gray67",
"8 c #ACACAC",
"9 c gray68",
"0 c #AEAEAE",
"q c #AFAFAF",
"w c gray69",
"e c #B1B1B1",
"r c #B2B2B2",
"t c gray70",
"y c #B4B4B4",
"u c gray71",
"i c #B6B6B6",
"p c #B7B7B7",
"a c gray72",
"s c #B9B9B9",
"d c gray73",
"f c #BBBBBB",
"g c #BCBCBC",
"h c gray74",
"j c gray",
"k c gray75",
"l c #C0C0C0",
"z c #C1C1C1",
"x c gray76",
"c c #C3C3C3",
"v c gray77",
"b c #C5C5C5",
"n c #C6C6C6",
"m c gray78",
"M c #C8C8C8",
"N c gray79",
"B c #CACACA",
"V c #CBCBCB",
"C c gray80",
"Z c #CDCDCD",
"A c #CECECE",
"S c gray81",
"D c #D0D0D0",
"F c gray82",
"G c #D2D2D2",
"H c LightGray",
"J c gray83",
"K c #D5D5D5",
"L c gray87",
"P c #E1E1E1",
"I c #E2E2E2",
"U c gray89",
"Y c gray90",
"T c #E6E6E6",
"R c gray91",
"E c #E9E9E9",
"W c #EAEAEA",
"Q c gray92",
"! c #ECECEC",
"~ c gray93",
"^ c #EEEEEE",
"/ c #EFEFEF",
"( c gray94",
") c gray96",
"_ c #F9F9F9",
"` c gray99",
"' c #FDFDFD",
"] c #FEFEFE",
"[ c white",
/* pixels */
"*;-*%%=--=&*---=*&%=*&**-;-=-*#d[[[[[[[[[[[[[[[[[[[[[[[[[[[[[[[[",
"<6<<1>122212<,144<>1<><3331><4@d[[[[[[[[[[[[[[[[[[[[[[[[[[[[[[[[",
"605596678870744666664355567667;l[[[[[[[[[[[[[[[[[[[[[[[[[[[[[[[[",
"reewtiuutrwerettrtuyertretyuue,l[[[[[[[[[[[[[[[[[[[[[[[[[[[[[[[[",
"gjhdfggghhhfghhhkjhgggklfghhzl6v[[[[[[[[[[[[[[[[[[[[[[[[[[[[[[[[",
"nBMnvcnbnnMvvnvnBNvcmcvMbbmNmkqm[[[[[[[[[[[[[[[[[[[[[[[[[[[[[[[[",
"mNCBmMBMmNCVZZBVZZDVSAmVZCCDAxtM[[[[[[[[[[[[[[[[[[[[[[[[[[[[[[[[",
"nBVVVCSCNBCADABNNBJCSFNVAZVCDnyn[[[[[[[[[[[[[[[[[[[[[[[[[[[[[[[[",
"NVNBZSGAVCZCAAVMmVFDSSNBAVCACbiN[[[[[[[[[[[[[[[[[[[[[[[[[[[[[[[[",
"VVmMCAFDCSSCASABBANCMvmZAMNVBbim[[[[[[[[[[[[[[[[[[[[[[[[[[[[[[[[",
"mBmNAVVVBACVCCBmMABnbbmDDNNBVbyx[[[[[[[[[[[[[[[[[[[[[[[[[[[[[[[[",
"mMMNVBVAZGGCVNmnMVCVBNBZDCmZDmyv[[[[[[[[[[[[[[[[[[[[[[[[[[[[[[[[",
"ZNCMvMNCVDDZCBMmMVASVbVDZAmmZMuv[[[[[[[[[[[[[[[[[[[[[[[[[[[[[[[[",
"MnVBmMnNBZBZSAZVNVVBVADVBSVmBmyc[[[[[[[[[[[[[[[[[[[[[[[[[[[[[[[[",
"znnBCNBCADAZZAACBMBZZNNBVAACMxrv[[[[[[[[[[[[[[[[[[[[[[[[[[[[[[[[",
"nVmNCmNNZDASSSFSZZmmBBMNNBBNmbtc[[[[[[[[[[[[[[[[[[[[[[[[[[[[[[[[",
"VZCCCCCBZAVDFDFDAFMMACVCNVCNCCiz[[[[[[[[[[[[[[[[[[[[[[[[[[[[[[[[",
"vNVSDZVNCACCAZVCAZBZSVNNmMNmVVul[[[[[[[[[[[[[[[[[[[[[[[[[[[[[[[[",
"kMVAAVCNBZANVCmmBnBVMBMnnMmcmvtc[[[[[[[[[[[[[[[[[[[[[[[[[[[[[[[[",
"bCBmcbZMmNCVBVBNNcmnvmmnNVNnMvtc[[[[[[[[[[[[[[[[[[[[[[[[[[[[[[[[",
"cMbbmnnvcvNCmBSZVnnbbnbcnMMmbxyx[[[[[[[[[[[[[[[[[[[[[[[[[[[[[[[[",
"zmbbVCBmcznMvmBMmvnnbnvccvnNMbic[[[[[[[[[[[[[[[[[[[[[[[[[[[[[[[[",
"MVvcmNBMbbMNbMBnmnBVNmbvvbnMnxuz[[[[[[[[[[[[[[[[[[[[[[[[[[[[[[[[",
"vmcxnMCVvxvMbmBmMmNNmMbcvvxlzltk[[[[[[[[[[[[[[[[[[[[[[[[[[[[[[[[",
"kvcxvnNNvlcbxvnvvxvcxvMBMnxlzjrk[[[[[[[[[[[[[[[[[[[[[[[[[[[[[[[[",
"zbbxcxkkzlzzzvbxxxbckkcnnbxkxktl[[[[[[[[[[[[[[[[[[[[[[[[[[[[[[[[",
"lcxlzcjgzljlzxxzlcvcxljkzxzkljtj[[[[[[[[[[[[[[[[[[[[[[[[[[[[[[[[",
"lzlkcbjkbvvcxxlllkklzkjkcvvxkhtj[[[[[[[[[[[[[[[[[[[[[[[[[[[[[[[[",
"hjllzxxcvllxzkklxhggjhffjkkjzjyk[[[[[[[[[[[[[[[[[[[[[[[[[[[[[[[[",
"fhklkkkzclkkjjjklkkjhkkhhhjkcltk[[[[[[[[[[[[[[[[[[[[[[[[[[[[[[[[",
"iafdapisgdaaasfggghfadgdpiipds6p_`[[[[[[]]'''[[[[]]][[[[[][[[[[]",
"zcnnclhlczklzxcvbmbcxxzlllzxjxpyDGDHHHJGFGGFFGHHGFDDDDFGGDHGSKJG",
"[[[[[[[[[[[[[[[[[[[[[[[[[[[[[[[R.@##@@##@####%%%%%$$$$$%%@@@@**%",
"[[[[[[[[[[[[[[[[[[[[[[[[[[[[[[[) %@#+O@OoO++O%&==&$@$%%#+O#$@$O$",
"[[[[[[[[[[[[[[[[[[[[[[[[[[[[[[[~X;=:>:::>24<;=>1<:;:>,,:-;>:-=*2",
"[[[[[[[[[[[[[[[[[[[[[[[[[[[[[[[QO5565568977764566655687637426542",
"[[[[[[[[[[[[[[[[[[[[[[[[[[[[[[[!*eqewqqtytewqeeqwrrwrrrrqwwwrue8",
"[[[[[[[[[[[[[[[[[[[[[[[[[[[[[[[^=tpddaiagjkdpfdssghhkjhlgpfgafpt",
"[[[[[[[[[[[[[[[[[[[[[[[[[[[[[[[(<jlvvxlcvccvbvnmMBMnMnbMmcbmbcnj",
"[[[[[[[[[[[[[[[[[[[[[[[[[[[[[[[/8nmNBNMBBMmmmcnMMNVASACACBmVANCv",
"[[[[[[[[[[[[[[[[[[[[[[[[[[[[[[[~0bNVZVBNMnmBZvmMMNVCZCBVBZNBAZMx",
"[[[[[[[[[[[[[[[[[[[[[[[[[[[[[[[W7xmCCCVCVBBVVMBVBVVVCBNBNACBSGVc",
"[[[[[[[[[[[[[[[[[[[[[[[[[[[[[[[^9mZABNNAFACBBBZVBBVAACVCZSCZHGmh",
"[[[[[[[[[[[[[[[[[[[[[[[[[[[[[[[~8nZSNBAVBBNMnBABNNMCCVBZSSCAHSMj",
"[[[[[[[[[[[[[[[[[[[[[[[[[[[[[[[E8xMZNBSVBVVBNNZBMBMVVBBZADZZDZBx",
"[[[[[[[[[[[[[[[[[[[[[[[[[[[[[[[E9cBANNVCZAACCBMMbMAVBCACAZZAZABz",
"[[[[[[[[[[[[[[[[[[[[[[[[[[[[[[[E8vZAMMBZSACBBMnMmNSCBBCCVNCACSBh",
"[[[[[[[[[[[[[[[[[[[[[[[[[[[[[[[W9nAANBBZAVBBNVBCCSFZVBVCVnVAVACf",
"[[[[[[[[[[[[[[[[[[[[[[[[[[[[[[[QqMVCCCBBNmmNNZCCCSABBCAFVMCAVCNg",
"[[[[[[[[[[[[[[[[[[[[[[[[[[[[[[[EqMBNVVNBNMVZCZVNBZZVCZAFNZAASMbg",
"[[[[[[[[[[[[[[[[[[[[[[[[[[[[[[[R0nNnMNmNBNCZCVNNBVCAZVMmMVSFAmbh",
"[[[[[[[[[[[[[[[[[[[[[[[[[[[[[[[R9bMnmNMVVNVZZACNMVCBBBNBVbCFMBbj",
"[[[[[[[[[[[[[[[[[[[[[[[[[[[[[[[T9bMbnBBBmnmBNVNnvmBNmbmNNmMBVVmk",
"[[[[[[[[[[[[[[[[[[[[[[[[[[[[[[[Y8vVmmBNBBnnnvmbzvmnnccbbNMxnCmnh",
"[[[[[[[[[[[[[[[[[[[[[[[[[[[[[[[Y9cMMnbnvvvbmvcnMCMxbvnMmBMxnVbcf",
"[[[[[[[[[[[[[[[[[[[[[[[[[[[[[[[U9lbMnxbvbbnNczBCVmbmbnMmmMMmBMbh",
"[[[[[[[[[[[[[[[[[[[[[[[[[[[[[[[P8kvNmzvmNmnbjbCnvNmccbMMncbNnbMj",
"[[[[[[[[[[[[[[[[[[[[[[[[[[[[[[[P8kxxzlkvNmmMcxmnmvzxzxvvckxnzvcs",
"[[[[[[[[[[[[[[[[[[[[[[[[[[[[[[[P4gcllxlvMbvvzbxlccxvlkkjzzbvlbzp",
"[[[[[[[[[[[[[[[[[[[[[[[[[[[[[[[I4gxvcvbnnvczjckhjcnczxcclvvzczza",
"[[[[[[[[[[[[[[[[[[[[[[[[[[[[[[[P6hgzlzxxcvnvzjjljkcxlllkjxllxhlp",
"[[[[[[[[[[[[[[[[[[[[[[[[[[[[[[[P7hhzlzzkjlzzljhxljzczzzjzzjxckkp",
"[[[[[[[[[[[[[[[[[[[[[[[[[[[[[[[P7glzjjhjzzkjlkkxzhlkhlxjklhkcljd",
"[[[[[[[[[[[[[[[[[[[[[[[[[[[[[[[L6fklfhhhjkhgjkjlkhkgdjzkhkhglklh"
};
