/* XPM */
static char *result[] = {
/* columns rows colors chars-per-pixel */
"64 64 192 2 ",
"   c gray9",
".  c #181818",
"X  c #191919",
"o  c gray10",
"O  c #1B1B1B",
"+  c gray11",
"@  c #1D1D1D",
"#  c #1E1E1E",
"$  c #202020",
"%  c #222222",
"&  c #232323",
"*  c gray14",
"=  c #252525",
"-  c #272727",
";  c #282828",
":  c gray16",
">  c #2A2A2A",
",  c gray17",
"<  c #2C2C2C",
"1  c #2D2D2D",
"2  c gray18",
"3  c #2F2F2F",
"4  c gray19",
"5  c #313131",
"6  c #323232",
"7  c gray20",
"8  c #343434",
"9  c #353535",
"0  c gray21",
"q  c #373737",
"w  c gray22",
"e  c #393939",
"r  c #3A3A3A",
"t  c gray23",
"y  c #3C3C3C",
"u  c gray24",
"i  c #3E3E3E",
"p  c #3F3F3F",
"a  c gray25",
"s  c #414141",
"d  c gray26",
"f  c #434343",
"g  c #444444",
"h  c gray27",
"j  c #464646",
"k  c gray28",
"l  c #484848",
"z  c #494949",
"x  c gray29",
"c  c #4B4B4B",
"v  c #4C4C4C",
"b  c gray30",
"n  c #4E4E4E",
"m  c gray31",
"M  c #505050",
"N  c #515151",
"B  c gray32",
"V  c #535353",
"C  c gray33",
"Z  c #555555",
"A  c #565656",
"S  c gray34",
"D  c #585858",
"F  c gray35",
"G  c #5A5A5A",
"H  c #5B5B5B",
"J  c gray36",
"K  c #5D5D5D",
"L  c gray37",
"P  c #5F5F5F",
"I  c #606060",
"U  c gray38",
"Y  c #626262",
"T  c gray39",
"R  c #646464",
"E  c #656565",
"W  c gray40",
"Q  c #676767",
"!  c #686868",
"~  c DimGray",
"^  c #6A6A6A",
"/  c gray42",
"(  c #6C6C6C",
")  c #6D6D6D",
"_  c gray43",
"`  c #6F6F6F",
"'  c gray44",
"]  c #717171",
"[  c #727272",
"{  c gray45",
"}  c #747474",
"|  c gray46",
" . c #767676",
".. c #777777",
"X. c gray47",
"o. c #797979",
"O. c gray48",
"+. c #7B7B7B",
"@. c #7C7C7C",
"#. c gray49",
"$. c #7E7E7E",
"%. c gray50",
"&. c #808080",
"*. c #818181",
"=. c gray51",
"-. c #838383",
";. c #848484",
":. c gray52",
">. c #868686",
",. c gray53",
"<. c #888888",
"1. c #898989",
"2. c gray54",
"3. c #8B8B8B",
"4. c gray55",
"5. c #8D8D8D",
"6. c #8E8E8E",
"7. c gray56",
"8. c #909090",
"9. c gray57",
"0. c #929292",
"q. c #939393",
"w. c gray58",
"e. c #959595",
"r. c gray59",
"t. c #979797",
"y. c #989898",
"u. c gray60",
"i. c #9A9A9A",
"p. c #9B9B9B",
"a. c gray61",
"s. c #9D9D9D",
"d. c gray62",
"f. c #9F9F9F",
"g. c #A0A0A0",
"h. c gray63",
"j. c #A2A2A2",
"k. c gray64",
"l. c #A4A4A4",
"z. c #A5A5A5",
"x. c gray65",
"c. c #A7A7A7",
"v. c gray66",
"b. c #A9A9A9",
"n. c #AAAAAA",
"m. c gray67",
"M. c #ACACAC",
"N. c gray68",
"B. c #AEAEAE",
"V. c #AFAFAF",
"C. c gray69",
"Z. c #B1B1B1",
"A. c #B2B2B2",
"S. c gray70",
"D. c #B4B4B4",
"F. c gray71",
"G. c #B6B6B6",
"H. c #B7B7B7",
"J. c gray72",
"K. c #B9B9B9",
"L. c gray73",
"P. c #BBBBBB",
"I. c #BCBCBC",
"U. c gray74",
"Y. c gray",
"T. c gray75",
"R. c #C0C0C0",
"E. c #C1C1C1",
"W. c gray76",
"Q. c #C3C3C3",
"!. c gray77",
"~. c #C5C5C5",
"^. c #C6C6C6",
"/. c gray78",
"(. c #C8C8C8",
"). c gray79",
"_. c #CACACA",
"`. c #CBCBCB",
"'. c gray80",
"]. c #CDCDCD",
"[. c gray81",
"{. c #D0D0D0",
"}. c gray82",
"|. c #D2D2D2",
" X c LightGray",
".X c gray83",
"XX c #D5D5D5",
"oX c gray84",
"OX c #D7D7D7",
"+X c #D8D8D8",
"@X c gray85",
"#X c None",
/* pixels */
"#X#X#X#X#X#X#X#X#X#X#X#X#X#X#X#X#X#X#X#X#X#X#X#X#X#X#X#X#X#X#X#X#X#X#X#X#X#X#X#X#X#X#X#X#X#X#X#X#X#X#X#X#X#X#X#X#X#X#X#X#X#X#X#X",
"#X#X#X#X#X#X#X#X#X#X#X#X#X#X#X#X#X#X#X#X#X#X#X#X#X#X#X#X#X#X#X#X#X#X#X#X#X#X#X#X#X#X#X#X#X#X#X#X#X#X#X#X#X#X#X#X#X#X#X#X#X#X#X#X",
"#X#X#X#X#X#X#X#X#X#X#X#X#X#X#X#X#X#X#X#X#X#X#X#X#X#X#X#X#X#X#X#X#X#X#X#X#X#X#X#X#X#X#X#X#X#X#X#X#X#X#X#X#X#X#X#X#X#X#X#X#X#X#X#X",
"#X#X#X#X#X#X#X#X#X#X#X#X#X#X#X#X#X#X#X#X#X#X#X#X#X#X#X#X#X#X#Xq.r.#X#X#X#X#X#X#X#X#X#X#X#X#X#X#X#X#X#X#X#X#X#X#X#X#X#X#X#X#X#X#X",
"#X#X#X#X#X#X#X#X#X#X#X#X#X#X#X#X#X#X#X#X#X#X#X#X#X#X#X#X#X#X#Xk.l.#X#X#X#X#X#X#X#X#X#X#X#X#X#X#X#X#X#X#X#X#X#X#X#X#X#X#X#X#X#X#X",
"#X#X#X#X#X#X#X#X#X#X#X#X#X#X#X#X#X#X#X#X#X#X#X#X#X#X#X#X#X#Xq.b.b.e.#X#X#X#X#X#X#X#X#X#X#X#X#X#X#X#X#X#X#X#X#X#X#X#X#X#X#X#X#X#X",
"#X#X#X#X#X#X#X#X#X#X#X#X#X#X#X#X#X#X#X#X#X#X#X#X#X#X#X#X#X#Xz.V.V.c.#X#X#X#X#X#X#X#X#X#X#X#X#X#X#X#X#X#X#X#X#X#X#X#X#X#X#X#X#X#X",
"#X#X#X#X#X#X#X#X#X#X#X#X#X#X#X#X#X#X#X#X#X#X#X#X#X#X#X#X#X7.M.F.F.B.8.#X#X#X#X#X#X#X#X#X#X#X#X#X#X#X#X#X#X#X#X#X#X#X#X#X#X#X#X#X",
"#X#X#X#X#X#X#X#X#X#X#X#X#X#X#X#X#X#X#X#X#X#X#X#X#X#X#X#X#Xl.A.K.P.D.x.#X#X#X#X#X#X#X#X#X#X#X#X#X#X#X#X#X#X#X#X#X#X#X#X#X#X#X#X#X",
"#X#X#X#X#X#X#X#X#X#X#X#X#X#X#X#X#X#X#X#X#X#X#X#X#X#X#X#X3.N.K.R.R.L.V.3.#X#X#X#X#X#X#X#X#X#X#X#X#X#X#X#X#X#X#X#X#X#X#X#X#X#X#X#X",
"#X#X#X#X#X#X#X#X#X#X#X#X#X#X#X#X#X#X#X#X#X#X#X#X#X#X#X#Xk.S.T.~.^.R.F.k.#X#X#X#X#X#X#X#X#X#X#X#X#X#X#X#X#X#X#X#X#X#X#X#X#X#X#X#X",
"#X#X#X#X#X#X#X#X#X#X#X#X#X#X#X#X#X#X#X#X#X#X#X#X#X#X#X#Xm.K.!._.`.~.P.N.#X#X#X#X#X#X#X#X#X#X#X#X#X#X#X#X#X#X#X#X#X#X#X#X#X#X#X#X",
"#X#X#X#X#X#X#X#X#X#X#X8.#X#X#X#X#X#X#X#X#X#X#X#X#X#X#Xp.V.U./.].].(.U.Z.s.#X#X#X#X#X#X#X#X#X#X#X#X#X#X#Xq.#X#X#X#X#X#X#X#X#X#X#X",
"#X#X#X#X#X#X#X#X#X#X#Xy.m.i.#X#X#X#X#X#X#X#X#X#X#X#X#Xa.n.H.E.^./.E.K.M.s.#X#X#X#X#X#X#X#X#X#X#X#X#Xi.N.y.#X#X#X#X#X#X#X#X#X#X#X",
"#X#X#X#X#X#X#X#X#X#X#X#Xz.F.F.j.#X#X#X#X#X#X#X#X#X#X#.q.f.n.A.H.J.S.m.g.e.O.#X#X#X#X#X#X#X#X#X#Xk.G.G.c.#X#X#X#X#X#X#X#X#X#X#X#X",
"#X#X#X#X#X#X#X#X#X#X#X#X:.C.Y.E.I.n.#X#X#X#X#X#X#X#X~ @.4.y.g.z.x.g.i.7.%.( #X#X#X#X#X#X#X#XM.I.E.Y.C.$.#X#X#X#X#X#X#X#X#X#X#X#X",
"#X#X#X#X#X#X#X#X#X#X#X#X#Xt.G.~.`./.R.V.#X#X#X#X#Xn A R ' #.1.w.w.1.%.[ W S c #X#X#X#X#XZ.E./.`.^.G.t.#X#X#X#X#X#X#X#X#X#X#X#X#X",
"#X#X#X#X#X#X#X#X#X#X#X#X#XW k.L.'.{.{.`.W.S.8.#Xr w j N H W [ %.$.{ ~ J B k r r #X9.Z.E.).[.{.].I.z.W #X#X#X#X#X#X#X#X#X#X#X#X#X",
"#X#X#X#X#X#X#X#X#X#X#X#X#X#X=.n.T.[. X|.{.).L.j.U u y j N H ! ..o./ J B j u r T g.H.(.[.|.|.{.W.N.+.#X#X#X#X#X#X#X#X#X#X#X#X#X#X",
"#X#X#X#X#X#X#X#X#X#X#X#X#X#XP 3.B.!.}.XX.X}.~.C.u.| 3 @ $ 7 w y u q 7 = @ 8 ) r.M.Q.{..XXX|./.C.w.I #X#X#X#X#X#X#X#X#X#X#X#X#X#X",
"#X#X#X#X#X#X#X#X#X#X#X#X#X#X#XT t.A./. XOXXX].G.d.*.z @ @ $ * * * % $ $ @ l @.p.D.`.XX+X.X_.F.t.W #X#X#X#X#X#X#X#X#X#X#X#X#X#X#X",
"#X#X#X#X#X#X#X#X#X#X#X#X#X#X#X#Xo.g.D.^.}.+XoXW.k.-.u @ % - - : > : - * % r %.f.T..X@X X(.G.j.$.#X#X#X#X#X#X#X#X#X#X#X#X#X#X#X#X",
"#X#X#X#X#X#X#X#X#X#X#X#X#X#X#X#XU =.f.B.P.).+XoXF.' $ % , 2 4 9 3 5 1 > * $ [ V..X@X_.U.V.h.4.I #X#X#X#X#X#X#X#X#X#X#X#X#X#X#X#X",
"#X#X#X#X#X#X#X#X#X#X#X#X#X#X#X#X#XP *.q.d.z.G.|.].u % < q j b N F c k r < * u [.XXK.c.g.t.1.T #X#X#X#X#X#X#X#X#X#X#X#X#X#X#X#X#X",
"#X#X#X#X#X#X#X#X#X#X#X#X#X#X#X#X#Xv J ` #.;.2.a.C $ 6 h D ) X.-.-.O.' F j 8 @ L h.3.>.&.] U c #X#X#X#X#X#X#X#X#X#X#X#X#X#X#X#X#X",
"#X#X#X#X#X#X#X#X#X#X#X#X#X#X#X#X# O g N H U W p @ 3 l W %.w.s.f.l.s.e.%.~ x 4 @ w E U J C j o + #X#X#X#X#X#X#X#X#X#X#X#X#X#X#X#X",
"#X#X#X#X#X#X#X#X#X#X#X#X#X#Xu , @ o @ 0 u f $ + : f Y :.i.l.v.m.n.b.k.p.-.R j , + * d i 0 @ o @ ; i #X#X#X#X#X#X#X#X#X#X#X#X#X#X",
"#X#X#X#X#X#X#X#X#X#X#X#X2.2.5.( C w @ o O O O + 8 S #.r.f.l.v.c.m.b.l.g.r.&.F 8 + O O + O + 0 n ^ 4.1.2.#X#X#X#X#X#X#X#X#X#X#X#X",
"#X#X#X#X#X#X#X#X#X .6.p.h.h.y.,.) D n + o O O @ a W <.t.a.h.c.c.n.c.h.a.t.1.W h $ O o o + n S ~ =.t.g.h.a.9. .#X#X#X#X#X#X#X#X#X",
"#X#X#X#X#X#X#X' -.0.i.j.z.l.p.1._ G b + o o O & x ) ,.9.r.a.k.z.n.k.a.r.9.<.` c = O o o + n D ( :.u.k.x.j.i.w.:.` #X#X#X#X#X#X#X",
"#X#X#X#X#XQ | &.4.e.a.j.x.l.u.,.( S v + X o O & c ( %.-.4.q.p.l.v.p.q.1.-.$._ b ; O o o + c Z ^ -.y.j.x.k.a.r.6.=. .~ #X#X#X#X#X",
"#X#X#XJ Y )  .%.2.q.y.d.j.f.e.&.Q V k O X o O + b ~ ( |  .@.:.5.H./ _ | { ^ Q b + o o X O j M R $.q.s.h.f.u.q.3.*..._ R K #X#X#X",
"#X#X#XD F Y ~ { @.:.7.e.u.t.4. .L b s O X o o @ h L R R T I R $...P T Y H I L h @ o o X O p x K } 1.e.u.r.7.>.$.{ / U F V #X#X#X",
"#X#X#X#X#XF Z U ! ] O.:.5.1.@.^ Z g e o . X o + t B L P I Y Q ( / Q Y U P P V y + X X . o w d B W O.<.3.:.#.{ ! U S S #X#X#X#X#X",
"#X#X#X#X#X#X#XD K Y Q _ } { ~ H x e 3 X . . X O 6 n K Y E Q ^ ( ( ^ Q E Y L n 9 O X . . o 1 w l F ! } | _ Q Y D D #X#X#X#X#X#X#X",
"#X#X#X#X#X#X#X#X#XF L E Q T F v y 1 @ X   . . o @ d G R Q Q ^ ( / / ! W R F h & X . .   X # > t z D Y Q E K S #X#X#X#X#X#X#X#X#X",
"#X#X#X#X#X#X#X#X#X#X#X#XP K V h 6 @ + $ + . . . O 0 c P W ~ ^ ( / / ^ Q I n q + .     + @ + @ 6 f M J H #X#X#X#X#X#X#X#X#X#X#X#X",
"#X#X#X#X#X#X#X#X#X#X#X#X#X#Xc i 2 @ 8 L R J O   o @ q M L W ^ ( ( / Q P M t @ o . O P E I w + < u k #X#X#X#X#X#X#X#X#X#X#X#X#X#X",
"#X#X#X#X#X#X#X#X#X#X#X#X#X#X#X#X< ; / @.*.=.O.O . o $ r z A L Y K L S x r @ o   + O.-.*.$._ = < #X#X#X#X#X#X#X#X#X#X#X#X#X#X#X#X",
"#X#X#X#X#X#X#X#X#X#X#X#X#X#X#X#X#XQ 3.r.i.u.q.F o . o + = r s z j d r > + o . X N 9.y.i.t.4.! #X#X#X#X#X#X#X#X#X#X#X#X#X#X#X#X#X",
"#X#X#X#X#X#X#X#X#X#X#X#X#X#X#X#X#X4.a.x.b.l.y.) y X . X O + @ ; @ @ + o X . X w R t.l.b.c.d.2.#X#X#X#X#X#X#X#X#X#X#X#X#X#X#X#X#X",
"#X#X#X#X#X#X#X#X#X#X#X#X#X#X#X#X#.u.v.A.A.v.t.] j > . . . . X X X X . . . . = h ~ e.c.A.S.b.a.&.#X#X#X#X#X#X#X#X#X#X#X#X#X#X#X#X",
"#X#X#X#X#X#X#X#X#X#X#X#X#X#X#X#X5.g.V.G.A.j.5.~ v t X   . . . . . . . .   o t x E 1.g.C.G.C.k.6.#X#X#X#X#X#X#X#X#X#X#X#X#X#X#X#X",
"#X#X#X#X#X#X#X#X#X#X#X#X#X#X#X..t.z.V.V.z.w.X.Y M p O .     . . . .   .   + y n P  .0.k.V.V.c.t.+.#X#X#X#X#X#X#X#X#X#X#X#X#X#X#X",
"#X#X#X#X#X#X#X#X#X#X#X#X#X#X! ,.i.l.z.s.8.%.] U M 0 o . X X X X X X X . X o t m P ` $.7.a.x.z.a.2.~ #X#X#X#X#X#X#X#X#X#X#X#X#X#X",
"#X#X#X#X#X#X#X#X#X#X#X#X#X#X} 7.u.p.0.;.%...( B + o O + + + @ # # @ + + O O o + F / ..$.;.8.p.i.9. .#X#X#X#X#X#X#X#X#X#X#X#X#X#X",
"#X#X#X#X#X#X#X#X#X#X#X#X#XQ @.7.8.;.#.o. .R H #X% + + @ $ & , , 5 : * # @ + + % #XF W | X.@.-.7.8.$.W #X#X#X#X#X#X#X#X#X#X#X#X#X",
"#X#X#X#X#X#X#X#X#X#X#X#X#X^ %.*.+.X.} R #X#X#X#X#X3 1 7 q u f c m l i w 8 4 7 #X#X#X#X#XW | ..O.%.$.) #X#X#X#X#X#X#X#X#X#X#X#X#X",
"#X#X#X#X#X#X#X#X#X#X#X#XQ ' | ..[ W #X#X#X#X#X#X#X#Xp h x n D ~ ) Y B x j p #X#X#X#X#X#X#X#XW ' | | ' Q #X#X#X#X#X#X#X#X#X#X#X#X",
"#X#X#X#X#X#X#X#X#X#X#X#X( ] ] E #X#X#X#X#X#X#X#X#X#XM Z H I / -.1.{ Y K Z m #X#X#X#X#X#X#X#X#X#XQ ` ] ) #X#X#X#X#X#X#X#X#X#X#X#X",
"#X#X#X#X#X#X#X#X#X#X#X~ ( E #X#X#X#X#X#X#X#X#X#X#X#X#XI Q )  .9.t.O.) ! Y #X#X#X#X#X#X#X#X#X#X#X#X#XE ( ^ #X#X#X#X#X#X#X#X#X#X#X",
"#X#X#X#X#X#X#X#X#X#X#X~ #X#X#X#X#X#X#X#X#X#X#X#X#X#X#XR ( { @.0.y.#.{ ) R #X#X#X#X#X#X#X#X#X#X#X#X#X#X#XQ #X#X#X#X#X#X#X#X#X#X#X",
"#X#X#X#X#X#X#X#X#X#X#X#X#X#X#X#X#X#X#X#X#X#X#X#X#X#X#X#X/ [ o.3.q.@.{ ) #X#X#X#X#X#X#X#X#X#X#X#X#X#X#X#X#X#X#X#X#X#X#X#X#X#X#X#X",
"#X#X#X#X#X#X#X#X#X#X#X#X#X#X#X#X#X#X#X#X#X#X#X#X#X#X#X#X~ ` | -.>...` ! #X#X#X#X#X#X#X#X#X#X#X#X#X#X#X#X#X#X#X#X#X#X#X#X#X#X#X#X",
"#X#X#X#X#X#X#X#X#X#X#X#X#X#X#X#X#X#X#X#X#X#X#X#X#X#X#X#XR / [ @.#.{ ( W #X#X#X#X#X#X#X#X#X#X#X#X#X#X#X#X#X#X#X#X#X#X#X#X#X#X#X#X",
"#X#X#X#X#X#X#X#X#X#X#X#X#X#X#X#X#X#X#X#X#X#X#X#X#X#X#X#X#X~ )  . .` ! #X#X#X#X#X#X#X#X#X#X#X#X#X#X#X#X#X#X#X#X#X#X#X#X#X#X#X#X#X",
"#X#X#X#X#X#X#X#X#X#X#X#X#X#X#X#X#X#X#X#X#X#X#X#X#X#X#X#X#XQ / ] [ ( E #X#X#X#X#X#X#X#X#X#X#X#X#X#X#X#X#X#X#X#X#X#X#X#X#X#X#X#X#X",
"#X#X#X#X#X#X#X#X#X#X#X#X#X#X#X#X#X#X#X#X#X#X#X#X#X#X#X#X#X#XW ) ( Q #X#X#X#X#X#X#X#X#X#X#X#X#X#X#X#X#X#X#X#X#X#X#X#X#X#X#X#X#X#X",
"#X#X#X#X#X#X#X#X#X#X#X#X#X#X#X#X#X#X#X#X#X#X#X#X#X#X#X#X#X#XW ~ ~ E #X#X#X#X#X#X#X#X#X#X#X#X#X#X#X#X#X#X#X#X#X#X#X#X#X#X#X#X#X#X",
"#X#X#X#X#X#X#X#X#X#X#X#X#X#X#X#X#X#X#X#X#X#X#X#X#X#X#X#X#X#X#XE W #X#X#X#X#X#X#X#X#X#X#X#X#X#X#X#X#X#X#X#X#X#X#X#X#X#X#X#X#X#X#X",
"#X#X#X#X#X#X#X#X#X#X#X#X#X#X#X#X#X#X#X#X#X#X#X#X#X#X#X#X#X#X#XR R #X#X#X#X#X#X#X#X#X#X#X#X#X#X#X#X#X#X#X#X#X#X#X#X#X#X#X#X#X#X#X",
"#X#X#X#X#X#X#X#X#X#X#X#X#X#X#X#X#X#X#X#X#X#X#X#X#X#X#X#X#X#X#X#X#X#X#X#X#X#X#X#X#X#X#X#X#X#X#X#X#X#X#X#X#X#X#X#X#X#X#X#X#X#X#X#X",
"#X#X#X#X#X#X#X#X#X#X#X#X#X#X#X#X#X#X#X#X#X#X#X#X#X#X#X#X#X#X#X#X#X#X#X#X#X#X#X#X#X#X#X#X#X#X#X#X#X#X#X#X#X#X#X#X#X#X#X#X#X#X#X#X",
"#X#X#X#X#X#X#X#X#X#X#X#X#X#X#X#X#X#X#X#X#X#X#X#X#X#X#X#X#X#X#X#X#X#X#X#X#X#X#X#X#X#X#X#X#X#X#X#X#X#X#X#X#X#X#X#X#X#X#X#X#X#X#X#X"
};
