/* XPM */
static char *result[] = {
/* columns rows colors chars-per-pixel */
"64 64 82 1 ",
"  c #070707",
". c #131313",
"X c #151515",
"o c #161616",
"O c gray9",
"+ c #181818",
"@ c gray10",
"# c #1B1B1B",
"$ c gray11",
"% c #1D1D1D",
"& c #1E1E1E",
"* c gray12",
"= c gray13",
"- c #222222",
"; c #232323",
": c gray14",
"> c #252525",
", c gray15",
"< c #272727",
"1 c #282828",
"2 c gray16",
"3 c gray17",
"4 c #2C2C2C",
"5 c #2D2D2D",
"6 c gray18",
"7 c #323232",
"8 c gray20",
"9 c #343434",
"0 c gray21",
"q c #393939",
"w c gray25",
"e c #414141",
"r c gray26",
"t c #434343",
"y c #4E4E4E",
"u c gray31",
"i c #515151",
"p c #555555",
"a c #565656",
"s c gray34",
"d c #585858",
"f c gray36",
"g c #606060",
"h c #646464",
"j c #656565",
"k c gray42",
"l c #6C6C6C",
"z c #6D6D6D",
"x c gray43",
"c c #6F6F6F",
"v c gray44",
"b c gray45",
"n c #747474",
"m c gray47",
"M c #797979",
"N c gray48",
"B c #7B7B7B",
"V c #7C7C7C",
"C c gray49",
"Z c #7E7E7E",
"A c gray52",
"S c #868686",
"D c gray53",
"F c #888888",
"G c gray55",
"H c #8D8D8D",
"J c #8E8E8E",
"K c gray56",
"L c #909090",
"P c #929292",
"I c gray58",
"U c #959595",
"Y c gray64",
"T c #A4A4A4",
"R c #A5A5A5",
"E c gray65",
"W c #A7A7A7",
"Q c #A9A9A9",
"! c #AAAAAA",
"~ c #B7B7B7",
"^ c gray72",
"/ c None",
/* pixels */
"/~YTTYYYYYYYYYYYYYYYYYYYYYYYYV////BYYYYYYYTTTTTTTTTTTTTTTTTTTY^/",
"YLmmmmmmmmmmmmmmmmmmmmmmmmmmMd9669dMmmmmmmmmmmmmmmmmmmmmmmmmmmLR",
"Flpaaaaaaaaaaaaaaaaaaaaaaaaase2%%2esaaaaaaaaaaaaaaaaaaaaaaaaaplD",
"Fzssssssssssssssssssssssssssdr1OO1rdsssssssssssssssssssssssssszF",
"Fzssssssssssssssssssssssssssdr1++1rdsssssssssssssssssssssssssszF",
"Dzssssssssssssssssssssssssssdr1++1rdsssssssssssssssssssssssssszF",
"Dzssssssssssssssssssssssssssdr1++1rdsssssssssssssssssssssssssszF",
"Dzssssssssssssssssssssssssssdr1++1rdsssssssssssssssssssssssssszF",
"Dzasssssssssssssssssssssssssdr1++1rdsssssssssssssssssssssssssazF",
"Dzasssssssssssssssssssssssssdr1++1rdsssssssssssssssssssssssssazF",
"Dzasssssssssssssssssssssssssdr1++1rdsssssssssssssssssssssssssazF",
"Dzasssssssssssssssssssssssssdr1++1rdsssssssssssssssssssssssssazF",
"Dzassssssssssssssssssssssssssr1++1rssssssssssssssssssssssssssazD",
"Dzassssssssssssssssssssssssssr1++1rssssssssssssssssssssssssssazD",
"Dzassssssssssssssssssssssssssr1++1rssssssssssssssssssssssssssazD",
"Dzassssssssssssssssssssssssssr1++1rssssssssssssssssssssssssssazD",
"Dzassssssssssssssssssssssssssr1++1rssssssssssssssssssssssssssazD",
"Fxssssssssssssssssssssssssssdr1++1rdssssssssssssssssssssssssssxD",
"hywwwwwwwwwwwwwwwwwwwwwwwwwwe8-OO-8ewwwwwwwwwwwwwwwwwwwwwwwwwwyj",
"/5,>>>>,>>>>,,,>>>>>>,>>>>>>,=+oo+=,>>>>>>,>>>>>>,,,>>>>,>>>>,5/",
"/>@OOOOOOOOOOOOOOOOOOOOOOOOOOoXXXXoOOOOOOOOOOOOOOOOOOOOOOOOOO@>/",
"/81::::::::::&XooX&::::::::::::::::::::::::::&XooX&::::::::::10/",
"/!KKKKKKKKKKLh&oXqGKKKKKKKKJJJJJJJJJJKKKKKKKKGqXo&hLKKKKKKKKKK!/",
"TPBVBBBBBBBBVf5O#BUNBBBBBBBBBBBBBBBBBBBBBBBBNUB#O5fVBBBBBBBBVBPE",
"Dlpapppapappar1O*ncppppppppppppppppppppppppppcn*O1rappapapppaplS",
"Dzasssssssssst1O*nvassssssssssssssssssssssssavn*O1tssssssssssazD",
"Dzasssssssssst1O*nvassssssssssssssssssssssssavn*O1tssssssssssazD",
"Dzasssssssssst1O*bvassssssssssssssssssssssssavb*O1tssssssssssazD",
"Dzassssssssssr1O*bvassssssssssssssssssssssssavb*O1rssssssssssazD",
"Dzassssssssssr1O*bvassssssssssssssssssssssssavb*O1rssssssssssazD",
"Dzasssssssssst1O*bvassssssssssssssssssssssssavb*O1tssssssssssazD",
"Dzassssssssssr1O*bvassssssssssssssssssssssssavb*O1rssssssssssazD",
"Szassssssssssr1O*bvassssssssssssssssssssssssavb*O1rssssssssssazD",
"Szassssssssssr1O*bvassssssssssssssssssssssssavb*O1rssssssssssazD",
"Slassssssssssr1O*bvassssssssssssssssssssssssavb*O1rssssssssssalD",
"Slassssssssssr1O*bvasssssssssssaasssssssssssavb*O1rssssssssssalD",
"Slassssssssssr1O*bvassssssssaasaasaassssssssavb*O1rssssssssssalD",
"Slassssssssssr1O*bvasssssaaaaaaaaaaaaaasssssavb*O1rssssssssssalD",
"Slassssssssssr1O*bvassaaaaaaaaaaaaaaaaaaaassavb*O1rssssssssssalD",
"Dzasssssssssst1O*nvassssssssssssssssssssssssavn*O1tssssssssssazD",
"jyweeeeeeeeee9;O#uiweeeeeeeeeeeeeeeeeeeeeeeewiu#O;9eeeeeeeeeewyj",
"/4,>>>>>>>>>,=+oX@,,>>>>>>>>>>>>>>>>>>>>>>>>,,@Xo+=,>>>>>>>>>,4/",
"/>#OOOOOOOOOOoXXXXOOOOOOOOOOOO++++OOOOOOOOOOOOXXXXoOOOOOOOOOO#>/",
"/9>--------------------------$XooX$-------------------------->7/",
"/QJHHHHHHHHHHHHHHHHHHHHHHHHHJg%XX%gJHHHHHHHHHHHHHHHHHHHHHHHHHJQ/",
"EICZZZZZZZZZZZZZZZZZZZZCCCCCZf4OO4fZCCCCCZZZZZZZZZZZZZZZZZZZZCIW",
"Skpppppppppppppppppppppppppppe1++1epppppppppppppppppppppppppppkA",
"Slaaaaaaaaaaaaaaaaaaaaaaaaaase1OO1esaaaaaaaaaaaaaaaaaaaaaaaaaalS",
"Slaaaaaaaaaaaaaaaaaaaaaaaaaase1OO1esaaaaaaaaaaaaaaaaaaaaaaaaaalS",
"Slaaaaaaaaaaaaaaaaaaaaaaaaaase1OO1esaaaaaaaaaaaaaaaaaaaaaaaaaalS",
"Slaaaaaaaaaaaaaaaaaaaaaaaaaase1OO1esaaaaaaaaaaaaaaaaaaaaaaaaaalS",
"Slaaaaaaaaaaaaaaaaaaaaaaaaaase1OO1esaaaaaaaaaaaaaaaaaaaaaaaaaalS",
"Slpaaaaaaaaaaaaaaaaaaaaaaaaase1OO1esaaaaaaaaaaaaaaaaaaaaaaaaaplS",
"Slaaaaaaaaaaaaaaaaaaaaaaaaaase1OO1esaaaaaaaaaaaaaaaaaaaaaaaaaalS",
"Slpaaaaaaaaaaaaaaaaaaaaaaaaase1OO1esaaaaaaaaaaaaaaaaaaaaaaaaaplS",
"Slpaaaaaaaaaaaaaaaaaaaaaaaaase1OO1esaaaaaaaaaaaaaaaaaaaaaaaaaplS",
"Slpaaaaaaaaaaaaaaaaaaaaaaaaase1OO1esaaaaaaaaaaaaaaaaaaaaaaaaaplS",
"Slpaaaaaaaaaaaaaaaaaaaaaaaaaae1OO1eaaaaaaaaaaaaaaaaaaaaaaaaaaplS",
"Slpaaaaaaaaaaaaaaaaaaaaaaaaaae1OO1eaaaaaaaaaaaaaaaaaaaaaaaaaaplS",
"Slpaaaaaaaaaaaaaaaaaaaaaaaaaae1OO1eaaaaaaaaaaaaaaaaaaaaaaaaaaplS",
"Alpaaaaaaaaaaaaaaaaaaaaaaaaaae1++1eaaaaaaaaaaaaaaaaaaaaaaaaaaplS",
"Slassssssssssssssssssssssssssr<..<rssssssssssssssssssssssssssalS",
"hyeeeeeeeeeeeeeeeeeeeeeeeeeee9-  -9eeeeeeeeeeeeeeeeeeeeeeeeeeeyj",
"/3111111111111111111111111111:////:1111111111111111111111111113/"
};
